SeanSans-NarrowExtrabold.ufo
<glyph name="exclam" format="1">
  <advance width="258"/>
  <unicode hex="0021"/>
  <outline>
    <contour>
      <point x="190" y="229" type="line"/>
      <point x="202" y="722" type="line"/>
      <point x="57" y="722" type="line"/>
      <point x="68" y="229" type="line"/>
    </contour>
    <contour>
      <point x="200" y="56" type="curve"/>
      <point x="200" y="100"/>
      <point x="170" y="122"/>
      <point x="128" y="122" type="curve"/>
      <point x="86" y="122"/>
      <point x="58" y="98"/>
      <point x="58" y="56" type="curve"/>
      <point x="200" y="56"/>
      <point x="59" y="56"/>
      <point x="200" y="56" type="curve"/>
      <point x="200" y="11"/>
      <point x="170" y="-9"/>
      <point x="128" y="-9" type="curve"/>
      <point x="85" y="-9"/>
      <point x="58" y="13"/>
      <point x="58" y="56" type="curve"/>
      <point x="200" y="56"/>
      <point x="59" y="56"/>
    </contour>
  </outline>
</glyph>
<glyph name="quotedbl" format="1">
  <advance width="419"/>
  <unicode hex="0022"/>
  <outline>
    <contour>
      <point x="171" y="622" type="line"/>
      <point x="180" y="840" type="line"/>
      <point x="43" y="840" type="line"/>
      <point x="52" y="622" type="line"/>
    </contour>
    <contour>
      <point x="367" y="622" type="line"/>
      <point x="376" y="840" type="line"/>
      <point x="239" y="840" type="line"/>
      <point x="249" y="622" type="line"/>
    </contour>
  </outline>
</glyph>
<glyph name="numbersign" format="1">
  <advance width="635"/>
  <unicode hex="0023"/>
  <outline>
    <contour>
      <point x="34" y="220" type="curve"/>
      <point x="514" y="220" type="curve"/>
      <point x="544" y="321" type="curve"/>
      <point x="64" y="321" type="curve"/>
    </contour>
    <contour>
      <point x="92" y="436" type="curve"/>
      <point x="575" y="436" type="curve"/>
      <point x="604" y="537" type="curve"/>
      <point x="121" y="537" type="curve"/>
    </contour>
    <contour>
      <point x="410" y="39" type="curve"/>
      <point x="603" y="722" type="curve"/>
      <point x="472" y="722" type="curve"/>
      <point x="279" y="39" type="curve"/>
    </contour>
    <contour>
      <point x="165" y="46" type="curve"/>
      <point x="357" y="722" type="curve"/>
      <point x="226" y="722" type="curve"/>
      <point x="39" y="46" type="curve"/>
    </contour>
  </outline>
</glyph>
<glyph name="dollar" format="1">
  <advance width="533"/>
  <unicode hex="0024"/>
  <outline>
    <contour>
      <point x="311" y="-41" type="curve"/>
      <point x="311" y="-11"/>
      <point x="311" y="62"/>
      <point x="311" y="93" type="curve"/>
      <point x="180" y="93"/>
      <point x="311" y="93"/>
      <point x="180" y="93" type="curve"/>
      <point x="180" y="62"/>
      <point x="180" y="-11"/>
      <point x="180" y="-41" type="curve"/>
      <point x="311" y="-41"/>
      <point x="180" y="-41"/>
    </contour>
    <contour>
      <point x="322" y="636" type="curve"/>
      <point x="322" y="667"/>
      <point x="322" y="743"/>
      <point x="322" y="773" type="curve"/>
      <point x="191" y="773"/>
      <point x="322" y="773"/>
      <point x="191" y="773" type="curve"/>
      <point x="191" y="743"/>
      <point x="191" y="667"/>
      <point x="191" y="636" type="curve"/>
      <point x="322" y="636"/>
      <point x="191" y="636"/>
    </contour>
    <contour>
      <point x="41" y="92" type="curve"/>
      <point x="96" y="64"/>
      <point x="163" y="43"/>
      <point x="240" y="43" type="curve"/>
      <point x="386" y="43"/>
      <point x="503" y="100"/>
      <point x="503" y="218" type="curve"/>
      <point x="503" y="322"/>
      <point x="406" y="371"/>
      <point x="297" y="419" type="curve"/>
      <point x="230" y="447"/>
      <point x="169" y="467"/>
      <point x="169" y="523" type="curve"/>
      <point x="169" y="564"/>
      <point x="206" y="588"/>
      <point x="258" y="588" type="curve"/>
      <point x="312" y="588"/>
      <point x="349" y="574"/>
      <point x="399" y="550" type="curve"/>
      <point x="460" y="635"/>
      <point x="399" y="550"/>
      <point x="460" y="635" type="curve"/>
      <point x="395" y="669"/>
      <point x="341" y="687"/>
      <point x="264" y="687" type="curve"/>
      <point x="134" y="687"/>
      <point x="37" y="631"/>
      <point x="37" y="523" type="curve"/>
      <point x="37" y="422"/>
      <point x="115" y="373"/>
      <point x="220" y="328" type="curve"/>
      <point x="293" y="298"/>
      <point x="371" y="277"/>
      <point x="371" y="214" type="curve"/>
      <point x="371" y="165"/>
      <point x="317" y="142"/>
      <point x="252" y="142" type="curve"/>
      <point x="197" y="142"/>
      <point x="151" y="163"/>
      <point x="108" y="183" type="curve"/>
      <point x="41" y="92"/>
      <point x="108" y="183"/>
    </contour>
  </outline>
</glyph>
<glyph name="percent" format="1">
  <advance width="1061"/>
  <unicode hex="0025"/>
  <outline>
    <contour>
      <point x="404" y="-42" type="line"/>
      <point x="785" y="713" type="line"/>
      <point x="665" y="713" type="line"/>
      <point x="284" y="-42" type="line"/>
    </contour>
    <contour>
      <point x="142" y="498" type="curve"/>
      <point x="142" y="569"/>
      <point x="164" y="623"/>
      <point x="228" y="623" type="curve"/>
      <point x="293" y="624"/>
      <point x="317" y="569"/>
      <point x="317" y="497" type="curve"/>
      <point x="317" y="426"/>
      <point x="299" y="369"/>
      <point x="235" y="369" type="curve"/>
      <point x="167" y="369"/>
      <point x="142" y="424"/>
      <point x="142" y="498" type="curve"/>
      <point x="99" y="498"/>
      <point x="70" y="498"/>
      <point x="27" y="498" type="curve"/>
      <point x="27" y="365"/>
      <point x="100" y="276"/>
      <point x="229" y="276" type="curve"/>
      <point x="362" y="276"/>
      <point x="437" y="365"/>
      <point x="437" y="501" type="curve"/>
      <point x="437" y="632"/>
      <point x="363" y="716"/>
      <point x="234" y="716" type="curve"/>
      <point x="103" y="716"/>
      <point x="27" y="631"/>
      <point x="27" y="498" type="curve"/>
      <point x="70" y="498"/>
      <point x="99" y="498"/>
    </contour>
    <contour>
      <point x="738" y="178" type="curve"/>
      <point x="738" y="248"/>
      <point x="761" y="302"/>
      <point x="825" y="302" type="curve"/>
      <point x="890" y="303"/>
      <point x="914" y="248"/>
      <point x="914" y="176" type="curve"/>
      <point x="914" y="105"/>
      <point x="895" y="48"/>
      <point x="832" y="48" type="curve"/>
      <point x="764" y="48"/>
      <point x="738" y="104"/>
      <point x="738" y="178" type="curve"/>
      <point x="696" y="178"/>
      <point x="666" y="178"/>
      <point x="624" y="178" type="curve"/>
      <point x="624" y="44"/>
      <point x="696" y="-44"/>
      <point x="826" y="-44" type="curve"/>
      <point x="958" y="-44"/>
      <point x="1033" y="45"/>
      <point x="1033" y="181" type="curve"/>
      <point x="1033" y="312"/>
      <point x="959" y="395"/>
      <point x="831" y="395" type="curve"/>
      <point x="700" y="395"/>
      <point x="624" y="310"/>
      <point x="624" y="178" type="curve"/>
      <point x="666" y="178"/>
      <point x="696" y="178"/>
    </contour>
  </outline>
</glyph>
<glyph name="ampersand" format="1">
  <advance width="671"/>
  <unicode hex="0026"/>
  <outline>
    <contour>
      <point x="641" y="50" type="line"/>
      <point x="551" y="147"/>
      <point x="445" y="273"/>
      <point x="350" y="375" type="curve"/>
      <point x="299" y="431"/>
      <point x="231" y="474"/>
      <point x="231" y="552" type="curve"/>
      <point x="231" y="592"/>
      <point x="247" y="627"/>
      <point x="284" y="627" type="curve"/>
      <point x="326" y="627"/>
      <point x="347" y="598"/>
      <point x="347" y="554" type="curve"/>
      <point x="347" y="485"/>
      <point x="298" y="451"/>
      <point x="237" y="416" type="curve"/>
      <point x="138" y="358"/>
      <point x="45" y="311"/>
      <point x="45" y="198" type="curve"/>
      <point x="45" y="69"/>
      <point x="144" y="-5"/>
      <point x="278" y="-5" type="curve"/>
      <point x="465" y="-5"/>
      <point x="566" y="129"/>
      <point x="624" y="313" type="curve"/>
      <point x="511" y="338"/>
      <point x="624" y="313"/>
      <point x="511" y="338" type="curve"/>
      <point x="468" y="206"/>
      <point x="415" y="96"/>
      <point x="285" y="96" type="curve"/>
      <point x="220" y="96"/>
      <point x="177" y="133"/>
      <point x="177" y="198" type="curve"/>
      <point x="177" y="269"/>
      <point x="229" y="299"/>
      <point x="292" y="336" type="curve"/>
      <point x="389" y="394"/>
      <point x="477" y="443"/>
      <point x="478" y="554" type="curve"/>
      <point x="478" y="663"/>
      <point x="399" y="727"/>
      <point x="290" y="727" type="curve"/>
      <point x="180" y="727"/>
      <point x="106" y="660"/>
      <point x="106" y="552" type="curve"/>
      <point x="106" y="448"/>
      <point x="186" y="389"/>
      <point x="257" y="314" type="curve"/>
      <point x="349" y="215"/>
      <point x="468" y="77"/>
      <point x="554" y="-17" type="curve"/>
    </contour>
  </outline>
</glyph>
<glyph name="parenleft" format="1">
  <advance width="358"/>
  <unicode hex="0028"/>
  <outline>
    <contour>
      <point x="357" y="-208" type="curve"/>
      <point x="213" y="-46"/>
      <point x="163" y="108"/>
      <point x="163" y="326" type="curve"/>
      <point x="163" y="545"/>
      <point x="214" y="698"/>
      <point x="356" y="863" type="curve"/>
      <point x="278" y="928"/>
      <point x="356" y="863"/>
      <point x="278" y="928" type="curve"/>
      <point x="113" y="743"/>
      <point x="35" y="577"/>
      <point x="35" y="326" type="curve"/>
      <point x="35" y="74"/>
      <point x="113" y="-91"/>
      <point x="279" y="-278" type="curve"/>
      <point x="357" y="-208"/>
      <point x="279" y="-278"/>
    </contour>
  </outline>
</glyph>
<glyph name="parenright" format="1">
  <advance width="369"/>
  <unicode hex="0029"/>
  <outline>
    <contour>
      <point x="77" y="-292" type="curve"/>
      <point x="245" y="-97"/>
      <point x="333" y="70"/>
      <point x="333" y="329" type="curve"/>
      <point x="333" y="582"/>
      <point x="252" y="746"/>
      <point x="80" y="930" type="curve"/>
      <point x="3" y="860"/>
      <point x="80" y="930"/>
      <point x="3" y="860" type="curve"/>
      <point x="149" y="697"/>
      <point x="204" y="544"/>
      <point x="204" y="324" type="curve"/>
      <point x="204" y="100"/>
      <point x="141" y="-54"/>
      <point x="-1" y="-227" type="curve"/>
      <point x="77" y="-292"/>
      <point x="-1" y="-227"/>
    </contour>
  </outline>
</glyph>
<glyph name="asterisk" format="1">
  <advance width="543"/>
  <unicode hex="002A"/>
  <outline>
    <contour>
      <point x="313" y="565" type="line"/>
      <point x="319" y="784" type="line"/>
      <point x="222" y="784" type="line"/>
      <point x="229" y="565" type="line"/>
    </contour>
    <contour>
      <point x="295" y="519" type="line"/>
      <point x="502" y="586" type="line"/>
      <point x="469" y="678" type="line"/>
      <point x="266" y="598" type="line"/>
    </contour>
    <contour>
      <point x="245" y="520" type="line"/>
      <point x="379" y="347" type="line"/>
      <point x="453" y="410" type="line"/>
      <point x="309" y="574" type="line"/>
    </contour>
    <contour>
      <point x="233" y="574" type="line"/>
      <point x="89" y="409" type="line"/>
      <point x="163" y="348" type="line"/>
      <point x="297" y="520" type="line"/>
    </contour>
    <contour>
      <point x="276" y="597" type="line"/>
      <point x="72" y="677" type="line"/>
      <point x="39" y="586" type="line"/>
      <point x="247" y="518" type="line"/>
    </contour>
  </outline>
</glyph>
<glyph name="plus" format="1">
  <advance width="609"/>
  <unicode hex="002B"/>
  <outline>
    <contour>
      <point x="34" y="259" type="curve"/>
      <point x="575" y="259" type="line"/>
      <point x="575" y="369"/>
      <point x="575" y="259"/>
      <point x="575" y="369" type="curve"/>
      <point x="34" y="369" type="line"/>
      <point x="34" y="259"/>
      <point x="34" y="369"/>
    </contour>
    <contour>
      <point x="367" y="44" type="curve"/>
      <point x="367" y="582" type="line"/>
      <point x="235" y="582"/>
      <point x="375" y="582"/>
      <point x="244" y="582" type="curve"/>
      <point x="244" y="44" type="line"/>
      <point x="375" y="44"/>
      <point x="235" y="44"/>
    </contour>
  </outline>
</glyph>
<glyph name="comma" format="1">
  <advance width="217"/>
  <unicode hex="002C"/>
  <outline>
    <contour>
      <point x="14" y="-118" type="line"/>
      <point x="107" y="-115"/>
      <point x="171" y="-49"/>
      <point x="171" y="51" type="curve"/>
      <point x="171" y="129"/>
      <point x="139" y="175"/>
      <point x="91" y="175" type="curve"/>
      <point x="49" y="175"/>
      <point x="20" y="153"/>
      <point x="20" y="110" type="curve"/>
      <point x="20" y="72"/>
      <point x="44" y="46"/>
      <point x="83" y="45" type="curve"/>
      <point x="83" y="14"/>
      <point x="76" y="-35"/>
      <point x="12" y="-47" type="curve"/>
    </contour>
  </outline>
</glyph>
<glyph name="hyphen" format="1">
  <advance width="371"/>
  <unicode hex="002D"/>
  <outline>
    <contour>
      <point x="55" y="227" type="curve"/>
      <point x="142" y="227"/>
      <point x="229" y="227"/>
      <point x="316" y="227" type="curve"/>
      <point x="316" y="337"/>
      <point x="316" y="227"/>
      <point x="316" y="337" type="curve"/>
      <point x="229" y="337"/>
      <point x="142" y="337"/>
      <point x="55" y="337" type="curve"/>
      <point x="55" y="227"/>
      <point x="55" y="337"/>
    </contour>
  </outline>
</glyph>
<glyph name="period" format="1">
  <advance width="238"/>
  <unicode hex="002E"/>
  <outline>
    <contour>
      <point x="190" y="56" type="curve"/>
      <point x="190" y="100"/>
      <point x="160" y="122"/>
      <point x="118" y="122" type="curve"/>
      <point x="76" y="122"/>
      <point x="48" y="98"/>
      <point x="48" y="56" type="curve"/>
      <point x="190" y="56"/>
      <point x="49" y="56"/>
      <point x="190" y="56" type="curve"/>
      <point x="190" y="11"/>
      <point x="160" y="-9"/>
      <point x="118" y="-9" type="curve"/>
      <point x="75" y="-9"/>
      <point x="48" y="13"/>
      <point x="48" y="56" type="curve"/>
      <point x="190" y="56"/>
      <point x="49" y="56"/>
    </contour>
  </outline>
</glyph>
<glyph name="slash" format="1">
  <advance width="551"/>
  <unicode hex="002F"/>
  <outline>
    <contour>
      <point x="151" y="-19" type="curve"/>
      <point x="277" y="250"/>
      <point x="405" y="520"/>
      <point x="531" y="789" type="curve"/>
      <point x="400" y="789"/>
      <point x="531" y="789"/>
      <point x="400" y="789" type="curve"/>
      <point x="273" y="520"/>
      <point x="146" y="250"/>
      <point x="20" y="-19" type="curve"/>
      <point x="151" y="-19"/>
      <point x="20" y="-19"/>
    </contour>
  </outline>
</glyph>
<glyph name="zero" format="1">
  <advance width="674"/>
  <unicode hex="0030"/>
  <outline>
    <contour>
      <point x="174" y="360" type="curve"/>
      <point x="174" y="509"/>
      <point x="214" y="622"/>
      <point x="333" y="622" type="curve"/>
      <point x="456" y="622"/>
      <point x="500" y="512"/>
      <point x="500" y="363" type="curve"/>
      <point x="500" y="214"/>
      <point x="462" y="100"/>
      <point x="343" y="100" type="curve"/>
      <point x="218" y="100"/>
      <point x="174" y="211"/>
      <point x="174" y="360" type="curve"/>
      <point x="44" y="360"/>
      <point x="174" y="360"/>
      <point x="44" y="360" type="curve"/>
      <point x="44" y="143"/>
      <point x="138" y="-5"/>
      <point x="337" y="-5" type="curve"/>
      <point x="537" y="-5"/>
      <point x="630" y="144"/>
      <point x="630" y="363" type="curve"/>
      <point x="630" y="579"/>
      <point x="541" y="727"/>
      <point x="345" y="727" type="curve"/>
      <point x="142" y="727"/>
      <point x="44" y="580"/>
      <point x="44" y="360" type="curve"/>
      <point x="174" y="360"/>
      <point x="44" y="360"/>
    </contour>
  </outline>
</glyph>
<glyph name="one" format="1">
  <advance width="377"/>
  <unicode hex="0031"/>
  <outline>
    <contour>
      <point x="80" y="479" type="curve"/>
      <point x="282" y="655"/>
      <point x="80" y="479"/>
      <point x="282" y="655" type="curve"/>
      <point x="186" y="722"/>
      <point x="282" y="655"/>
      <point x="186" y="722" type="curve"/>
      <point x="8" y="565"/>
      <point x="186" y="722"/>
      <point x="8" y="565" type="curve"/>
      <point x="80" y="479"/>
      <point x="8" y="565"/>
    </contour>
    <contour>
      <point x="315" y="0" type="curve"/>
      <point x="315" y="241"/>
      <point x="315" y="481"/>
      <point x="315" y="722" type="curve"/>
      <point x="186" y="722"/>
      <point x="315" y="722"/>
      <point x="186" y="722" type="curve"/>
      <point x="186" y="481"/>
      <point x="186" y="241"/>
      <point x="186" y="0" type="curve"/>
      <point x="315" y="0"/>
      <point x="186" y="0"/>
    </contour>
  </outline>
</glyph>
<glyph name="two" format="1">
  <advance width="548"/>
  <unicode hex="0032"/>
  <outline>
    <contour>
      <point x="37" y="0" type="curve"/>
      <point x="224" y="0"/>
      <point x="384" y="0"/>
      <point x="510" y="0" type="curve"/>
      <point x="510" y="100"/>
      <point x="510" y="0"/>
      <point x="510" y="100" type="curve"/>
      <point x="364" y="100"/>
      <point x="184" y="101"/>
      <point x="37" y="101" type="curve"/>
      <point x="37" y="0"/>
      <point x="37" y="100"/>
    </contour>
    <contour>
      <point x="128" y="520" type="curve"/>
      <point x="170" y="580"/>
      <point x="200" y="622"/>
      <point x="265" y="622" type="curve"/>
      <point x="332" y="622"/>
      <point x="364" y="578"/>
      <point x="364" y="505" type="curve"/>
      <point x="364" y="407"/>
      <point x="304" y="343"/>
      <point x="232" y="279" type="curve"/>
      <point x="167" y="218"/>
      <point x="105" y="162"/>
      <point x="37" y="101" type="curve"/>
      <point x="38" y="0"/>
      <point x="37" y="100"/>
      <point x="38" y="0" type="curve"/>
      <point x="174" y="60"/>
      <point x="244" y="135"/>
      <point x="317" y="203" type="curve"/>
      <point x="417" y="291"/>
      <point x="488" y="371"/>
      <point x="488" y="510" type="curve"/>
      <point x="488" y="649"/>
      <point x="409" y="727"/>
      <point x="270" y="727" type="curve"/>
      <point x="161" y="727"/>
      <point x="86" y="671"/>
      <point x="39" y="576" type="curve"/>
      <point x="128" y="520"/>
      <point x="39" y="576"/>
    </contour>
  </outline>
</glyph>
<glyph name="three" format="1">
  <advance width="516"/>
  <unicode hex="0033"/>
  <outline>
    <contour>
      <point x="33" y="58" type="curve"/>
      <point x="86" y="20"/>
      <point x="143" y="-5"/>
      <point x="219" y="-5" type="curve"/>
      <point x="372" y="-5"/>
      <point x="475" y="61"/>
      <point x="475" y="211" type="curve"/>
      <point x="475" y="343"/>
      <point x="341" y="408"/>
      <point x="144" y="408" type="curve"/>
      <point x="144" y="325"/>
      <point x="144" y="407"/>
      <point x="144" y="324" type="curve"/>
      <point x="256" y="324"/>
      <point x="349" y="283"/>
      <point x="349" y="207" type="curve"/>
      <point x="349" y="132"/>
      <point x="293" y="100"/>
      <point x="224" y="100" type="curve"/>
      <point x="181" y="100"/>
      <point x="142" y="113"/>
      <point x="100" y="137" type="curve"/>
      <point x="33" y="58"/>
      <point x="100" y="137"/>
    </contour>
    <contour>
      <point x="111" y="568" type="curve"/>
      <point x="133" y="593"/>
      <point x="172" y="622"/>
      <point x="216" y="622" type="curve"/>
      <point x="280" y="622"/>
      <point x="320" y="592"/>
      <point x="320" y="528" type="curve"/>
      <point x="320" y="461"/>
      <point x="243" y="424"/>
      <point x="144" y="424" type="curve"/>
      <point x="144" y="341"/>
      <point x="144" y="423"/>
      <point x="144" y="340" type="curve"/>
      <point x="315" y="340"/>
      <point x="444" y="403"/>
      <point x="444" y="532" type="curve"/>
      <point x="444" y="661"/>
      <point x="358" y="727"/>
      <point x="227" y="727" type="curve"/>
      <point x="143" y="727"/>
      <point x="69" y="685"/>
      <point x="33" y="636" type="curve"/>
      <point x="111" y="568"/>
      <point x="33" y="636"/>
    </contour>
  </outline>
</glyph>
<glyph name="four" format="1">
  <advance width="556"/>
  <unicode hex="0034"/>
  <outline>
    <contour>
      <point x="62" y="248" type="line"/>
      <point x="390" y="685" type="line"/>
      <point x="283" y="699" type="line"/>
      <point x="11" y="341" type="line"/>
    </contour>
    <contour>
      <point x="524" y="341" type="line"/>
      <point x="11" y="341" type="line"/>
      <point x="11" y="230" type="line"/>
      <point x="524" y="230" type="line"/>
    </contour>
    <contour>
      <point x="415" y="0" type="line"/>
      <point x="415" y="699" type="line"/>
      <point x="285" y="699" type="line"/>
      <point x="285" y="0" type="line"/>
    </contour>
  </outline>
</glyph>
<glyph name="five" format="1">
  <advance width="514"/>
  <unicode hex="0035"/>
  <outline>
    <contour>
      <point x="61" y="722" type="curve"/>
      <point x="61" y="625"/>
      <point x="61" y="516"/>
      <point x="61" y="380" type="curve"/>
      <point x="187" y="343"/>
      <point x="61" y="380"/>
      <point x="186" y="343" type="curve"/>
      <point x="186" y="432"/>
      <point x="186" y="533"/>
      <point x="186" y="622" type="curve"/>
      <point x="61" y="722"/>
      <point x="186" y="622"/>
    </contour>
    <contour>
      <point x="186" y="343" type="curve"/>
      <point x="199" y="354"/>
      <point x="225" y="364"/>
      <point x="249" y="364" type="curve"/>
      <point x="320" y="364"/>
      <point x="349" y="312"/>
      <point x="349" y="239" type="curve"/>
      <point x="349" y="160"/>
      <point x="304" y="100"/>
      <point x="230" y="100" type="curve"/>
      <point x="182" y="100"/>
      <point x="147" y="109"/>
      <point x="103" y="133" type="curve"/>
      <point x="40" y="43"/>
      <point x="103" y="133"/>
      <point x="40" y="43" type="curve"/>
      <point x="94" y="12"/>
      <point x="160" y="-5"/>
      <point x="234" y="-5" type="curve"/>
      <point x="374" y="-5"/>
      <point x="478" y="93"/>
      <point x="478" y="240" type="curve"/>
      <point x="478" y="377"/>
      <point x="398" y="471"/>
      <point x="264" y="471" type="curve"/>
      <point x="204" y="471"/>
      <point x="142" y="450"/>
      <point x="85" y="380" type="curve"/>
      <point x="189" y="349"/>
      <point x="83" y="374"/>
    </contour>
    <contour>
      <point x="448" y="722" type="curve"/>
      <point x="323" y="722"/>
      <point x="180" y="722"/>
      <point x="61" y="722" type="curve"/>
      <point x="186" y="622"/>
      <point x="61" y="722"/>
      <point x="186" y="622" type="curve"/>
      <point x="264" y="622"/>
      <point x="364" y="622"/>
      <point x="448" y="622" type="curve"/>
      <point x="448" y="722"/>
      <point x="448" y="622"/>
    </contour>
  </outline>
</glyph>
<glyph name="six" format="1">
  <advance width="567"/>
  <unicode hex="0036"/>
  <outline>
    <contour>
      <point x="146" y="215" type="curve"/>
      <point x="173" y="290"/>
      <point x="219" y="341"/>
      <point x="296" y="341" type="curve"/>
      <point x="367" y="341"/>
      <point x="402" y="296"/>
      <point x="402" y="223" type="curve"/>
      <point x="402" y="153"/>
      <point x="366" y="108"/>
      <point x="298" y="108" type="curve"/>
      <point x="210" y="108"/>
      <point x="165" y="167"/>
      <point x="165" y="258" type="curve"/>
      <point x="165" y="464"/>
      <point x="298" y="569"/>
      <point x="505" y="633" type="curve"/>
      <point x="472" y="729"/>
      <point x="505" y="633"/>
      <point x="472" y="729" type="curve"/>
      <point x="220" y="656"/>
      <point x="39" y="518"/>
      <point x="39" y="253" type="curve"/>
      <point x="39" y="90"/>
      <point x="134" y="-11"/>
      <point x="295" y="-11" type="curve"/>
      <point x="443" y="-11"/>
      <point x="533" y="77"/>
      <point x="533" y="223" type="curve"/>
      <point x="533" y="365"/>
      <point x="449" y="446"/>
      <point x="315" y="446" type="curve"/>
      <point x="183" y="446"/>
      <point x="102" y="338"/>
      <point x="76" y="248" type="curve"/>
      <point x="146" y="215"/>
      <point x="76" y="248"/>
    </contour>
  </outline>
</glyph>
<glyph name="eight" format="1">
  <advance width="562"/>
  <unicode hex="0038"/>
  <outline>
    <contour>
      <point x="61" y="539" type="curve"/>
      <point x="61" y="428"/>
      <point x="141" y="392"/>
      <point x="243" y="342" type="curve"/>
      <point x="324" y="301"/>
      <point x="389" y="273"/>
      <point x="389" y="192" type="curve"/>
      <point x="389" y="130"/>
      <point x="349" y="99"/>
      <point x="282" y="99" type="curve"/>
      <point x="213" y="99"/>
      <point x="173" y="129"/>
      <point x="173" y="192" type="curve"/>
      <point x="173" y="276"/>
      <point x="240" y="300"/>
      <point x="322" y="342" type="curve"/>
      <point x="420" y="393"/>
      <point x="501" y="428"/>
      <point x="501" y="537" type="curve"/>
      <point x="501" y="667"/>
      <point x="418" y="727"/>
      <point x="282" y="727" type="curve"/>
      <point x="149" y="727"/>
      <point x="61" y="665"/>
      <point x="61" y="539" type="curve"/>
      <point x="190" y="539"/>
      <point x="61" y="539"/>
      <point x="190" y="539" type="curve"/>
      <point x="190" y="592"/>
      <point x="220" y="623"/>
      <point x="277" y="623" type="curve"/>
      <point x="338" y="623"/>
      <point x="372" y="594"/>
      <point x="372" y="537" type="curve"/>
      <point x="372" y="467"/>
      <point x="312" y="447"/>
      <point x="242" y="413" type="curve"/>
      <point x="130" y="356"/>
      <point x="44" y="314"/>
      <point x="44" y="192" type="curve"/>
      <point x="44" y="58"/>
      <point x="135" y="-5"/>
      <point x="275" y="-5" type="curve"/>
      <point x="420" y="-5"/>
      <point x="518" y="55"/>
      <point x="518" y="192" type="curve"/>
      <point x="518" y="313"/>
      <point x="432" y="357"/>
      <point x="322" y="413" type="curve"/>
      <point x="252" y="450"/>
      <point x="190" y="468"/>
      <point x="190" y="539" type="curve"/>
      <point x="61" y="539"/>
      <point x="190" y="539"/>
    </contour>
  </outline>
</glyph>
<glyph name="nine" format="1">
  <advance width="567"/>
  <unicode hex="0039"/>
  <outline>
    <contour>
      <point x="426" y="482" type="curve"/>
      <point x="395" y="411"/>
      <point x="352" y="381"/>
      <point x="277" y="381" type="curve"/>
      <point x="202" y="381"/>
      <point x="160" y="428"/>
      <point x="160" y="504" type="curve"/>
      <point x="160" y="572"/>
      <point x="200" y="614"/>
      <point x="266" y="614" type="curve"/>
      <point x="355" y="614"/>
      <point x="400" y="556"/>
      <point x="400" y="464" type="curve"/>
      <point x="400" y="259"/>
      <point x="273" y="152"/>
      <point x="68" y="88" type="curve"/>
      <point x="112" y="-13"/>
      <point x="68" y="88"/>
      <point x="112" y="-13" type="curve"/>
      <point x="351" y="56"/>
      <point x="526" y="204"/>
      <point x="526" y="469" type="curve"/>
      <point x="526" y="632"/>
      <point x="432" y="733"/>
      <point x="271" y="733" type="curve"/>
      <point x="123" y="733"/>
      <point x="33" y="645"/>
      <point x="33" y="499" type="curve"/>
      <point x="33" y="357"/>
      <point x="122" y="276"/>
      <point x="265" y="276" type="curve"/>
      <point x="386" y="276"/>
      <point x="453" y="364"/>
      <point x="489" y="455" type="curve"/>
      <point x="426" y="482"/>
      <point x="489" y="455"/>
    </contour>
  </outline>
</glyph>
<glyph name="colon" format="1">
  <advance width="252"/>
  <unicode hex="003A"/>
  <outline>
    <contour>
      <point x="197" y="373" type="curve"/>
      <point x="197" y="417"/>
      <point x="166" y="439"/>
      <point x="124" y="439" type="curve"/>
      <point x="82" y="439"/>
      <point x="54" y="415"/>
      <point x="54" y="373" type="curve"/>
      <point x="196" y="373"/>
      <point x="55" y="373"/>
      <point x="197" y="373" type="curve"/>
      <point x="197" y="328"/>
      <point x="167" y="308"/>
      <point x="124" y="308" type="curve"/>
      <point x="81" y="308"/>
      <point x="54" y="330"/>
      <point x="54" y="373" type="curve"/>
      <point x="196" y="373"/>
      <point x="55" y="373"/>
    </contour>
    <contour>
      <point x="196" y="59" type="curve"/>
      <point x="196" y="103"/>
      <point x="166" y="124"/>
      <point x="124" y="124" type="curve"/>
      <point x="82" y="124"/>
      <point x="54" y="101"/>
      <point x="54" y="59" type="curve"/>
      <point x="196" y="59"/>
      <point x="55" y="59"/>
      <point x="196" y="59" type="curve"/>
      <point x="196" y="14"/>
      <point x="166" y="-6"/>
      <point x="124" y="-6" type="curve"/>
      <point x="81" y="-6"/>
      <point x="54" y="16"/>
      <point x="54" y="59" type="curve"/>
      <point x="196" y="59"/>
      <point x="55" y="59"/>
    </contour>
  </outline>
</glyph>
<glyph name="semicolon" format="1">
  <advance width="238"/>
  <unicode hex="003B"/>
  <outline>
    <contour>
      <point x="21" y="-190" type="line"/>
      <point x="120" y="-187"/>
      <point x="187" y="-121"/>
      <point x="187" y="-21" type="curve"/>
      <point x="187" y="57"/>
      <point x="153" y="104"/>
      <point x="102" y="104" type="curve"/>
      <point x="58" y="104"/>
      <point x="27" y="81"/>
      <point x="27" y="38" type="curve"/>
      <point x="27" y="1"/>
      <point x="52" y="-25"/>
      <point x="94" y="-26" type="curve"/>
      <point x="94" y="-57"/>
      <point x="86" y="-106"/>
      <point x="19" y="-119" type="curve"/>
    </contour>
    <contour>
      <point x="172" y="383" type="curve"/>
      <point x="172" y="427"/>
      <point x="141" y="448"/>
      <point x="99" y="448" type="curve"/>
      <point x="57" y="448"/>
      <point x="29" y="425"/>
      <point x="29" y="383" type="curve"/>
      <point x="171" y="383"/>
      <point x="30" y="383"/>
      <point x="172" y="383" type="curve"/>
      <point x="172" y="338"/>
      <point x="142" y="318"/>
      <point x="99" y="318" type="curve"/>
      <point x="56" y="318"/>
      <point x="29" y="340"/>
      <point x="29" y="383" type="curve"/>
      <point x="171" y="383"/>
      <point x="30" y="383"/>
    </contour>
  </outline>
</glyph>
<glyph name="less" format="1">
  <advance width="624"/>
  <unicode hex="003C"/>
  <outline>
    <contour>
      <point x="570" y="625" type="curve"/>
      <point x="389" y="535"/>
      <point x="208" y="445"/>
      <point x="27" y="355" type="curve"/>
      <point x="27" y="245"/>
      <point x="27" y="355"/>
      <point x="27" y="245" type="curve"/>
      <point x="208" y="335"/>
      <point x="389" y="425"/>
      <point x="570" y="515" type="curve"/>
      <point x="570" y="625"/>
      <point x="570" y="515"/>
    </contour>
    <contour>
      <point x="579" y="91" type="curve"/>
      <point x="395" y="179"/>
      <point x="211" y="267"/>
      <point x="27" y="355" type="curve"/>
      <point x="27" y="245"/>
      <point x="27" y="355"/>
      <point x="27" y="245" type="curve"/>
      <point x="211" y="157"/>
      <point x="395" y="69"/>
      <point x="579" y="-19" type="curve"/>
      <point x="579" y="91"/>
      <point x="579" y="-19"/>
    </contour>
  </outline>
</glyph>
<glyph name="equal" format="1">
  <advance width="665"/>
  <unicode hex="003D"/>
  <outline>
    <contour>
      <point x="54" y="165" type="curve"/>
      <point x="241" y="165"/>
      <point x="428" y="165"/>
      <point x="615" y="165" type="curve"/>
      <point x="615" y="270"/>
      <point x="615" y="165"/>
      <point x="615" y="270" type="curve"/>
      <point x="428" y="270"/>
      <point x="241" y="270"/>
      <point x="54" y="270" type="curve"/>
      <point x="54" y="165"/>
      <point x="54" y="270"/>
    </contour>
    <contour>
      <point x="54" y="387" type="curve"/>
      <point x="241" y="387"/>
      <point x="428" y="387"/>
      <point x="615" y="387" type="curve"/>
      <point x="615" y="492"/>
      <point x="615" y="387"/>
      <point x="615" y="492" type="curve"/>
      <point x="428" y="492"/>
      <point x="241" y="492"/>
      <point x="54" y="492" type="curve"/>
      <point x="54" y="387"/>
      <point x="54" y="492"/>
    </contour>
  </outline>
</glyph>
<glyph name="greater" format="1">
  <advance width="626"/>
  <unicode hex="003E"/>
  <outline>
    <contour>
      <point x="54" y="-19" type="curve"/>
      <point x="235" y="71"/>
      <point x="417" y="161"/>
      <point x="598" y="251" type="curve"/>
      <point x="598" y="361"/>
      <point x="598" y="251"/>
      <point x="598" y="361" type="curve"/>
      <point x="417" y="271"/>
      <point x="235" y="181"/>
      <point x="54" y="91" type="curve"/>
      <point x="54" y="-19"/>
      <point x="54" y="91"/>
    </contour>
    <contour>
      <point x="45" y="515" type="curve"/>
      <point x="229" y="427"/>
      <point x="414" y="339"/>
      <point x="598" y="251" type="curve"/>
      <point x="598" y="361"/>
      <point x="598" y="251"/>
      <point x="598" y="361" type="curve"/>
      <point x="414" y="449"/>
      <point x="229" y="537"/>
      <point x="45" y="625" type="curve"/>
      <point x="45" y="515"/>
      <point x="45" y="625"/>
    </contour>
  </outline>
</glyph>
<glyph name="question" format="1">
  <advance width="509"/>
  <unicode hex="003F"/>
  <outline>
    <contour>
      <point x="183" y="375" type="curve"/>
      <point x="183" y="338"/>
      <point x="183" y="258"/>
      <point x="183" y="221" type="curve"/>
      <point x="306" y="221"/>
      <point x="183" y="221"/>
      <point x="306" y="221" type="curve"/>
      <point x="306" y="258"/>
      <point x="306" y="338"/>
      <point x="306" y="375" type="curve"/>
      <point x="183" y="375"/>
      <point x="306" y="375"/>
    </contour>
    <contour>
      <point x="108" y="582" type="line"/>
      <point x="141" y="617"/>
      <point x="180" y="641"/>
      <point x="234" y="641" type="curve"/>
      <point x="308" y="641"/>
      <point x="353" y="594"/>
      <point x="353" y="518" type="curve"/>
      <point x="353" y="430"/>
      <point x="291" y="375"/>
      <point x="196" y="375" type="curve"/>
      <point x="196" y="338"/>
      <point x="196" y="315"/>
      <point x="196" y="277" type="curve"/>
      <point x="364" y="277"/>
      <point x="478" y="366"/>
      <point x="478" y="518" type="curve"/>
      <point x="478" y="663"/>
      <point x="381" y="748"/>
      <point x="239" y="748" type="curve"/>
      <point x="154" y="748"/>
      <point x="90" y="719"/>
      <point x="39" y="662" type="curve"/>
    </contour>
    <contour>
      <point x="316" y="45" type="curve"/>
      <point x="316" y="89"/>
      <point x="286" y="111"/>
      <point x="244" y="111" type="curve"/>
      <point x="202" y="111"/>
      <point x="174" y="87"/>
      <point x="174" y="45" type="curve"/>
      <point x="316" y="45"/>
      <point x="174" y="45"/>
      <point x="316" y="45" type="curve"/>
      <point x="316" y="0"/>
      <point x="286" y="-19"/>
      <point x="244" y="-19" type="curve"/>
      <point x="201" y="-19"/>
      <point x="174" y="2"/>
      <point x="174" y="45" type="curve"/>
      <point x="316" y="45"/>
      <point x="174" y="45"/>
    </contour>
  </outline>
</glyph>
<glyph name="at" format="1">
  <advance width="797"/>
  <unicode hex="0040"/>
  <outline>
    <contour>
      <point x="532" y="-14" type="curve"/>
      <point x="491" y="-34"/>
      <point x="460" y="-43"/>
      <point x="414" y="-43" type="curve"/>
      <point x="257" y="-43"/>
      <point x="157" y="52"/>
      <point x="157" y="212" type="curve"/>
      <point x="157" y="366"/>
      <point x="253" y="456"/>
      <point x="405" y="456" type="curve"/>
      <point x="550" y="456"/>
      <point x="640" y="363"/>
      <point x="640" y="213" type="curve"/>
      <point x="640" y="162"/>
      <point x="639" y="118"/>
      <point x="611" y="118" type="curve"/>
      <point x="584" y="118"/>
      <point x="579" y="162"/>
      <point x="579" y="216" type="curve"/>
      <point x="579" y="333"/>
      <point x="513" y="408"/>
      <point x="399" y="408" type="curve"/>
      <point x="274" y="408"/>
      <point x="211" y="336"/>
      <point x="211" y="213" type="curve"/>
      <point x="211" y="89"/>
      <point x="268" y="11"/>
      <point x="388" y="11" type="curve"/>
      <point x="494" y="11"/>
      <point x="544" y="85"/>
      <point x="561" y="197" type="curve"/>
      <point x="477" y="217"/>
      <point x="561" y="197"/>
      <point x="477" y="217" type="curve"/>
      <point x="464" y="160"/>
      <point x="457" y="111"/>
      <point x="403" y="111" type="curve"/>
      <point x="352" y="111"/>
      <point x="330" y="155"/>
      <point x="330" y="218" type="curve"/>
      <point x="330" y="270"/>
      <point x="346" y="307"/>
      <point x="392" y="307" type="curve"/>
      <point x="446" y="307"/>
      <point x="460" y="268"/>
      <point x="460" y="211" type="curve"/>
      <point x="460" y="102"/>
      <point x="500" y="23"/>
      <point x="601" y="23" type="curve"/>
      <point x="708" y="23"/>
      <point x="755" y="103"/>
      <point x="755" y="218" type="curve"/>
      <point x="755" y="434"/>
      <point x="623" y="560"/>
      <point x="409" y="560" type="curve"/>
      <point x="179" y="560"/>
      <point x="39" y="434"/>
      <point x="39" y="207" type="curve"/>
      <point x="39" y="-17"/>
      <point x="182" y="-143"/>
      <point x="408" y="-143" type="curve"/>
      <point x="479" y="-143"/>
      <point x="525" y="-131"/>
      <point x="580" y="-99" type="curve"/>
      <point x="532" y="-14"/>
      <point x="580" y="-99"/>
    </contour>
  </outline>
</glyph>
<glyph name="B" format="1">
  <advance width="598"/>
  <unicode hex="0042"/>
  <outline>
    <contour>
      <point x="131" y="622" type="curve"/>
      <point x="192" y="622"/>
      <point x="241" y="622"/>
      <point x="302" y="622" type="curve"/>
      <point x="359" y="622"/>
      <point x="389" y="590"/>
      <point x="389" y="537" type="curve"/>
      <point x="389" y="484"/>
      <point x="353" y="455"/>
      <point x="298" y="455" type="curve"/>
      <point x="239" y="455"/>
      <point x="191" y="455"/>
      <point x="131" y="455" type="curve"/>
      <point x="131" y="399"/>
      <point x="131" y="409"/>
      <point x="131" y="354" type="curve"/>
      <point x="173" y="354"/>
      <point x="206" y="354"/>
      <point x="248" y="354" type="curve"/>
      <point x="369" y="354"/>
      <point x="520" y="398"/>
      <point x="520" y="533" type="curve"/>
      <point x="520" y="657"/>
      <point x="437" y="722"/>
      <point x="308" y="722" type="curve"/>
      <point x="245" y="722"/>
      <point x="195" y="722"/>
      <point x="131" y="722" type="curve"/>
      <point x="131" y="667"/>
      <point x="131" y="677"/>
    </contour>
    <contour>
      <point x="210" y="0" type="curve"/>
      <point x="210" y="241"/>
      <point x="210" y="481"/>
      <point x="210" y="722" type="curve"/>
      <point x="72" y="722"/>
      <point x="210" y="722"/>
      <point x="72" y="722" type="curve"/>
      <point x="72" y="481"/>
      <point x="73" y="241"/>
      <point x="72" y="0" type="curve"/>
      <point x="210" y="0"/>
      <point x="72" y="0"/>
    </contour>
    <contour>
      <point x="131" y="354" type="curve"/>
      <point x="191" y="354"/>
      <point x="239" y="354"/>
      <point x="298" y="354" type="curve"/>
      <point x="383" y="354"/>
      <point x="431" y="306"/>
      <point x="431" y="224" type="curve"/>
      <point x="431" y="145"/>
      <point x="386" y="100"/>
      <point x="305" y="100" type="curve"/>
      <point x="242" y="100"/>
      <point x="193" y="100"/>
      <point x="131" y="100" type="curve"/>
      <point x="131" y="45"/>
      <point x="131" y="55"/>
      <point x="131" y="0" type="curve"/>
      <point x="196" y="0"/>
      <point x="246" y="0"/>
      <point x="311" y="0" type="curve"/>
      <point x="463" y="0"/>
      <point x="563" y="75"/>
      <point x="563" y="222" type="curve"/>
      <point x="563" y="388"/>
      <point x="406" y="455"/>
      <point x="249" y="455" type="curve"/>
      <point x="206" y="455"/>
      <point x="173" y="455"/>
      <point x="131" y="455" type="curve"/>
      <point x="131" y="399"/>
      <point x="131" y="409"/>
    </contour>
  </outline>
</glyph>
<glyph name="C" format="1">
  <advance width="634"/>
  <unicode hex="0043"/>
  <outline>
    <contour>
      <point x="614" y="654" type="curve"/>
      <point x="547" y="696"/>
      <point x="469" y="727"/>
      <point x="381" y="727" type="curve"/>
      <point x="159" y="727"/>
      <point x="41" y="579"/>
      <point x="41" y="345" type="curve"/>
      <point x="41" y="129"/>
      <point x="153" y="-5"/>
      <point x="362" y="-5" type="curve"/>
      <point x="476" y="-5"/>
      <point x="551" y="28"/>
      <point x="624" y="96" type="curve"/>
      <point x="556" y="174"/>
      <point x="624" y="96"/>
      <point x="555" y="174" type="curve"/>
      <point x="494" y="126"/>
      <point x="444" y="100"/>
      <point x="368" y="100" type="curve"/>
      <point x="230" y="100"/>
      <point x="172" y="202"/>
      <point x="172" y="349" type="curve"/>
      <point x="172" y="510"/>
      <point x="231" y="622"/>
      <point x="376" y="622" type="curve"/>
      <point x="439" y="622"/>
      <point x="495" y="605"/>
      <point x="549" y="572" type="curve"/>
      <point x="614" y="654"/>
      <point x="549" y="572"/>
    </contour>
    <contour>
      <point x="372" y="786" type="move" name="top"/>
    </contour>
    <contour>
      <point x="398" y="4" type="move" name="bottom"/>
    </contour>
  </outline>
</glyph>
<glyph name="D" format="1">
  <advance width="696"/>
  <unicode hex="0044"/>
  <outline>
    <contour>
      <point x="72" y="722" type="curve"/>
      <point x="72" y="481"/>
      <point x="72" y="241"/>
      <point x="72" y="0" type="curve"/>
      <point x="204" y="0"/>
      <point x="72" y="0"/>
      <point x="204" y="0" type="curve"/>
      <point x="204" y="241"/>
      <point x="204" y="481"/>
      <point x="204" y="722" type="curve"/>
      <point x="72" y="722"/>
      <point x="204" y="722"/>
    </contour>
    <contour>
      <point x="140" y="0" type="curve"/>
      <point x="197" y="0"/>
      <point x="253" y="0"/>
      <point x="312" y="0" type="curve"/>
      <point x="538" y="0"/>
      <point x="655" y="125"/>
      <point x="655" y="354" type="curve"/>
      <point x="655" y="590"/>
      <point x="539" y="722"/>
      <point x="307" y="722" type="curve"/>
      <point x="251" y="722"/>
      <point x="196" y="722"/>
      <point x="140" y="722" type="curve"/>
      <point x="140" y="623"/>
      <point x="140" y="721"/>
      <point x="140" y="622" type="curve"/>
      <point x="194" y="622"/>
      <point x="247" y="622"/>
      <point x="301" y="622" type="curve"/>
      <point x="461" y="622"/>
      <point x="524" y="519"/>
      <point x="524" y="352" type="curve"/>
      <point x="524" y="197"/>
      <point x="468" y="100"/>
      <point x="323" y="100" type="curve"/>
      <point x="261" y="100"/>
      <point x="202" y="100"/>
      <point x="140" y="100" type="curve"/>
      <point x="140" y="1"/>
      <point x="140" y="99"/>
    </contour>
    <contour>
      <point x="287" y="786" type="move" name="top"/>
    </contour>
  </outline>
</glyph>
<glyph name="E" format="1">
  <advance width="544"/>
  <unicode hex="0045"/>
  <outline>
    <contour>
      <point x="142" y="322" type="curve"/>
      <point x="239" y="322"/>
      <point x="337" y="322"/>
      <point x="435" y="322" type="curve"/>
      <point x="435" y="423"/>
      <point x="435" y="322"/>
      <point x="435" y="423" type="curve"/>
      <point x="337" y="423"/>
      <point x="239" y="423"/>
      <point x="142" y="423" type="curve"/>
      <point x="142" y="322"/>
      <point x="142" y="423"/>
    </contour>
    <contour>
      <point x="128" y="622" type="curve"/>
      <point x="250" y="622"/>
      <point x="370" y="622"/>
      <point x="491" y="622" type="curve"/>
      <point x="491" y="722"/>
      <point x="491" y="622"/>
      <point x="491" y="722" type="curve"/>
      <point x="370" y="722"/>
      <point x="250" y="722"/>
      <point x="128" y="722" type="curve"/>
      <point x="128" y="622"/>
      <point x="128" y="722"/>
    </contour>
    <contour>
      <point x="204" y="0" type="curve"/>
      <point x="204" y="722" type="line"/>
      <point x="72" y="722"/>
      <point x="204" y="722"/>
      <point x="72" y="722" type="curve"/>
      <point x="72" y="481"/>
      <point x="72" y="241"/>
      <point x="72" y="0" type="curve"/>
      <point x="204" y="0"/>
      <point x="72" y="0"/>
    </contour>
    <contour>
      <point x="128" y="0" type="curve"/>
      <point x="259" y="0"/>
      <point x="390" y="0"/>
      <point x="521" y="0" type="curve"/>
      <point x="521" y="100"/>
      <point x="521" y="0"/>
      <point x="521" y="100" type="curve"/>
      <point x="390" y="100"/>
      <point x="259" y="100"/>
      <point x="128" y="100" type="curve"/>
      <point x="128" y="0"/>
      <point x="128" y="100"/>
    </contour>
    <contour>
      <point x="263" y="786" type="move" name="top"/>
    </contour>
    <contour>
      <point x="487" y="6" type="move" name="bottom"/>
    </contour>
  </outline>
</glyph>
<glyph name="F" format="1">
  <advance width="516"/>
  <unicode hex="0046"/>
  <outline>
    <contour>
      <point x="142" y="322" type="curve"/>
      <point x="238" y="322"/>
      <point x="333" y="322"/>
      <point x="429" y="322" type="curve"/>
      <point x="429" y="423"/>
      <point x="429" y="322"/>
      <point x="429" y="423" type="curve"/>
      <point x="333" y="423"/>
      <point x="238" y="423"/>
      <point x="142" y="423" type="curve"/>
      <point x="142" y="322"/>
      <point x="142" y="423"/>
    </contour>
    <contour>
      <point x="204" y="0" type="curve"/>
      <point x="204" y="722" type="line"/>
      <point x="73" y="722"/>
      <point x="204" y="722"/>
      <point x="73" y="722" type="curve"/>
      <point x="73" y="481"/>
      <point x="73" y="241"/>
      <point x="73" y="0" type="curve"/>
      <point x="204" y="0"/>
      <point x="73" y="0"/>
    </contour>
    <contour>
      <point x="128" y="622" type="curve"/>
      <point x="250" y="622"/>
      <point x="372" y="622"/>
      <point x="495" y="622" type="curve"/>
      <point x="495" y="722"/>
      <point x="495" y="622"/>
      <point x="495" y="722" type="curve"/>
      <point x="372" y="722"/>
      <point x="250" y="722"/>
      <point x="128" y="722" type="curve"/>
      <point x="128" y="622"/>
      <point x="128" y="722"/>
    </contour>
  </outline>
</glyph>
<glyph name="G" format="1">
  <advance width="724"/>
  <unicode hex="0047"/>
  <outline>
    <contour>
      <point x="643" y="364" type="curve"/>
      <point x="577" y="364"/>
      <point x="512" y="364"/>
      <point x="446" y="364" type="curve"/>
      <point x="446" y="264"/>
      <point x="446" y="364"/>
      <point x="446" y="264" type="curve"/>
      <point x="512" y="264"/>
      <point x="577" y="264"/>
      <point x="643" y="264" type="curve"/>
      <point x="643" y="364"/>
      <point x="643" y="264"/>
    </contour>
    <contour>
      <point x="678" y="79" type="curve"/>
      <point x="678" y="174"/>
      <point x="678" y="269"/>
      <point x="678" y="364" type="curve"/>
      <point x="558" y="364"/>
      <point x="678" y="364"/>
      <point x="558" y="364" type="curve"/>
      <point x="558" y="269"/>
      <point x="558" y="174"/>
      <point x="558" y="79" type="curve"/>
      <point x="678" y="79"/>
      <point x="558" y="79"/>
    </contour>
    <contour>
      <point x="663" y="645" type="curve"/>
      <point x="575" y="702"/>
      <point x="493" y="727"/>
      <point x="388" y="727" type="curve"/>
      <point x="165" y="727"/>
      <point x="40" y="590"/>
      <point x="40" y="360" type="curve"/>
      <point x="40" y="129"/>
      <point x="171" y="-5"/>
      <point x="398" y="-5" type="curve"/>
      <point x="510" y="-5"/>
      <point x="581" y="24"/>
      <point x="678" y="79" type="curve"/>
      <point x="612" y="154"/>
      <point x="678" y="79"/>
      <point x="612" y="154" type="curve"/>
      <point x="541" y="114"/>
      <point x="482" y="100"/>
      <point x="398" y="100" type="curve"/>
      <point x="243" y="100"/>
      <point x="171" y="206"/>
      <point x="171" y="370" type="curve"/>
      <point x="171" y="523"/>
      <point x="242" y="622"/>
      <point x="388" y="622" type="curve"/>
      <point x="468" y="622"/>
      <point x="530" y="602"/>
      <point x="601" y="558" type="curve"/>
      <point x="663" y="645"/>
      <point x="601" y="558"/>
    </contour>
    <contour>
      <point x="386" y="786" type="move" name="top"/>
    </contour>
    <contour>
      <point x="435" y="-4" type="move" name="bottom"/>
    </contour>
  </outline>
</glyph>
<glyph name="H" format="1">
  <advance width="721"/>
  <unicode hex="0048"/>
  <outline>
    <contour>
      <point x="204" y="0" type="curve"/>
      <point x="204" y="722" type="line"/>
      <point x="72" y="722"/>
      <point x="204" y="722"/>
      <point x="72" y="722" type="curve"/>
      <point x="72" y="481"/>
      <point x="72" y="241"/>
      <point x="72" y="0" type="curve"/>
      <point x="204" y="0"/>
      <point x="72" y="0"/>
    </contour>
    <contour>
      <point x="581" y="413" type="curve"/>
      <point x="433" y="413"/>
      <point x="286" y="413"/>
      <point x="138" y="413" type="curve"/>
      <point x="138" y="312"/>
      <point x="138" y="413"/>
      <point x="138" y="312" type="curve"/>
      <point x="286" y="312"/>
      <point x="433" y="312"/>
      <point x="581" y="312" type="curve"/>
      <point x="581" y="413"/>
      <point x="581" y="312"/>
    </contour>
    <contour>
      <point x="648" y="0" type="curve"/>
      <point x="648" y="213"/>
      <point x="648" y="509"/>
      <point x="648" y="722" type="curve"/>
      <point x="517" y="722"/>
      <point x="648" y="722"/>
      <point x="517" y="722" type="curve"/>
      <point x="517" y="0" type="line"/>
      <point x="648" y="0"/>
      <point x="517" y="0"/>
    </contour>
  </outline>
</glyph>
<glyph name="K" format="1">
  <advance width="655"/>
  <unicode hex="004B"/>
  <outline>
    <contour>
      <point x="466" y="722" type="curve"/>
      <point x="179" y="380" type="line"/>
      <point x="328" y="380"/>
      <point x="187" y="380"/>
      <point x="336" y="380" type="curve"/>
      <point x="625" y="722" type="line"/>
      <point x="501" y="722"/>
      <point x="590" y="722"/>
    </contour>
    <contour>
      <point x="204" y="0" type="curve"/>
      <point x="204" y="722" type="line"/>
      <point x="72" y="722"/>
      <point x="204" y="722"/>
      <point x="72" y="722" type="curve"/>
      <point x="72" y="481"/>
      <point x="72" y="241"/>
      <point x="72" y="0" type="curve"/>
      <point x="204" y="0"/>
      <point x="72" y="0"/>
    </contour>
    <contour>
      <point x="646" y="0" type="curve"/>
      <point x="336" y="380" type="line"/>
      <point x="187" y="380"/>
      <point x="328" y="380"/>
      <point x="179" y="380" type="curve"/>
      <point x="486" y="0" type="line"/>
      <point x="621" y="0"/>
      <point x="511" y="0"/>
    </contour>
    <contour>
      <point x="351" y="-6" type="move" name="bottom"/>
    </contour>
  </outline>
</glyph>
<glyph name="L" format="1">
  <advance width="525"/>
  <unicode hex="004C"/>
  <outline>
    <contour>
      <point x="204" y="0" type="curve"/>
      <point x="204" y="241"/>
      <point x="204" y="481"/>
      <point x="204" y="722" type="curve"/>
      <point x="72" y="722"/>
      <point x="204" y="722"/>
      <point x="72" y="722" type="curve"/>
      <point x="72" y="481"/>
      <point x="72" y="241"/>
      <point x="72" y="0" type="curve"/>
      <point x="204" y="0"/>
      <point x="72" y="0"/>
    </contour>
    <contour>
      <point x="137" y="0" type="curve"/>
      <point x="263" y="0"/>
      <point x="388" y="0"/>
      <point x="514" y="0" type="curve"/>
      <point x="514" y="100"/>
      <point x="514" y="0"/>
      <point x="514" y="100" type="curve"/>
      <point x="388" y="100"/>
      <point x="263" y="100"/>
      <point x="137" y="100" type="curve"/>
      <point x="137" y="0"/>
      <point x="137" y="100"/>
    </contour>
    <contour>
      <point x="138" y="786" type="move" name="top"/>
    </contour>
    <contour>
      <point x="305" y="-3" type="move" name="bottom"/>
    </contour>
  </outline>
</glyph>
<glyph name="M" format="1">
  <advance width="843"/>
  <unicode hex="004D"/>
  <outline>
    <contour>
      <point x="796" y="0" type="curve"/>
      <point x="777" y="241"/>
      <point x="754" y="481"/>
      <point x="735" y="722" type="curve"/>
      <point x="616" y="722"/>
      <point x="735" y="722"/>
      <point x="616" y="722" type="curve"/>
      <point x="634" y="481"/>
      <point x="646" y="241"/>
      <point x="664" y="0" type="curve"/>
      <point x="796" y="0"/>
      <point x="664" y="0"/>
    </contour>
    <contour>
      <point x="168" y="0" type="curve"/>
      <point x="185" y="241"/>
      <point x="202" y="481"/>
      <point x="219" y="722" type="curve"/>
      <point x="103" y="722"/>
      <point x="219" y="722"/>
      <point x="103" y="722" type="curve"/>
      <point x="85" y="481"/>
      <point x="68" y="241"/>
      <point x="50" y="0" type="curve"/>
      <point x="168" y="0"/>
      <point x="50" y="0"/>
    </contour>
    <contour>
      <point x="472" y="0" type="curve"/>
      <point x="389" y="241"/>
      <point x="305" y="481"/>
      <point x="221" y="722" type="curve"/>
      <point x="105" y="722"/>
      <point x="221" y="722"/>
      <point x="105" y="722" type="curve"/>
      <point x="188" y="481"/>
      <point x="271" y="241"/>
      <point x="355" y="0" type="curve"/>
      <point x="472" y="0"/>
      <point x="355" y="0"/>
    </contour>
    <contour>
      <point x="480" y="0" type="curve"/>
      <point x="562" y="241"/>
      <point x="644" y="481"/>
      <point x="726" y="722" type="curve"/>
      <point x="610" y="722"/>
      <point x="726" y="722"/>
      <point x="610" y="722" type="curve"/>
      <point x="527" y="481"/>
      <point x="444" y="241"/>
      <point x="362" y="0" type="curve"/>
      <point x="480" y="0"/>
      <point x="362" y="0"/>
    </contour>
  </outline>
</glyph>
<glyph name="N" format="1">
  <advance width="764"/>
  <unicode hex="004E"/>
  <outline>
    <contour>
      <point x="691" y="0" type="curve"/>
      <point x="532" y="241"/>
      <point x="374" y="481"/>
      <point x="216" y="722" type="curve"/>
      <point x="72" y="722"/>
      <point x="216" y="722"/>
      <point x="72" y="722" type="curve"/>
      <point x="231" y="481"/>
      <point x="389" y="241"/>
      <point x="548" y="0" type="curve"/>
      <point x="691" y="0"/>
      <point x="548" y="0"/>
    </contour>
    <contour>
      <point x="560" y="722" type="curve"/>
      <point x="560" y="481"/>
      <point x="560" y="241"/>
      <point x="560" y="0" type="curve"/>
      <point x="692" y="0"/>
      <point x="560" y="0"/>
      <point x="692" y="0" type="curve"/>
      <point x="692" y="241"/>
      <point x="692" y="481"/>
      <point x="692" y="722" type="curve"/>
      <point x="560" y="722"/>
      <point x="692" y="722"/>
    </contour>
    <contour>
      <point x="204" y="0" type="curve"/>
      <point x="204" y="241"/>
      <point x="204" y="481"/>
      <point x="204" y="722" type="curve"/>
      <point x="73" y="722"/>
      <point x="204" y="722"/>
      <point x="73" y="722" type="curve"/>
      <point x="73" y="481"/>
      <point x="73" y="241"/>
      <point x="73" y="0" type="curve"/>
      <point x="204" y="0"/>
      <point x="73" y="0"/>
    </contour>
    <contour>
      <point x="382" y="786" type="move" name="top"/>
    </contour>
    <contour>
      <point x="422" y="-7" type="move" name="bottom"/>
    </contour>
  </outline>
</glyph>
<glyph name="P" format="1">
  <advance width="554"/>
  <unicode hex="0050"/>
  <outline>
    <contour>
      <point x="120" y="299" type="curve"/>
      <point x="174" y="271"/>
      <point x="236" y="253"/>
      <point x="300" y="253" type="curve"/>
      <point x="438" y="256"/>
      <point x="528" y="334"/>
      <point x="528" y="479" type="curve"/>
      <point x="528" y="631"/>
      <point x="419" y="722"/>
      <point x="264" y="722" type="curve"/>
      <point x="223" y="722"/>
      <point x="182" y="722"/>
      <point x="142" y="722" type="curve"/>
      <point x="142" y="622"/>
      <point x="142" y="722"/>
      <point x="142" y="622" type="curve"/>
      <point x="176" y="622"/>
      <point x="211" y="622"/>
      <point x="246" y="622" type="curve"/>
      <point x="337" y="622"/>
      <point x="396" y="570"/>
      <point x="396" y="483" type="curve"/>
      <point x="396" y="403"/>
      <point x="356" y="350"/>
      <point x="284" y="350" type="curve"/>
      <point x="236" y="350"/>
      <point x="203" y="363"/>
      <point x="161" y="384" type="curve"/>
      <point x="120" y="301"/>
      <point x="161" y="384"/>
    </contour>
    <contour>
      <point x="204" y="0" type="curve"/>
      <point x="204" y="241"/>
      <point x="204" y="481"/>
      <point x="204" y="722" type="curve"/>
      <point x="72" y="722"/>
      <point x="204" y="722"/>
      <point x="72" y="722" type="curve"/>
      <point x="72" y="481"/>
      <point x="72" y="241"/>
      <point x="72" y="0" type="curve"/>
      <point x="204" y="0"/>
      <point x="72" y="0"/>
    </contour>
  </outline>
</glyph>
<glyph name="Q" format="1">
  <advance width="749"/>
  <unicode hex="0051"/>
  <outline>
    <contour>
      <point x="314" y="24" type="curve"/>
      <point x="413" y="-151"/>
      <point x="532" y="-214"/>
      <point x="722" y="-214" type="curve"/>
      <point x="722" y="-109"/>
      <point x="722" y="-214"/>
      <point x="722" y="-109" type="curve"/>
      <point x="583" y="-109"/>
      <point x="502" y="-56"/>
      <point x="427" y="74" type="curve"/>
      <point x="314" y="24"/>
      <point x="427" y="74"/>
    </contour>
    <contour>
      <point x="172" y="360" type="curve"/>
      <point x="172" y="507"/>
      <point x="226" y="617"/>
      <point x="360" y="617" type="curve"/>
      <point x="496" y="617"/>
      <point x="554" y="509"/>
      <point x="554" y="360" type="curve"/>
      <point x="554" y="213"/>
      <point x="502" y="100"/>
      <point x="368" y="100" type="curve"/>
      <point x="230" y="100"/>
      <point x="172" y="211"/>
      <point x="172" y="360" type="curve"/>
      <point x="41" y="360"/>
      <point x="172" y="360"/>
      <point x="41" y="360" type="curve"/>
      <point x="41" y="143"/>
      <point x="155" y="-5"/>
      <point x="361" y="-5" type="curve"/>
      <point x="571" y="-5"/>
      <point x="685" y="146"/>
      <point x="685" y="366" type="curve"/>
      <point x="685" y="581"/>
      <point x="575" y="731"/>
      <point x="369" y="731" type="curve"/>
      <point x="159" y="731"/>
      <point x="41" y="579"/>
      <point x="41" y="360" type="curve"/>
      <point x="172" y="360"/>
      <point x="41" y="360"/>
    </contour>
  </outline>
</glyph>
<glyph name="S" format="1">
  <advance width="537"/>
  <unicode hex="0053"/>
  <outline>
    <contour>
      <point x="39" y="53" type="curve"/>
      <point x="102" y="13"/>
      <point x="168" y="-5"/>
      <point x="250" y="-5" type="curve"/>
      <point x="395" y="-5"/>
      <point x="510" y="56"/>
      <point x="510" y="191" type="curve"/>
      <point x="510" y="309"/>
      <point x="421" y="362"/>
      <point x="312" y="415" type="curve"/>
      <point x="239" y="450"/>
      <point x="167" y="488"/>
      <point x="167" y="543" type="curve"/>
      <point x="165" y="594"/>
      <point x="207" y="625"/>
      <point x="262" y="625" type="curve"/>
      <point x="318" y="625"/>
      <point x="367" y="600"/>
      <point x="406" y="581" type="curve"/>
      <point x="463" y="660"/>
      <point x="407" y="582"/>
      <point x="464" y="661" type="curve"/>
      <point x="403" y="699"/>
      <point x="343" y="721"/>
      <point x="266" y="721" type="curve"/>
      <point x="134" y="721"/>
      <point x="36" y="658"/>
      <point x="36" y="537" type="curve"/>
      <point x="36" y="423"/>
      <point x="123" y="371"/>
      <point x="227" y="321" type="curve"/>
      <point x="304" y="284"/>
      <point x="379" y="247"/>
      <point x="379" y="190" type="curve"/>
      <point x="379" y="139"/>
      <point x="325" y="100"/>
      <point x="256" y="100" type="curve"/>
      <point x="198" y="100"/>
      <point x="151" y="122"/>
      <point x="106" y="149" type="curve"/>
      <point x="40" y="55"/>
      <point x="105" y="148"/>
    </contour>
    <contour>
      <point x="265" y="786" type="move" name="top"/>
    </contour>
    <contour>
      <point x="301" y="-1" type="move" name="bottom"/>
    </contour>
  </outline>
</glyph>
<glyph name="T" format="1">
  <advance width="577"/>
  <unicode hex="0054"/>
  <outline>
    <contour>
      <point x="354" y="0" type="curve"/>
      <point x="354" y="237"/>
      <point x="354" y="473"/>
      <point x="354" y="710" type="curve"/>
      <point x="223" y="710"/>
      <point x="354" y="710"/>
      <point x="223" y="710" type="curve"/>
      <point x="222" y="473"/>
      <point x="223" y="237"/>
      <point x="223" y="0" type="curve"/>
      <point x="354" y="0"/>
      <point x="223" y="0"/>
    </contour>
    <contour>
      <point x="12" y="616" type="curve"/>
      <point x="195" y="616"/>
      <point x="381" y="616"/>
      <point x="565" y="616" type="curve"/>
      <point x="565" y="726"/>
      <point x="565" y="611"/>
      <point x="565" y="722" type="curve"/>
      <point x="381" y="722"/>
      <point x="195" y="722"/>
      <point x="12" y="722" type="curve"/>
      <point x="12" y="611"/>
      <point x="12" y="726"/>
    </contour>
    <contour>
      <point x="287" y="786" type="move" name="top"/>
    </contour>
    <contour>
      <point x="339" y="-6" type="move" name="bottom"/>
    </contour>
  </outline>
</glyph>
<glyph name="V" format="1">
  <advance width="650"/>
  <unicode hex="0056"/>
  <outline>
    <contour>
      <point x="510" y="722" type="curve"/>
      <point x="430" y="480"/>
      <point x="351" y="242"/>
      <point x="272" y="0" type="curve"/>
      <point x="406" y="0"/>
      <point x="262" y="0"/>
      <point x="396" y="0" type="curve"/>
      <point x="478" y="241"/>
      <point x="561" y="481"/>
      <point x="644" y="722" type="curve"/>
      <point x="510" y="722"/>
      <point x="644" y="722"/>
    </contour>
    <contour>
      <point x="5" y="722" type="curve"/>
      <point x="88" y="481"/>
      <point x="173" y="241"/>
      <point x="256" y="0" type="curve"/>
      <point x="390" y="0"/>
      <point x="248" y="0"/>
      <point x="382" y="0" type="curve"/>
      <point x="302" y="242"/>
      <point x="221" y="482"/>
      <point x="139" y="722" type="curve"/>
      <point x="5" y="722"/>
      <point x="139" y="722"/>
    </contour>
  </outline>
</glyph>
<glyph name="W" format="1">
  <advance width="840"/>
  <unicode hex="0057"/>
  <outline>
    <contour>
      <point x="303" y="0" type="curve"/>
      <point x="363" y="241"/>
      <point x="421" y="481"/>
      <point x="481" y="722" type="curve"/>
      <point x="365" y="722"/>
      <point x="482" y="722"/>
      <point x="366" y="722" type="curve"/>
      <point x="311" y="481"/>
      <point x="257" y="242"/>
      <point x="200" y="0" type="curve"/>
      <point x="312" y="0"/>
      <point x="191" y="0"/>
    </contour>
    <contour>
      <point x="374" y="722" type="curve"/>
      <point x="428" y="481"/>
      <point x="479" y="241"/>
      <point x="534" y="0" type="curve"/>
      <point x="646" y="0"/>
      <point x="521" y="0"/>
      <point x="634" y="0" type="curve"/>
      <point x="584" y="244"/>
      <point x="538" y="481"/>
      <point x="488" y="722" type="curve"/>
      <point x="372" y="722"/>
      <point x="490" y="722"/>
    </contour>
    <contour>
      <point x="23" y="722" type="curve"/>
      <point x="77" y="481"/>
      <point x="131" y="241"/>
      <point x="185" y="0" type="curve"/>
      <point x="298" y="0"/>
      <point x="183" y="0"/>
      <point x="296" y="0" type="curve"/>
      <point x="244" y="241"/>
      <point x="193" y="481"/>
      <point x="141" y="722" type="curve"/>
      <point x="23" y="722"/>
      <point x="141" y="722"/>
    </contour>
    <contour>
      <point x="702" y="722" type="curve"/>
      <point x="648" y="481"/>
      <point x="596" y="241"/>
      <point x="542" y="0" type="curve"/>
      <point x="655" y="0"/>
      <point x="539" y="0"/>
      <point x="651" y="0" type="curve"/>
      <point x="708" y="241"/>
      <point x="764" y="481"/>
      <point x="821" y="722" type="curve"/>
      <point x="702" y="722"/>
      <point x="821" y="722"/>
    </contour>
  </outline>
</glyph>
<glyph name="X" format="1">
  <advance width="609"/>
  <unicode hex="0058"/>
  <outline>
    <contour>
      <point x="453" y="722" type="curve"/>
      <point x="308" y="485"/>
      <point x="150" y="237"/>
      <point x="4" y="0" type="curve"/>
      <point x="134" y="0"/>
      <point x="16" y="0"/>
      <point x="145" y="0" type="curve"/>
      <point x="290" y="237"/>
      <point x="444" y="484"/>
      <point x="588" y="722" type="curve"/>
      <point x="464" y="722"/>
      <point x="578" y="722"/>
    </contour>
    <contour>
      <point x="28" y="722" type="curve"/>
      <point x="172" y="485"/>
      <point x="323" y="237"/>
      <point x="466" y="0" type="curve"/>
      <point x="595" y="0"/>
      <point x="473" y="0"/>
      <point x="603" y="0" type="curve"/>
      <point x="458" y="238"/>
      <point x="306" y="484"/>
      <point x="161" y="722" type="curve"/>
      <point x="37" y="722"/>
      <point x="152" y="722"/>
    </contour>
  </outline>
</glyph>
<glyph name="Y" format="1">
  <advance width="583"/>
  <unicode hex="0059"/>
  <outline>
    <contour>
      <point x="10" y="722" type="curve"/>
      <point x="78" y="597"/>
      <point x="155" y="464"/>
      <point x="221" y="337" type="curve"/>
      <point x="354" y="337"/>
      <point x="207" y="337"/>
      <point x="340" y="337" type="curve"/>
      <point x="277" y="468"/>
      <point x="214" y="592"/>
      <point x="148" y="722" type="curve"/>
      <point x="22" y="722"/>
      <point x="136" y="722"/>
    </contour>
    <contour>
      <point x="446" y="722" type="curve"/>
      <point x="374" y="591"/>
      <point x="308" y="468"/>
      <point x="236" y="337" type="curve"/>
      <point x="369" y="337"/>
      <point x="228" y="337"/>
      <point x="361" y="337" type="curve"/>
      <point x="432" y="464"/>
      <point x="509" y="597"/>
      <point x="580" y="722" type="curve"/>
      <point x="454" y="722"/>
      <point x="572" y="722"/>
    </contour>
    <contour>
      <point x="363" y="0" type="curve"/>
      <point x="363" y="115"/>
      <point x="363" y="225"/>
      <point x="363" y="340" type="curve"/>
      <point x="219" y="340"/>
      <point x="363" y="340"/>
      <point x="219" y="340" type="curve"/>
      <point x="219" y="225"/>
      <point x="219" y="115"/>
      <point x="219" y="0" type="curve"/>
      <point x="363" y="0"/>
      <point x="219" y="0"/>
    </contour>
    <contour>
      <point x="296" y="786" type="move" name="top"/>
    </contour>
  </outline>
</glyph>
<glyph name="bracketleft" format="1">
  <advance width="295"/>
  <unicode hex="005B"/>
  <outline>
    <contour>
      <point x="256" y="769" type="curve"/>
      <point x="211" y="769"/>
      <point x="166" y="769"/>
      <point x="120" y="769" type="curve"/>
      <point x="105" y="769"/>
      <point x="75" y="769"/>
      <point x="60" y="769" type="curve"/>
      <point x="60" y="754"/>
      <point x="60" y="735"/>
      <point x="60" y="720" type="curve"/>
      <point x="60" y="458"/>
      <point x="60" y="196"/>
      <point x="60" y="-66" type="curve"/>
      <point x="60" y="-82"/>
      <point x="60" y="-95"/>
      <point x="60" y="-114" type="curve"/>
      <point x="74" y="-114"/>
      <point x="103" y="-114"/>
      <point x="119" y="-114" type="curve"/>
      <point x="165" y="-114"/>
      <point x="211" y="-114"/>
      <point x="256" y="-114" type="curve"/>
      <point x="256" y="-4"/>
      <point x="256" y="-114"/>
      <point x="256" y="-4" type="curve"/>
      <point x="211" y="-4"/>
      <point x="165" y="-4"/>
      <point x="119" y="-4" type="curve"/>
      <point x="192" y="-4"/>
      <point x="119" y="-4"/>
      <point x="192" y="-4" type="curve"/>
      <point x="192" y="-66"/>
      <point x="192" y="-4"/>
      <point x="192" y="-66" type="curve"/>
      <point x="192" y="196"/>
      <point x="192" y="458"/>
      <point x="192" y="720" type="curve"/>
      <point x="192" y="659"/>
      <point x="192" y="720"/>
      <point x="192" y="659" type="curve"/>
      <point x="120" y="659"/>
      <point x="192" y="659"/>
      <point x="120" y="659" type="curve"/>
      <point x="166" y="659"/>
      <point x="211" y="659"/>
      <point x="256" y="659" type="curve"/>
      <point x="256" y="769"/>
      <point x="256" y="659"/>
    </contour>
  </outline>
</glyph>
<glyph name="backslash" format="1">
  <advance width="529"/>
  <unicode hex="005C"/>
  <outline>
    <contour>
      <point x="508" y="-68" type="curve"/>
      <point x="391" y="236"/>
      <point x="275" y="540"/>
      <point x="158" y="844" type="curve"/>
      <point x="21" y="844"/>
      <point x="158" y="844"/>
      <point x="21" y="844" type="curve"/>
      <point x="138" y="540"/>
      <point x="254" y="236"/>
      <point x="371" y="-68" type="curve"/>
      <point x="508" y="-68"/>
      <point x="371" y="-68"/>
    </contour>
  </outline>
</glyph>
<glyph name="bracketright" format="1">
  <advance width="295"/>
  <unicode hex="005D"/>
  <outline>
    <contour>
      <point x="39" y="659" type="curve"/>
      <point x="84" y="659"/>
      <point x="130" y="659"/>
      <point x="175" y="659" type="curve"/>
      <point x="163" y="670"/>
      <point x="146" y="672"/>
      <point x="134" y="683" type="curve"/>
      <point x="123" y="694"/>
      <point x="114" y="708"/>
      <point x="104" y="720" type="curve"/>
      <point x="104" y="458"/>
      <point x="103" y="196"/>
      <point x="104" y="-66" type="curve"/>
      <point x="115" y="-54"/>
      <point x="126" y="-42"/>
      <point x="138" y="-30" type="curve"/>
      <point x="149" y="-19"/>
      <point x="165" y="-15"/>
      <point x="176" y="-4" type="curve"/>
      <point x="130" y="-4"/>
      <point x="84" y="-4"/>
      <point x="39" y="-4" type="curve"/>
      <point x="38" y="-114"/>
      <point x="39" y="-4"/>
      <point x="38" y="-114" type="curve"/>
      <point x="84" y="-114"/>
      <point x="130" y="-114"/>
      <point x="176" y="-114" type="curve"/>
      <point x="235" y="-114"/>
      <point x="176" y="-114"/>
      <point x="235" y="-114" type="curve"/>
      <point x="235" y="-66"/>
      <point x="235" y="-114"/>
      <point x="235" y="-66" type="curve"/>
      <point x="234" y="196"/>
      <point x="235" y="458"/>
      <point x="235" y="720" type="curve"/>
      <point x="235" y="769"/>
      <point x="235" y="720"/>
      <point x="235" y="769" type="curve"/>
      <point x="175" y="769"/>
      <point x="235" y="769"/>
      <point x="175" y="769" type="curve"/>
      <point x="130" y="769"/>
      <point x="84" y="769"/>
      <point x="39" y="769" type="curve"/>
      <point x="39" y="659"/>
      <point x="39" y="769"/>
    </contour>
  </outline>
</glyph>
<glyph name="asciicircum" format="1">
  <advance width="508"/>
  <unicode hex="005E"/>
  <outline>
    <contour>
      <point x="164" y="454" type="curve"/>
      <point x="215" y="557"/>
      <point x="267" y="658"/>
      <point x="319" y="760" type="curve"/>
      <point x="188" y="760"/>
      <point x="319" y="760"/>
      <point x="188" y="760" type="curve"/>
      <point x="136" y="658"/>
      <point x="84" y="557"/>
      <point x="32" y="454" type="curve"/>
      <point x="164" y="454"/>
      <point x="33" y="454"/>
    </contour>
    <contour>
      <point x="476" y="454" type="curve"/>
      <point x="425" y="555"/>
      <point x="371" y="659"/>
      <point x="319" y="760" type="curve"/>
      <point x="188" y="760"/>
      <point x="319" y="760"/>
      <point x="188" y="760" type="curve"/>
      <point x="239" y="659"/>
      <point x="293" y="555"/>
      <point x="345" y="454" type="curve"/>
      <point x="476" y="454"/>
      <point x="345" y="454"/>
    </contour>
  </outline>
</glyph>
<glyph name="grave" format="1">
  <advance width="388"/>
  <unicode hex="0060"/>
  <outline>
    <contour>
      <point x="288" y="577" type="line"/>
      <point x="187" y="743" type="line"/>
      <point x="23" y="743" type="line"/>
      <point x="161" y="577" type="line"/>
    </contour>
    <contour>
      <point x="221" y="577" type="move" name="_top"/>
    </contour>
  </outline>
</glyph>
<glyph name="b" format="1">
  <advance width="601"/>
  <unicode hex="0062"/>
  <outline>
    <contour>
      <point x="159" y="346" type="curve"/>
      <point x="192" y="388"/>
      <point x="241" y="434"/>
      <point x="312" y="434" type="curve"/>
      <point x="399" y="434"/>
      <point x="433" y="359"/>
      <point x="433" y="262" type="curve"/>
      <point x="435" y="170"/>
      <point x="397" y="99"/>
      <point x="313" y="99" type="curve"/>
      <point x="251" y="99"/>
      <point x="205" y="128"/>
      <point x="169" y="171" type="curve"/>
      <point x="112" y="133"/>
      <point x="155" y="161"/>
      <point x="98" y="123" type="curve"/>
      <point x="157" y="48"/>
      <point x="223" y="-5"/>
      <point x="330" y="-5" type="curve"/>
      <point x="478" y="-5"/>
      <point x="565" y="105"/>
      <point x="565" y="266" type="curve"/>
      <point x="565" y="427"/>
      <point x="479" y="538"/>
      <point x="331" y="538" type="curve"/>
      <point x="223" y="538"/>
      <point x="155" y="472"/>
      <point x="103" y="399" type="curve"/>
      <point x="149" y="360"/>
      <point x="112" y="385"/>
    </contour>
    <contour>
      <point x="192" y="0" type="curve"/>
      <point x="192" y="277"/>
      <point x="192" y="523"/>
      <point x="192" y="800" type="curve"/>
      <point x="83" y="800"/>
      <point x="169" y="800"/>
      <point x="60" y="800" type="curve"/>
      <point x="60" y="523"/>
      <point x="60" y="277"/>
      <point x="60" y="0" type="curve"/>
      <point x="169" y="0"/>
      <point x="83" y="0"/>
    </contour>
  </outline>
</glyph>
<glyph name="d" format="1">
  <advance width="603"/>
  <unicode hex="0064"/>
  <outline>
    <contour>
      <point x="485" y="437" type="curve"/>
      <point x="431" y="501"/>
      <point x="358" y="535"/>
      <point x="274" y="535" type="curve"/>
      <point x="120" y="535"/>
      <point x="36" y="423"/>
      <point x="36" y="262" type="curve"/>
      <point x="36" y="104"/>
      <point x="122" y="-2"/>
      <point x="272" y="-2" type="curve"/>
      <point x="370" y="-2"/>
      <point x="439" y="44"/>
      <point x="485" y="125" type="curve"/>
      <point x="435" y="191"/>
      <point x="483" y="125"/>
      <point x="433" y="191" type="curve"/>
      <point x="398" y="134"/>
      <point x="357" y="98"/>
      <point x="295" y="98" type="curve"/>
      <point x="208" y="98"/>
      <point x="167" y="169"/>
      <point x="167" y="268" type="curve"/>
      <point x="167" y="365"/>
      <point x="212" y="435"/>
      <point x="299" y="435" type="curve"/>
      <point x="354" y="435"/>
      <point x="403" y="406"/>
      <point x="435" y="363" type="curve"/>
      <point x="486" y="434"/>
      <point x="434" y="366"/>
    </contour>
    <contour>
      <point x="543" y="0" type="curve"/>
      <point x="543" y="267"/>
      <point x="543" y="533"/>
      <point x="543" y="800" type="curve"/>
      <point x="406" y="800"/>
      <point x="543" y="800"/>
      <point x="406" y="800" type="curve"/>
      <point x="406" y="533"/>
      <point x="406" y="267"/>
      <point x="406" y="0" type="curve"/>
      <point x="543" y="0"/>
      <point x="406" y="0"/>
    </contour>
  </outline>
</glyph>
<glyph name="e" format="1">
  <advance width="541"/>
  <unicode hex="0065"/>
  <outline>
    <contour>
      <point x="102" y="231" type="curve"/>
      <point x="219" y="231"/>
      <point x="335" y="231"/>
      <point x="452" y="231" type="curve"/>
      <point x="506" y="231"/>
      <point x="452" y="231"/>
      <point x="506" y="231" type="curve"/>
      <point x="506" y="271"/>
      <point x="506" y="231"/>
      <point x="506" y="271" type="curve"/>
      <point x="506" y="277"/>
      <point x="506" y="283"/>
      <point x="506" y="290" type="curve"/>
      <point x="506" y="447"/>
      <point x="427" y="538"/>
      <point x="280" y="538" type="curve"/>
      <point x="122" y="538"/>
      <point x="36" y="443"/>
      <point x="36" y="278" type="curve"/>
      <point x="36" y="100"/>
      <point x="129" y="-5"/>
      <point x="299" y="-5" type="curve"/>
      <point x="377" y="-5"/>
      <point x="426" y="21"/>
      <point x="484" y="71" type="curve"/>
      <point x="410" y="145"/>
      <point x="484" y="71"/>
      <point x="410" y="145" type="curve"/>
      <point x="376" y="115"/>
      <point x="343" y="99"/>
      <point x="298" y="99" type="curve"/>
      <point x="199" y="99"/>
      <point x="164" y="171"/>
      <point x="164" y="278" type="curve"/>
      <point x="164" y="370"/>
      <point x="189" y="435"/>
      <point x="274" y="435" type="curve"/>
      <point x="349" y="435"/>
      <point x="381" y="384"/>
      <point x="381" y="303" type="curve"/>
      <point x="381" y="293"/>
      <point x="381" y="284"/>
      <point x="381" y="274" type="curve"/>
      <point x="393" y="285"/>
      <point x="404" y="295"/>
      <point x="416" y="305" type="curve"/>
      <point x="427" y="315"/>
      <point x="441" y="315"/>
      <point x="452" y="325" type="curve"/>
      <point x="335" y="325"/>
      <point x="219" y="325"/>
      <point x="102" y="325" type="curve"/>
      <point x="102" y="225"/>
      <point x="102" y="331"/>
    </contour>
    <contour>
      <point x="281" y="618" type="move" name="top"/>
    </contour>
    <contour>
      <point x="361" y="14" type="move" name="bottom"/>
    </contour>
  </outline>
</glyph>
<glyph name="f" format="1">
  <advance width="413"/>
  <unicode hex="0066"/>
  <outline>
    <contour>
      <point x="23" y="433" type="curve"/>
      <point x="388" y="433" type="line"/>
      <point x="388" y="533"/>
      <point x="388" y="433"/>
      <point x="388" y="533" type="curve"/>
      <point x="23" y="533" type="line"/>
      <point x="23" y="433"/>
      <point x="23" y="533"/>
    </contour>
    <contour>
      <point x="249" y="0" type="curve"/>
      <point x="249" y="608" type="line"/>
      <point x="249" y="663"/>
      <point x="260" y="708"/>
      <point x="311" y="708" type="curve"/>
      <point x="335" y="708"/>
      <point x="356" y="699"/>
      <point x="376" y="689" type="curve"/>
      <point x="430" y="769"/>
      <point x="376" y="689"/>
      <point x="430" y="769" type="curve"/>
      <point x="394" y="789"/>
      <point x="353" y="804"/>
      <point x="311" y="804" type="curve"/>
      <point x="191" y="804"/>
      <point x="116" y="728"/>
      <point x="117" y="608" type="curve"/>
      <point x="117" y="0" type="line"/>
      <point x="249" y="0"/>
      <point x="117" y="0"/>
    </contour>
  </outline>
</glyph>
<glyph name="h" format="1">
  <advance width="580"/>
  <unicode hex="0068"/>
  <outline>
    <contour>
      <point x="162" y="300" type="curve"/>
      <point x="186" y="372"/>
      <point x="236" y="435"/>
      <point x="305" y="435" type="curve"/>
      <point x="374" y="435"/>
      <point x="393" y="381"/>
      <point x="393" y="308" type="curve"/>
      <point x="393" y="205"/>
      <point x="393" y="104"/>
      <point x="393" y="0" type="curve"/>
      <point x="524" y="0"/>
      <point x="393" y="0"/>
      <point x="524" y="0" type="curve"/>
      <point x="524" y="107"/>
      <point x="524" y="215"/>
      <point x="524" y="322" type="curve"/>
      <point x="524" y="453"/>
      <point x="470" y="535"/>
      <point x="337" y="535" type="curve"/>
      <point x="235" y="535"/>
      <point x="152" y="457"/>
      <point x="119" y="349" type="curve"/>
      <point x="163" y="299"/>
      <point x="118" y="350"/>
    </contour>
    <contour>
      <point x="192" y="0" type="curve"/>
      <point x="192" y="267"/>
      <point x="192" y="533"/>
      <point x="192" y="800" type="curve"/>
      <point x="60" y="800"/>
      <point x="192" y="800"/>
      <point x="60" y="800" type="curve"/>
      <point x="60" y="533"/>
      <point x="60" y="267"/>
      <point x="60" y="0" type="curve"/>
      <point x="192" y="0"/>
      <point x="60" y="0"/>
    </contour>
  </outline>
</glyph>
<glyph name="i" format="1">
  <advance width="250"/>
  <unicode hex="0069"/>
  <outline>
    <contour>
      <point x="195" y="0" type="curve"/>
      <point x="195" y="178"/>
      <point x="195" y="355"/>
      <point x="195" y="533" type="curve"/>
      <point x="57" y="533"/>
      <point x="195" y="533"/>
      <point x="57" y="533" type="curve"/>
      <point x="57" y="355"/>
      <point x="57" y="178"/>
      <point x="57" y="0" type="curve"/>
      <point x="195" y="0"/>
      <point x="57" y="0"/>
    </contour>
    <contour>
      <point x="194" y="681" type="curve"/>
      <point x="194" y="725"/>
      <point x="163" y="747"/>
      <point x="122" y="747" type="curve"/>
      <point x="79" y="747"/>
      <point x="51" y="723"/>
      <point x="51" y="681" type="curve"/>
      <point x="193" y="681"/>
      <point x="52" y="681"/>
      <point x="194" y="681" type="curve"/>
      <point x="194" y="636"/>
      <point x="164" y="616"/>
      <point x="121" y="616" type="curve"/>
      <point x="79" y="616"/>
      <point x="51" y="638"/>
      <point x="51" y="681" type="curve"/>
      <point x="193" y="681"/>
      <point x="52" y="681"/>
    </contour>
    <contour>
      <point x="122" y="619" type="move" name="top"/>
    </contour>
    <contour>
      <point x="185" y="6" type="move" name="bottom"/>
    </contour>
  </outline>
</glyph>
<glyph name="j" format="1">
  <advance width="262"/>
  <unicode hex="006A"/>
  <outline>
    <contour>
      <point x="-20" y="-303" type="curve"/>
      <point x="-11" y="-304"/>
      <point x="0" y="-305"/>
      <point x="11" y="-305" type="curve"/>
      <point x="127" y="-305"/>
      <point x="211" y="-236"/>
      <point x="211" y="-122" type="curve"/>
      <point x="211" y="96"/>
      <point x="211" y="315"/>
      <point x="211" y="534" type="curve"/>
      <point x="80" y="534"/>
      <point x="211" y="534"/>
      <point x="80" y="534" type="curve"/>
      <point x="80" y="315"/>
      <point x="80" y="96"/>
      <point x="80" y="-122" type="curve"/>
      <point x="80" y="-170"/>
      <point x="62" y="-209"/>
      <point x="17" y="-209" type="curve"/>
      <point x="10" y="-209"/>
      <point x="5" y="-208"/>
      <point x="-2" y="-207" type="curve"/>
      <point x="-20" y="-303"/>
      <point x="-2" y="-208"/>
    </contour>
    <contour>
      <point x="216" y="676" type="curve"/>
      <point x="216" y="720"/>
      <point x="185" y="742"/>
      <point x="143" y="742" type="curve"/>
      <point x="101" y="742"/>
      <point x="73" y="718"/>
      <point x="73" y="676" type="curve"/>
      <point x="215" y="676"/>
      <point x="74" y="676"/>
      <point x="216" y="676" type="curve"/>
      <point x="216" y="631"/>
      <point x="186" y="611"/>
      <point x="143" y="611" type="curve"/>
      <point x="100" y="611"/>
      <point x="73" y="633"/>
      <point x="73" y="676" type="curve"/>
      <point x="215" y="676"/>
      <point x="74" y="676"/>
    </contour>
  </outline>
</glyph>
<glyph name="k" format="1">
  <advance width="574"/>
  <unicode hex="006B"/>
  <outline>
    <contour>
      <point x="192" y="0" type="curve"/>
      <point x="192" y="800" type="line"/>
      <point x="60" y="800"/>
      <point x="192" y="800"/>
      <point x="60" y="800" type="curve"/>
      <point x="60" y="533"/>
      <point x="60" y="267"/>
      <point x="60" y="0" type="curve"/>
      <point x="192" y="0"/>
      <point x="60" y="0"/>
    </contour>
    <contour>
      <point x="381" y="533" type="curve"/>
      <point x="165" y="275" type="line"/>
      <point x="302" y="275"/>
      <point x="177" y="275"/>
      <point x="314" y="275" type="curve"/>
      <point x="536" y="533" type="line"/>
      <point x="406" y="533"/>
      <point x="511" y="533"/>
    </contour>
    <contour>
      <point x="560" y="0" type="curve"/>
      <point x="314" y="275" type="line"/>
      <point x="177" y="275"/>
      <point x="302" y="275"/>
      <point x="165" y="275" type="curve"/>
      <point x="404" y="0" type="line"/>
      <point x="527" y="0"/>
      <point x="436" y="0"/>
    </contour>
    <contour>
      <point x="342" y="-8" type="move" name="bottom"/>
    </contour>
  </outline>
</glyph>
<glyph name="m" format="1">
  <advance width="841"/>
  <unicode hex="006D"/>
  <outline>
    <contour>
      <point x="459" y="279" type="curve"/>
      <point x="486" y="358"/>
      <point x="513" y="434"/>
      <point x="580" y="434" type="curve"/>
      <point x="648" y="434"/>
      <point x="653" y="386"/>
      <point x="653" y="312" type="curve"/>
      <point x="653" y="208"/>
      <point x="653" y="104"/>
      <point x="653" y="0" type="curve"/>
      <point x="785" y="0"/>
      <point x="653" y="0"/>
      <point x="785" y="0" type="curve"/>
      <point x="785" y="107"/>
      <point x="785" y="215"/>
      <point x="785" y="322" type="curve"/>
      <point x="785" y="458"/>
      <point x="755" y="538"/>
      <point x="622" y="538" type="curve"/>
      <point x="518" y="538"/>
      <point x="454" y="454"/>
      <point x="415" y="335" type="curve"/>
      <point x="462" y="280"/>
      <point x="412" y="333"/>
    </contour>
    <contour>
      <point x="162" y="280" type="curve"/>
      <point x="187" y="359"/>
      <point x="216" y="434"/>
      <point x="284" y="434" type="curve"/>
      <point x="351" y="434"/>
      <point x="357" y="386"/>
      <point x="357" y="312" type="curve"/>
      <point x="357" y="208"/>
      <point x="357" y="104"/>
      <point x="357" y="0" type="curve"/>
      <point x="488" y="0"/>
      <point x="357" y="0"/>
      <point x="488" y="0" type="curve"/>
      <point x="488" y="107"/>
      <point x="488" y="215"/>
      <point x="488" y="322" type="curve"/>
      <point x="488" y="458"/>
      <point x="459" y="538"/>
      <point x="326" y="538" type="curve"/>
      <point x="220" y="538"/>
      <point x="163" y="457"/>
      <point x="119" y="336" type="curve"/>
      <point x="166" y="282"/>
      <point x="115" y="334"/>
    </contour>
    <contour>
      <point x="192" y="0" type="curve"/>
      <point x="192" y="178"/>
      <point x="192" y="355"/>
      <point x="192" y="533" type="curve"/>
      <point x="60" y="533"/>
      <point x="192" y="533"/>
      <point x="60" y="533" type="curve"/>
      <point x="60" y="355"/>
      <point x="60" y="178"/>
      <point x="60" y="0" type="curve"/>
      <point x="192" y="0"/>
      <point x="60" y="0"/>
    </contour>
  </outline>
</glyph>
<glyph name="o" format="1">
  <advance width="583"/>
  <unicode hex="006F"/>
  <outline>
    <contour>
      <point x="161" y="266" type="curve"/>
      <point x="161" y="359"/>
      <point x="195" y="435"/>
      <point x="286" y="435" type="curve"/>
      <point x="378" y="435"/>
      <point x="416" y="360"/>
      <point x="416" y="265" type="curve"/>
      <point x="416" y="168"/>
      <point x="381" y="98"/>
      <point x="294" y="98" type="curve"/>
      <point x="197" y="99"/>
      <point x="161" y="167"/>
      <point x="161" y="266" type="curve"/>
      <point x="121" y="266"/>
      <point x="76" y="266"/>
      <point x="36" y="266" type="curve"/>
      <point x="36" y="99"/>
      <point x="127" y="-5"/>
      <point x="289" y="-5" type="curve"/>
      <point x="453" y="-5"/>
      <point x="547" y="97"/>
      <point x="547" y="265" type="curve"/>
      <point x="547" y="431"/>
      <point x="456" y="538"/>
      <point x="292" y="538" type="curve"/>
      <point x="127" y="538"/>
      <point x="36" y="431"/>
      <point x="36" y="266" type="curve"/>
      <point x="76" y="266"/>
      <point x="121" y="266"/>
    </contour>
    <contour>
      <point x="290" y="618" type="move" name="top"/>
    </contour>
  </outline>
</glyph>
<glyph name="p" format="1">
  <advance width="603"/>
  <unicode hex="0070"/>
  <outline>
    <contour>
      <point x="159" y="307" type="curve"/>
      <point x="189" y="375"/>
      <point x="242" y="437"/>
      <point x="312" y="437" type="curve"/>
      <point x="406" y="437"/>
      <point x="436" y="359"/>
      <point x="436" y="263" type="curve"/>
      <point x="437" y="169"/>
      <point x="404" y="95"/>
      <point x="312" y="95" type="curve"/>
      <point x="251" y="95"/>
      <point x="204" y="121"/>
      <point x="162" y="165" type="curve"/>
      <point x="121" y="120"/>
      <point x="153" y="151"/>
      <point x="111" y="106" type="curve"/>
      <point x="171" y="35"/>
      <point x="241" y="-5"/>
      <point x="336" y="-5" type="curve"/>
      <point x="494" y="-5"/>
      <point x="567" y="112"/>
      <point x="567" y="269" type="curve"/>
      <point x="567" y="421"/>
      <point x="496" y="539"/>
      <point x="340" y="539" type="curve"/>
      <point x="240" y="539"/>
      <point x="166" y="471"/>
      <point x="118" y="387" type="curve"/>
      <point x="150" y="319"/>
      <point x="128" y="375"/>
    </contour>
    <contour>
      <point x="192" y="-300" type="curve"/>
      <point x="192" y="-22"/>
      <point x="192" y="255"/>
      <point x="192" y="533" type="curve"/>
      <point x="60" y="533"/>
      <point x="192" y="533"/>
      <point x="60" y="533" type="curve"/>
      <point x="60" y="255"/>
      <point x="60" y="-22"/>
      <point x="60" y="-300" type="curve"/>
      <point x="192" y="-300"/>
      <point x="60" y="-300"/>
    </contour>
  </outline>
</glyph>
<glyph name="q" format="1">
  <advance width="608"/>
  <unicode hex="0071"/>
  <outline>
    <contour>
      <point x="490" y="396" type="curve"/>
      <point x="437" y="482"/>
      <point x="363" y="538"/>
      <point x="267" y="538" type="curve"/>
      <point x="108" y="538"/>
      <point x="35" y="421"/>
      <point x="36" y="264" type="curve"/>
      <point x="36" y="107"/>
      <point x="114" y="-5"/>
      <point x="272" y="-5" type="curve"/>
      <point x="367" y="-5"/>
      <point x="438" y="55"/>
      <point x="495" y="132" type="curve"/>
      <point x="458" y="179"/>
      <point x="481" y="142"/>
      <point x="444" y="189" type="curve"/>
      <point x="408" y="132"/>
      <point x="357" y="95"/>
      <point x="292" y="95" type="curve"/>
      <point x="201" y="95"/>
      <point x="167" y="172"/>
      <point x="167" y="270" type="curve"/>
      <point x="167" y="362"/>
      <point x="203" y="435"/>
      <point x="290" y="435" type="curve"/>
      <point x="353" y="435"/>
      <point x="403" y="405"/>
      <point x="449" y="336" type="curve"/>
      <point x="476" y="386"/>
      <point x="463" y="346"/>
    </contour>
    <contour>
      <point x="547" y="-300" type="curve"/>
      <point x="547" y="-15"/>
      <point x="547" y="248"/>
      <point x="547" y="533" type="curve"/>
      <point x="435" y="533"/>
      <point x="523" y="533"/>
      <point x="410" y="533" type="curve"/>
      <point x="410" y="248"/>
      <point x="410" y="-15"/>
      <point x="410" y="-300" type="curve"/>
      <point x="523" y="-300"/>
      <point x="435" y="-300"/>
    </contour>
  </outline>
</glyph>
<glyph name="r" format="1">
  <advance width="368"/>
  <unicode hex="0072"/>
  <outline>
    <contour>
      <point x="192" y="0" type="curve"/>
      <point x="192" y="184"/>
      <point x="192" y="349"/>
      <point x="192" y="533" type="curve"/>
      <point x="83" y="533"/>
      <point x="169" y="533"/>
      <point x="60" y="533" type="curve"/>
      <point x="60" y="349"/>
      <point x="60" y="184"/>
      <point x="60" y="0" type="curve"/>
      <point x="169" y="0"/>
      <point x="83" y="0"/>
    </contour>
    <contour>
      <point x="162" y="286" type="curve"/>
      <point x="202" y="400"/>
      <point x="270" y="429"/>
      <point x="358" y="429" type="curve"/>
      <point x="358" y="518"/>
      <point x="358" y="449"/>
      <point x="358" y="538" type="curve"/>
      <point x="244" y="538"/>
      <point x="165" y="458"/>
      <point x="117" y="342" type="curve"/>
      <point x="154" y="298"/>
      <point x="125" y="331"/>
    </contour>
    <contour>
      <point x="153" y="618" type="move" name="top"/>
    </contour>
    <contour>
      <point x="170" y="2" type="move" name="bottom"/>
    </contour>
  </outline>
</glyph>
<glyph name="t" format="1">
  <advance width="388"/>
  <unicode hex="0074"/>
  <outline>
    <contour>
      <point x="28" y="432" type="curve"/>
      <point x="365" y="432" type="line"/>
      <point x="365" y="533"/>
      <point x="365" y="432"/>
      <point x="365" y="533" type="curve"/>
      <point x="28" y="533" type="line"/>
      <point x="28" y="432"/>
      <point x="28" y="533"/>
    </contour>
    <contour>
      <point x="333" y="116" type="curve"/>
      <point x="314" y="104"/>
      <point x="300" y="99"/>
      <point x="279" y="99" type="curve"/>
      <point x="239" y="99"/>
      <point x="231" y="129"/>
      <point x="231" y="172" type="curve"/>
      <point x="231" y="683" type="line"/>
      <point x="139" y="625"/>
      <point x="192" y="661"/>
      <point x="100" y="603" type="curve"/>
      <point x="100" y="167" type="line"/>
      <point x="100" y="56"/>
      <point x="156" y="-6"/>
      <point x="261" y="-6" type="curve"/>
      <point x="310" y="-6"/>
      <point x="343" y="8"/>
      <point x="380" y="29" type="curve"/>
      <point x="333" y="116"/>
      <point x="380" y="29"/>
    </contour>
    <contour>
      <point x="298" y="-1" type="move" name="bottom"/>
    </contour>
  </outline>
</glyph>
<glyph name="u" format="1">
  <advance width="573"/>
  <unicode hex="0075"/>
  <outline>
    <contour>
      <point x="513" y="0" type="curve"/>
      <point x="513" y="182"/>
      <point x="513" y="351"/>
      <point x="513" y="533" type="curve"/>
      <point x="405" y="533"/>
      <point x="489" y="533"/>
      <point x="381" y="533" type="curve"/>
      <point x="381" y="351"/>
      <point x="381" y="182"/>
      <point x="381" y="0" type="curve"/>
      <point x="489" y="0"/>
      <point x="405" y="0"/>
    </contour>
    <contour>
      <point x="411" y="232" type="curve"/>
      <point x="384" y="166"/>
      <point x="344" y="99"/>
      <point x="276" y="99" type="curve"/>
      <point x="210" y="99"/>
      <point x="186" y="147"/>
      <point x="186" y="215" type="curve"/>
      <point x="186" y="324"/>
      <point x="186" y="425"/>
      <point x="186" y="533" type="curve"/>
      <point x="78" y="533"/>
      <point x="163" y="533"/>
      <point x="55" y="533" type="curve"/>
      <point x="55" y="423"/>
      <point x="55" y="320"/>
      <point x="55" y="211" type="curve"/>
      <point x="55" y="78"/>
      <point x="118" y="-5"/>
      <point x="255" y="-5" type="curve"/>
      <point x="358" y="-5"/>
      <point x="422" y="78"/>
      <point x="462" y="185" type="curve"/>
      <point x="420" y="220"/>
      <point x="453" y="197"/>
    </contour>
    <contour>
      <point x="262" y="618" type="move" name="top"/>
    </contour>
    <contour>
      <point x="504" y="7" type="move" name="bottom"/>
    </contour>
  </outline>
</glyph>
<glyph name="v" format="1">
  <advance width="553"/>
  <unicode hex="0076"/>
  <outline>
    <contour>
      <point x="14" y="533" type="curve"/>
      <point x="76" y="355"/>
      <point x="138" y="178"/>
      <point x="200" y="0" type="curve"/>
      <point x="325" y="0"/>
      <point x="200" y="0"/>
      <point x="325" y="0" type="curve"/>
      <point x="264" y="177"/>
      <point x="208" y="356"/>
      <point x="148" y="533" type="curve"/>
      <point x="14" y="533"/>
      <point x="148" y="533"/>
    </contour>
    <contour>
      <point x="411" y="533" type="curve"/>
      <point x="223" y="0" type="line"/>
      <point x="348" y="0"/>
      <point x="223" y="0"/>
      <point x="348" y="0" type="curve"/>
      <point x="414" y="178"/>
      <point x="478" y="355"/>
      <point x="543" y="533" type="curve"/>
      <point x="411" y="533"/>
      <point x="543" y="533"/>
    </contour>
  </outline>
</glyph>
<glyph name="w" format="1">
  <advance width="826"/>
  <unicode hex="0077"/>
  <outline>
    <contour>
      <point x="295" y="0" type="curve"/>
      <point x="356" y="178"/>
      <point x="417" y="355"/>
      <point x="477" y="533" type="curve"/>
      <point x="357" y="533"/>
      <point x="477" y="533"/>
      <point x="357" y="533" type="curve"/>
      <point x="297" y="355"/>
      <point x="238" y="178"/>
      <point x="178" y="0" type="curve"/>
      <point x="295" y="0"/>
      <point x="178" y="0"/>
    </contour>
    <contour>
      <point x="694" y="533" type="curve"/>
      <point x="638" y="355"/>
      <point x="582" y="178"/>
      <point x="527" y="0" type="curve"/>
      <point x="643" y="0"/>
      <point x="527" y="0"/>
      <point x="643" y="0" type="curve"/>
      <point x="700" y="178"/>
      <point x="757" y="355"/>
      <point x="813" y="533" type="curve"/>
      <point x="694" y="533"/>
      <point x="813" y="533"/>
    </contour>
    <contour>
      <point x="363" y="533" type="curve"/>
      <point x="417" y="355"/>
      <point x="471" y="178"/>
      <point x="526" y="0" type="curve"/>
      <point x="643" y="0"/>
      <point x="526" y="0"/>
      <point x="643" y="0" type="curve"/>
      <point x="589" y="178"/>
      <point x="535" y="355"/>
      <point x="481" y="533" type="curve"/>
      <point x="363" y="533"/>
      <point x="481" y="533"/>
    </contour>
    <contour>
      <point x="15" y="533" type="curve"/>
      <point x="69" y="355"/>
      <point x="124" y="178"/>
      <point x="178" y="0" type="curve"/>
      <point x="294" y="0"/>
      <point x="178" y="0"/>
      <point x="294" y="0" type="curve"/>
      <point x="241" y="178"/>
      <point x="187" y="355"/>
      <point x="134" y="533" type="curve"/>
      <point x="15" y="533"/>
      <point x="134" y="533"/>
    </contour>
  </outline>
</glyph>
<glyph name="x" format="1">
  <advance width="568"/>
  <unicode hex="0078"/>
  <outline>
    <contour>
      <point x="557" y="0" type="curve"/>
      <point x="541" y="23"/>
      <point x="165" y="510"/>
      <point x="149" y="533" type="curve"/>
      <point x="-10" y="533"/>
      <point x="170" y="533"/>
      <point x="12" y="533" type="curve"/>
      <point x="28" y="510"/>
      <point x="399" y="23"/>
      <point x="415" y="0" type="curve"/>
      <point x="557" y="0"/>
      <point x="415" y="0"/>
    </contour>
    <contour>
      <point x="423" y="533" type="curve"/>
      <point x="407" y="510"/>
      <point x="25" y="23"/>
      <point x="9" y="0" type="curve"/>
      <point x="151" y="0"/>
      <point x="9" y="0"/>
      <point x="151" y="0" type="curve"/>
      <point x="167" y="23"/>
      <point x="544" y="510"/>
      <point x="560" y="533" type="curve"/>
      <point x="393" y="533"/>
      <point x="589" y="533"/>
    </contour>
  </outline>
</glyph>
<glyph name="y" format="1">
  <advance width="575"/>
  <unicode hex="0079"/>
  <outline>
    <contour>
      <point x="340" y="-16" type="curve"/>
      <point x="298" y="109"/>
      <point x="185" y="408"/>
      <point x="143" y="533" type="curve"/>
      <point x="9" y="533"/>
      <point x="143" y="533"/>
      <point x="9" y="533" type="curve"/>
      <point x="54" y="409"/>
      <point x="175" y="104"/>
      <point x="221" y="-21" type="curve"/>
      <point x="340" y="-21"/>
      <point x="221" y="-16"/>
    </contour>
    <contour>
      <point x="229" y="-300" type="curve"/>
      <point x="300" y="-113"/>
      <point x="502" y="346"/>
      <point x="573" y="533" type="curve"/>
      <point x="440" y="533"/>
      <point x="573" y="533"/>
      <point x="440" y="533" type="curve"/>
      <point x="368" y="346"/>
      <point x="165" y="-113"/>
      <point x="95" y="-300" type="curve"/>
      <point x="229" y="-300"/>
      <point x="95" y="-300"/>
    </contour>
    <contour>
      <point x="289" y="618" type="move" name="top"/>
    </contour>
  </outline>
</glyph>
<glyph name="z" format="1">
  <advance width="504"/>
  <unicode hex="007A"/>
  <outline>
    <contour>
      <point x="46" y="433" type="curve"/>
      <point x="167" y="433"/>
      <point x="287" y="433"/>
      <point x="409" y="433" type="curve"/>
      <point x="399" y="444"/>
      <point x="381" y="440"/>
      <point x="371" y="451" type="curve"/>
      <point x="362" y="460"/>
      <point x="363" y="475"/>
      <point x="354" y="484" type="curve"/>
      <point x="346" y="475"/>
      <point x="333" y="483"/>
      <point x="325" y="475" type="curve"/>
      <point x="30" y="101" type="line"/>
      <point x="30" y="49"/>
      <point x="30" y="101"/>
      <point x="30" y="49" type="curve"/>
      <point x="30" y="0"/>
      <point x="30" y="49"/>
      <point x="30" y="0" type="curve"/>
      <point x="77" y="0"/>
      <point x="30" y="0"/>
      <point x="77" y="0" type="curve"/>
      <point x="472" y="0"/>
      <point x="337" y="0"/>
      <point x="470" y="0" type="curve"/>
      <point x="470" y="100"/>
      <point x="470" y="0"/>
      <point x="470" y="100" type="curve"/>
      <point x="337" y="100"/>
      <point x="209" y="101"/>
      <point x="77" y="101" type="curve"/>
      <point x="87" y="93"/>
      <point x="101" y="93"/>
      <point x="111" y="86" type="curve"/>
      <point x="121" y="76"/>
      <point x="122" y="59"/>
      <point x="131" y="49" type="curve"/>
      <point x="138" y="57"/>
      <point x="142" y="51"/>
      <point x="149" y="58" type="curve"/>
      <point x="448" y="433" type="line"/>
      <point x="448" y="484"/>
      <point x="448" y="433"/>
      <point x="448" y="484" type="curve"/>
      <point x="448" y="533"/>
      <point x="448" y="484"/>
      <point x="448" y="533" type="curve"/>
      <point x="409" y="533"/>
      <point x="448" y="533"/>
      <point x="409" y="533" type="curve"/>
      <point x="287" y="533"/>
      <point x="167" y="533"/>
      <point x="46" y="533" type="curve"/>
      <point x="46" y="433"/>
      <point x="46" y="533"/>
    </contour>
    <contour>
      <point x="253" y="618" type="move" name="top"/>
    </contour>
  </outline>
</glyph>
<glyph name="braceleft" format="1">
  <advance width="279"/>
  <unicode hex="007B"/>
  <outline>
    <contour>
      <point x="238" y="-10" type="curve"/>
      <point x="201" y="-10"/>
      <point x="194" y="22"/>
      <point x="194" y="61" type="curve"/>
      <point x="194" y="113"/>
      <point x="194" y="165"/>
      <point x="194" y="217" type="curve"/>
      <point x="194" y="322"/>
      <point x="135" y="393"/>
      <point x="32" y="393" type="curve"/>
      <point x="32" y="288"/>
      <point x="32" y="393"/>
      <point x="32" y="288" type="curve"/>
      <point x="65" y="288"/>
      <point x="75" y="262"/>
      <point x="75" y="227" type="curve"/>
      <point x="75" y="173"/>
      <point x="75" y="120"/>
      <point x="75" y="67" type="curve"/>
      <point x="75" y="-40"/>
      <point x="134" y="-110"/>
      <point x="238" y="-110" type="curve"/>
      <point x="238" y="-10"/>
      <point x="238" y="-110"/>
    </contour>
    <contour>
      <point x="238" y="791" type="curve"/>
      <point x="134" y="791"/>
      <point x="75" y="724"/>
      <point x="75" y="618" type="curve"/>
      <point x="75" y="563"/>
      <point x="75" y="507"/>
      <point x="75" y="452" type="curve"/>
      <point x="75" y="417"/>
      <point x="64" y="393"/>
      <point x="32" y="393" type="curve"/>
      <point x="32" y="288"/>
      <point x="32" y="393"/>
      <point x="32" y="288" type="curve"/>
      <point x="135" y="288"/>
      <point x="194" y="359"/>
      <point x="194" y="467" type="curve"/>
      <point x="194" y="517"/>
      <point x="194" y="567"/>
      <point x="194" y="618" type="curve"/>
      <point x="194" y="658"/>
      <point x="200" y="690"/>
      <point x="238" y="690" type="curve"/>
      <point x="238" y="791"/>
      <point x="238" y="690"/>
    </contour>
  </outline>
</glyph>
<glyph name="braceright" format="1">
  <advance width="279"/>
  <unicode hex="007D"/>
  <outline>
    <contour>
      <point x="39" y="-110" type="curve"/>
      <point x="143" y="-110"/>
      <point x="203" y="-40"/>
      <point x="203" y="67" type="curve"/>
      <point x="203" y="120"/>
      <point x="203" y="173"/>
      <point x="203" y="227" type="curve"/>
      <point x="203" y="262"/>
      <point x="212" y="288"/>
      <point x="245" y="288" type="curve"/>
      <point x="245" y="393"/>
      <point x="245" y="288"/>
      <point x="245" y="393" type="curve"/>
      <point x="142" y="393"/>
      <point x="83" y="322"/>
      <point x="83" y="217" type="curve"/>
      <point x="83" y="165"/>
      <point x="83" y="113"/>
      <point x="83" y="61" type="curve"/>
      <point x="83" y="22"/>
      <point x="76" y="-10"/>
      <point x="39" y="-10" type="curve"/>
      <point x="39" y="-110"/>
      <point x="39" y="-10"/>
    </contour>
    <contour>
      <point x="39" y="690" type="curve"/>
      <point x="77" y="690"/>
      <point x="83" y="658"/>
      <point x="83" y="618" type="curve"/>
      <point x="83" y="567"/>
      <point x="83" y="517"/>
      <point x="83" y="467" type="curve"/>
      <point x="83" y="359"/>
      <point x="142" y="288"/>
      <point x="245" y="288" type="curve"/>
      <point x="245" y="393"/>
      <point x="245" y="288"/>
      <point x="245" y="393" type="curve"/>
      <point x="213" y="393"/>
      <point x="203" y="417"/>
      <point x="203" y="452" type="curve"/>
      <point x="203" y="507"/>
      <point x="203" y="563"/>
      <point x="203" y="618" type="curve"/>
      <point x="203" y="724"/>
      <point x="143" y="791"/>
      <point x="39" y="791" type="curve"/>
      <point x="39" y="690"/>
      <point x="39" y="791"/>
    </contour>
  </outline>
</glyph>
<glyph name="asciitilde" format="1">
  <advance width="630"/>
  <unicode hex="007E"/>
  <outline>
    <contour>
      <point x="479" y="375" type="curve"/>
      <point x="466" y="336"/>
      <point x="452" y="300"/>
      <point x="421" y="300" type="curve"/>
      <point x="392" y="300"/>
      <point x="376" y="309"/>
      <point x="354" y="326" type="curve"/>
      <point x="308" y="366"/>
      <point x="275" y="387"/>
      <point x="213" y="387" type="curve"/>
      <point x="118" y="387"/>
      <point x="72" y="335"/>
      <point x="46" y="242" type="curve"/>
      <point x="87" y="226"/>
      <point x="107" y="219"/>
      <point x="148" y="204" type="curve"/>
      <point x="160" y="247"/>
      <point x="176" y="282"/>
      <point x="210" y="282" type="curve"/>
      <point x="237" y="282"/>
      <point x="251" y="274"/>
      <point x="272" y="257" type="curve"/>
      <point x="321" y="216"/>
      <point x="355" y="196"/>
      <point x="419" y="195" type="curve"/>
      <point x="512" y="195"/>
      <point x="551" y="250"/>
      <point x="582" y="339" type="curve"/>
      <point x="541" y="354"/>
      <point x="521" y="361"/>
    </contour>
  </outline>
</glyph>
<glyph name="exclamdown" format="1">
  <advance width="256"/>
  <unicode hex="00A1"/>
  <outline>
    <contour>
      <point x="69" y="301" type="line"/>
      <point x="56" y="-192" type="line"/>
      <point x="201" y="-192" type="line"/>
      <point x="191" y="301" type="line"/>
    </contour>
    <contour>
      <point x="59" y="474" type="curve"/>
      <point x="59" y="430"/>
      <point x="89" y="409"/>
      <point x="131" y="408" type="curve"/>
      <point x="173" y="408"/>
      <point x="202" y="432"/>
      <point x="202" y="474" type="curve"/>
      <point x="60" y="474"/>
      <point x="201" y="474"/>
      <point x="59" y="474" type="curve"/>
      <point x="59" y="519"/>
      <point x="89" y="539"/>
      <point x="132" y="539" type="curve"/>
      <point x="174" y="539"/>
      <point x="202" y="517"/>
      <point x="202" y="474" type="curve"/>
      <point x="60" y="474"/>
      <point x="201" y="474"/>
    </contour>
  </outline>
</glyph>
<glyph name="cent" format="1">
  <advance width="602"/>
  <unicode hex="00A2"/>
  <outline>
    <contour>
      <point x="390" y="-53" type="curve"/>
      <point x="390" y="-13"/>
      <point x="390" y="27"/>
      <point x="390" y="67" type="curve"/>
      <point x="259" y="67"/>
      <point x="390" y="67"/>
      <point x="259" y="67" type="curve"/>
      <point x="259" y="27"/>
      <point x="259" y="-13"/>
      <point x="259" y="-53" type="curve"/>
      <point x="390" y="-53"/>
      <point x="259" y="-53"/>
    </contour>
    <contour>
      <point x="278" y="778" type="curve"/>
      <point x="278" y="742"/>
      <point x="278" y="706"/>
      <point x="278" y="670" type="curve"/>
      <point x="409" y="670"/>
      <point x="278" y="670"/>
      <point x="409" y="670" type="curve"/>
      <point x="409" y="706"/>
      <point x="409" y="742"/>
      <point x="409" y="778" type="curve"/>
      <point x="278" y="778"/>
      <point x="409" y="778"/>
    </contour>
    <contour>
      <point x="570" y="612" type="curve"/>
      <point x="498" y="666"/>
      <point x="438" y="686"/>
      <point x="352" y="686" type="curve"/>
      <point x="155" y="686"/>
      <point x="35" y="562"/>
      <point x="35" y="363" type="curve"/>
      <point x="35" y="174"/>
      <point x="135" y="46"/>
      <point x="318" y="46" type="curve"/>
      <point x="420" y="46"/>
      <point x="492" y="72"/>
      <point x="568" y="143" type="curve"/>
      <point x="492" y="222"/>
      <point x="568" y="143"/>
      <point x="492" y="222" type="curve"/>
      <point x="437" y="179"/>
      <point x="396" y="151"/>
      <point x="330" y="151" type="curve"/>
      <point x="218" y="151"/>
      <point x="166" y="244"/>
      <point x="166" y="369" type="curve"/>
      <point x="166" y="494"/>
      <point x="228" y="581"/>
      <point x="340" y="581" type="curve"/>
      <point x="403" y="581"/>
      <point x="445" y="563"/>
      <point x="500" y="527" type="curve"/>
      <point x="570" y="612"/>
      <point x="500" y="527"/>
    </contour>
  </outline>
</glyph>
<glyph name="sterling" format="1">
  <advance width="466"/>
  <unicode hex="00A3"/>
  <outline>
    <contour>
      <point x="405" y="101" type="curve"/>
      <point x="285" y="101"/>
      <point x="160" y="101"/>
      <point x="41" y="101" type="curve"/>
      <point x="41" y="0"/>
      <point x="41" y="101"/>
      <point x="41" y="0" type="curve"/>
      <point x="160" y="0"/>
      <point x="285" y="0"/>
      <point x="405" y="0" type="curve"/>
      <point x="405" y="101"/>
      <point x="405" y="0"/>
    </contour>
    <contour>
      <point x="358" y="425" type="curve"/>
      <point x="262" y="425"/>
      <point x="160" y="425"/>
      <point x="65" y="425" type="curve"/>
      <point x="65" y="325"/>
      <point x="65" y="425"/>
      <point x="65" y="325" type="curve"/>
      <point x="160" y="325"/>
      <point x="262" y="325"/>
      <point x="358" y="325" type="curve"/>
      <point x="358" y="425"/>
      <point x="358" y="325"/>
    </contour>
    <contour>
      <point x="436" y="662" type="curve"/>
      <point x="390" y="707"/>
      <point x="350" y="721"/>
      <point x="292" y="721" type="curve"/>
      <point x="125" y="721"/>
      <point x="72" y="559"/>
      <point x="112" y="364" type="curve"/>
      <point x="139" y="228"/>
      <point x="129" y="101"/>
      <point x="41" y="101" type="curve"/>
      <point x="41" y="0"/>
      <point x="41" y="101"/>
      <point x="41" y="0" type="curve"/>
      <point x="223" y="0"/>
      <point x="273" y="177"/>
      <point x="232" y="385" type="curve"/>
      <point x="207" y="509"/>
      <point x="212" y="625"/>
      <point x="286" y="625" type="curve"/>
      <point x="321" y="625"/>
      <point x="343" y="610"/>
      <point x="371" y="589" type="curve"/>
      <point x="436" y="662"/>
      <point x="371" y="589"/>
    </contour>
  </outline>
</glyph>
<glyph name="currency" format="1">
  <advance width="630"/>
  <unicode hex="00A4"/>
  <outline>
    <contour>
      <point x="245" y="316" type="curve"/>
      <point x="245" y="367"/>
      <point x="264" y="407"/>
      <point x="312" y="407" type="curve"/>
      <point x="363" y="407"/>
      <point x="384" y="370"/>
      <point x="384" y="316" type="curve"/>
      <point x="384" y="264"/>
      <point x="366" y="220"/>
      <point x="317" y="220" type="curve"/>
      <point x="265" y="220"/>
      <point x="245" y="261"/>
      <point x="245" y="316" type="curve"/>
      <point x="113" y="316"/>
      <point x="250" y="316"/>
      <point x="118" y="316" type="curve"/>
      <point x="118" y="194"/>
      <point x="195" y="120"/>
      <point x="316" y="120" type="curve"/>
      <point x="437" y="120"/>
      <point x="512" y="198"/>
      <point x="512" y="319" type="curve"/>
      <point x="512" y="435"/>
      <point x="439" y="507"/>
      <point x="324" y="507" type="curve"/>
      <point x="200" y="507"/>
      <point x="118" y="436"/>
      <point x="118" y="316" type="curve"/>
      <point x="250" y="316"/>
      <point x="113" y="316"/>
    </contour>
    <contour>
      <point x="425" y="337" type="line"/>
      <point x="585" y="485" type="line"/>
      <point x="489" y="582" type="line"/>
      <point x="341" y="421" type="line"/>
    </contour>
    <contour>
      <point x="345" y="213" type="line"/>
      <point x="493" y="52" type="line"/>
      <point x="590" y="149" type="line"/>
      <point x="429" y="297" type="line"/>
    </contour>
    <contour>
      <point x="201" y="297" type="line"/>
      <point x="41" y="149" type="line"/>
      <point x="137" y="53" type="line"/>
      <point x="285" y="213" type="line"/>
    </contour>
    <contour>
      <point x="291" y="422" type="line"/>
      <point x="143" y="583" type="line"/>
      <point x="46" y="486" type="line"/>
      <point x="207" y="338" type="line"/>
    </contour>
  </outline>
</glyph>
<glyph name="yen" format="1">
  <advance width="619"/>
  <unicode hex="00A5"/>
  <outline>
    <contour>
      <point x="508" y="421" type="curve"/>
      <point x="446" y="421"/>
      <point x="383" y="421"/>
      <point x="320" y="421" type="curve"/>
      <point x="320" y="311"/>
      <point x="320" y="421"/>
      <point x="320" y="311" type="curve"/>
      <point x="383" y="311"/>
      <point x="446" y="311"/>
      <point x="508" y="311" type="curve"/>
      <point x="508" y="421"/>
      <point x="508" y="311"/>
    </contour>
    <contour>
      <point x="294" y="421" type="curve"/>
      <point x="233" y="421"/>
      <point x="171" y="421"/>
      <point x="110" y="421" type="curve"/>
      <point x="110" y="311"/>
      <point x="110" y="421"/>
      <point x="110" y="311" type="curve"/>
      <point x="171" y="311"/>
      <point x="233" y="311"/>
      <point x="294" y="311" type="curve"/>
      <point x="294" y="421"/>
      <point x="294" y="311"/>
    </contour>
    <contour>
      <point x="508" y="274" type="curve"/>
      <point x="375" y="274"/>
      <point x="242" y="274"/>
      <point x="110" y="274" type="curve"/>
      <point x="110" y="164"/>
      <point x="110" y="274"/>
      <point x="110" y="164" type="curve"/>
      <point x="242" y="164"/>
      <point x="375" y="164"/>
      <point x="508" y="164" type="curve"/>
      <point x="508" y="274"/>
      <point x="508" y="164"/>
    </contour>
    <contour>
      <point x="26" y="722" type="curve"/>
      <point x="94" y="597"/>
      <point x="170" y="464"/>
      <point x="237" y="337" type="curve"/>
      <point x="370" y="337"/>
      <point x="223" y="337"/>
      <point x="356" y="337" type="curve"/>
      <point x="292" y="468"/>
      <point x="230" y="592"/>
      <point x="164" y="722" type="curve"/>
      <point x="38" y="722"/>
      <point x="152" y="722"/>
    </contour>
    <contour>
      <point x="462" y="722" type="curve"/>
      <point x="390" y="591"/>
      <point x="324" y="468"/>
      <point x="251" y="337" type="curve"/>
      <point x="385" y="337"/>
      <point x="244" y="337"/>
      <point x="377" y="337" type="curve"/>
      <point x="448" y="464"/>
      <point x="525" y="597"/>
      <point x="596" y="722" type="curve"/>
      <point x="470" y="722"/>
      <point x="588" y="722"/>
    </contour>
    <contour>
      <point x="379" y="0" type="curve"/>
      <point x="379" y="115"/>
      <point x="379" y="225"/>
      <point x="379" y="340" type="curve"/>
      <point x="235" y="340"/>
      <point x="379" y="340"/>
      <point x="235" y="340" type="curve"/>
      <point x="235" y="225"/>
      <point x="235" y="115"/>
      <point x="235" y="0" type="curve"/>
      <point x="379" y="0"/>
      <point x="235" y="0"/>
    </contour>
  </outline>
</glyph>
<glyph name="section" format="1">
  <advance width="493"/>
  <unicode hex="00A7"/>
  <outline>
    <contour>
      <point x="404" y="701" type="curve"/>
      <point x="350" y="733"/>
      <point x="311" y="749"/>
      <point x="251" y="749" type="curve"/>
      <point x="141" y="749"/>
      <point x="67" y="696"/>
      <point x="67" y="598" type="curve"/>
      <point x="67" y="511"/>
      <point x="120" y="463"/>
      <point x="204" y="433" type="curve"/>
      <point x="262" y="412"/>
      <point x="328" y="406"/>
      <point x="328" y="359" type="curve"/>
      <point x="328" y="310"/>
      <point x="293" y="286"/>
      <point x="240" y="276" type="curve"/>
      <point x="318" y="195"/>
      <point x="240" y="276"/>
      <point x="318" y="195" type="curve"/>
      <point x="407" y="217"/>
      <point x="459" y="271"/>
      <point x="459" y="361" type="curve"/>
      <point x="458" y="463"/>
      <point x="372" y="495"/>
      <point x="270" y="528" type="curve"/>
      <point x="230" y="542"/>
      <point x="192" y="558"/>
      <point x="192" y="598" type="curve"/>
      <point x="192" y="628"/>
      <point x="214" y="649"/>
      <point x="248" y="649" type="curve"/>
      <point x="289" y="649"/>
      <point x="310" y="638"/>
      <point x="345" y="619" type="curve"/>
      <point x="404" y="701"/>
      <point x="345" y="619"/>
    </contour>
    <contour>
      <point x="176" y="526" type="curve"/>
      <point x="91" y="499"/>
      <point x="36" y="453"/>
      <point x="36" y="366" type="curve"/>
      <point x="36" y="269"/>
      <point x="108" y="228"/>
      <point x="205" y="197" type="curve"/>
      <point x="253" y="180"/>
      <point x="305" y="171"/>
      <point x="305" y="128" type="curve"/>
      <point x="305" y="94"/>
      <point x="281" y="73"/>
      <point x="248" y="73" type="curve"/>
      <point x="203" y="73"/>
      <point x="177" y="88"/>
      <point x="137" y="113" type="curve"/>
      <point x="69" y="39"/>
      <point x="137" y="113"/>
      <point x="69" y="39" type="curve"/>
      <point x="126" y="-9"/>
      <point x="175" y="-26"/>
      <point x="245" y="-26" type="curve"/>
      <point x="354" y="-26"/>
      <point x="434" y="25"/>
      <point x="434" y="129" type="curve"/>
      <point x="432" y="217"/>
      <point x="375" y="264"/>
      <point x="288" y="292" type="curve"/>
      <point x="230" y="312"/>
      <point x="167" y="319"/>
      <point x="167" y="369" type="curve"/>
      <point x="167" y="413"/>
      <point x="196" y="437"/>
      <point x="241" y="451" type="curve"/>
      <point x="176" y="526"/>
      <point x="241" y="451"/>
    </contour>
  </outline>
</glyph>
<glyph name="dieresis" format="1">
  <advance width="399"/>
  <unicode hex="00A8"/>
  <outline>
    <contour>
      <point x="173" y="646" type="curve"/>
      <point x="173" y="690"/>
      <point x="142" y="712"/>
      <point x="100" y="712" type="curve"/>
      <point x="58" y="712"/>
      <point x="30" y="688"/>
      <point x="30" y="646" type="curve"/>
      <point x="172" y="646"/>
      <point x="31" y="646"/>
      <point x="173" y="646" type="curve"/>
      <point x="173" y="602"/>
      <point x="142" y="582"/>
      <point x="100" y="582" type="curve"/>
      <point x="57" y="582"/>
      <point x="30" y="603"/>
      <point x="30" y="646" type="curve"/>
      <point x="172" y="646"/>
      <point x="31" y="646"/>
    </contour>
    <contour>
      <point x="369" y="646" type="curve"/>
      <point x="369" y="690"/>
      <point x="339" y="712"/>
      <point x="297" y="712" type="curve"/>
      <point x="255" y="712"/>
      <point x="227" y="688"/>
      <point x="227" y="646" type="curve"/>
      <point x="369" y="646"/>
      <point x="228" y="646"/>
      <point x="369" y="646" type="curve"/>
      <point x="369" y="602"/>
      <point x="339" y="582"/>
      <point x="297" y="582" type="curve"/>
      <point x="254" y="582"/>
      <point x="227" y="603"/>
      <point x="227" y="646" type="curve"/>
      <point x="369" y="646"/>
      <point x="228" y="646"/>
    </contour>
    <contour>
      <point x="199" y="586" type="move" name="_top"/>
    </contour>
  </outline>
</glyph>
<glyph name="copyright" format="1">
  <advance width="728"/>
  <unicode hex="00A9"/>
  <outline>
    <contour>
      <point x="144" y="324" type="curve"/>
      <point x="144" y="465"/>
      <point x="228" y="564"/>
      <point x="365" y="564" type="curve"/>
      <point x="500" y="564"/>
      <point x="582" y="463"/>
      <point x="582" y="321" type="curve"/>
      <point x="582" y="185"/>
      <point x="503" y="85"/>
      <point x="373" y="85" type="curve"/>
      <point x="236" y="85"/>
      <point x="144" y="182"/>
      <point x="144" y="324" type="curve"/>
      <point x="37" y="324"/>
      <point x="146" y="324"/>
      <point x="39" y="324" type="curve"/>
      <point x="39" y="131"/>
      <point x="174" y="5"/>
      <point x="368" y="5" type="curve"/>
      <point x="558" y="5"/>
      <point x="685" y="134"/>
      <point x="685" y="325" type="curve"/>
      <point x="685" y="517"/>
      <point x="555" y="645"/>
      <point x="365" y="645" type="curve"/>
      <point x="173" y="645"/>
      <point x="39" y="517"/>
      <point x="39" y="324" type="curve"/>
      <point x="146" y="324"/>
      <point x="37" y="324"/>
    </contour>
    <contour>
      <point x="508" y="446" type="curve"/>
      <point x="472" y="492"/>
      <point x="426" y="511"/>
      <point x="372" y="511" type="curve"/>
      <point x="255" y="511"/>
      <point x="187" y="439"/>
      <point x="187" y="322" type="curve"/>
      <point x="187" y="210"/>
      <point x="247" y="139"/>
      <point x="357" y="139" type="curve"/>
      <point x="418" y="139"/>
      <point x="461" y="150"/>
      <point x="506" y="199" type="curve"/>
      <point x="447" y="251"/>
      <point x="506" y="199"/>
      <point x="447" y="251" type="curve"/>
      <point x="417" y="231"/>
      <point x="395" y="220"/>
      <point x="361" y="220" type="curve"/>
      <point x="306" y="220"/>
      <point x="287" y="266"/>
      <point x="287" y="326" type="curve"/>
      <point x="287" y="387"/>
      <point x="310" y="431"/>
      <point x="367" y="431" type="curve"/>
      <point x="392" y="431"/>
      <point x="416" y="424"/>
      <point x="441" y="403" type="curve"/>
      <point x="514" y="448"/>
      <point x="436" y="402"/>
    </contour>
  </outline>
</glyph>
<glyph name="ordfeminine" format="1">
  <advance width="381"/>
  <unicode hex="00AA"/>
  <outline>
    <contour>
      <point x="327" y="425" type="curve"/>
      <point x="327" y="507"/>
      <point x="327" y="584"/>
      <point x="327" y="666" type="curve"/>
      <point x="327" y="745"/>
      <point x="269" y="774"/>
      <point x="189" y="774" type="curve"/>
      <point x="131" y="774"/>
      <point x="88" y="753"/>
      <point x="55" y="724" type="curve"/>
      <point x="87" y="670"/>
      <point x="58" y="722"/>
      <point x="90" y="667" type="curve"/>
      <point x="110" y="686"/>
      <point x="137" y="705"/>
      <point x="177" y="705" type="curve"/>
      <point x="215" y="705"/>
      <point x="241" y="690"/>
      <point x="241" y="654" type="curve"/>
      <point x="241" y="576"/>
      <point x="241" y="502"/>
      <point x="241" y="425" type="curve"/>
      <point x="325" y="425"/>
      <point x="243" y="425"/>
    </contour>
    <contour>
      <point x="282" y="649" type="curve"/>
      <point x="237" y="644"/>
      <point x="209" y="642"/>
      <point x="165" y="636" type="curve"/>
      <point x="89" y="626"/>
      <point x="36" y="601"/>
      <point x="36" y="530" type="curve"/>
      <point x="36" y="459"/>
      <point x="81" y="422"/>
      <point x="154" y="422" type="curve"/>
      <point x="227" y="422"/>
      <point x="258" y="471"/>
      <point x="305" y="523" type="curve"/>
      <point x="263" y="557"/>
      <point x="303" y="524"/>
      <point x="262" y="558" type="curve"/>
      <point x="237" y="519"/>
      <point x="216" y="488"/>
      <point x="173" y="488" type="curve"/>
      <point x="139" y="488"/>
      <point x="121" y="503"/>
      <point x="121" y="533" type="curve"/>
      <point x="121" y="559"/>
      <point x="141" y="573"/>
      <point x="166" y="577" type="curve"/>
      <point x="214" y="583"/>
      <point x="237" y="586"/>
      <point x="286" y="593" type="curve"/>
      <point x="282" y="648"/>
      <point x="286" y="595"/>
    </contour>
  </outline>
</glyph>
<glyph name="guillemotleft" format="1">
  <advance width="499"/>
  <unicode hex="00AB"/>
  <outline>
    <contour>
      <point x="228" y="476" type="curve"/>
      <point x="184" y="445"/>
      <point x="81" y="378"/>
      <point x="37" y="347" type="curve"/>
      <point x="37" y="237"/>
      <point x="37" y="335"/>
      <point x="37" y="224" type="curve"/>
      <point x="81" y="254"/>
      <point x="184" y="329"/>
      <point x="228" y="359" type="curve"/>
      <point x="228" y="469"/>
      <point x="228" y="366"/>
    </contour>
    <contour>
      <point x="228" y="215" type="curve"/>
      <point x="184" y="245"/>
      <point x="81" y="317"/>
      <point x="37" y="347" type="curve"/>
      <point x="37" y="237"/>
      <point x="37" y="335"/>
      <point x="37" y="224" type="curve"/>
      <point x="81" y="194"/>
      <point x="184" y="128"/>
      <point x="228" y="98" type="curve"/>
      <point x="228" y="208"/>
      <point x="228" y="105"/>
    </contour>
    <contour>
      <point x="441" y="476" type="curve"/>
      <point x="397" y="445"/>
      <point x="294" y="378"/>
      <point x="249" y="347" type="curve"/>
      <point x="249" y="237"/>
      <point x="249" y="335"/>
      <point x="249" y="224" type="curve"/>
      <point x="294" y="254"/>
      <point x="397" y="329"/>
      <point x="441" y="359" type="curve"/>
      <point x="441" y="469"/>
      <point x="441" y="366"/>
    </contour>
    <contour>
      <point x="441" y="215" type="curve"/>
      <point x="397" y="245"/>
      <point x="294" y="317"/>
      <point x="249" y="347" type="curve"/>
      <point x="249" y="237"/>
      <point x="249" y="335"/>
      <point x="249" y="224" type="curve"/>
      <point x="294" y="194"/>
      <point x="397" y="128"/>
      <point x="441" y="98" type="curve"/>
      <point x="441" y="208"/>
      <point x="441" y="105"/>
    </contour>
  </outline>
</glyph>
<glyph name="logicalnot" format="1">
  <advance width="574"/>
  <unicode hex="00AC"/>
  <outline>
    <contour>
      <point x="58" y="259" type="curve"/>
      <point x="513" y="259" type="line"/>
      <point x="513" y="369"/>
      <point x="513" y="259"/>
      <point x="513" y="369" type="curve"/>
      <point x="58" y="369" type="line"/>
      <point x="58" y="259"/>
      <point x="58" y="369"/>
    </contour>
    <contour>
      <point x="513" y="140" type="curve"/>
      <point x="513" y="369" type="line"/>
      <point x="382" y="369"/>
      <point x="516" y="369"/>
      <point x="385" y="369" type="curve"/>
      <point x="385" y="140" type="line"/>
      <point x="516" y="140"/>
      <point x="382" y="140"/>
    </contour>
  </outline>
</glyph>
<glyph name="registered" format="1">
  <advance width="739"/>
  <unicode hex="00AE"/>
  <outline>
    <contour>
      <point x="134" y="322" type="curve"/>
      <point x="134" y="476"/>
      <point x="223" y="571"/>
      <point x="373" y="571" type="curve"/>
      <point x="521" y="571"/>
      <point x="606" y="473"/>
      <point x="606" y="320" type="curve"/>
      <point x="606" y="172"/>
      <point x="524" y="75"/>
      <point x="380" y="75" type="curve"/>
      <point x="228" y="75"/>
      <point x="134" y="168"/>
      <point x="134" y="322" type="curve"/>
      <point x="98" y="322"/>
      <point x="78" y="322"/>
      <point x="43" y="322" type="curve"/>
      <point x="43" y="121"/>
      <point x="174" y="4"/>
      <point x="376" y="4" type="curve"/>
      <point x="574" y="4"/>
      <point x="697" y="125"/>
      <point x="697" y="324" type="curve"/>
      <point x="697" y="523"/>
      <point x="572" y="644"/>
      <point x="373" y="644" type="curve"/>
      <point x="171" y="644"/>
      <point x="43" y="524"/>
      <point x="43" y="322" type="curve"/>
      <point x="78" y="322"/>
      <point x="98" y="322"/>
    </contour>
    <contour>
      <point x="335" y="318" type="curve"/>
      <point x="349" y="300"/>
      <point x="413" y="160"/>
      <point x="426" y="142" type="curve"/>
      <point x="480" y="142"/>
      <point x="464" y="142"/>
      <point x="522" y="142" type="curve"/>
      <point x="508" y="161"/>
      <point x="444" y="293"/>
      <point x="431" y="312" type="curve"/>
      <point x="314" y="312"/>
      <point x="452" y="318"/>
    </contour>
    <contour>
      <point x="347" y="142" type="curve"/>
      <point x="347" y="244"/>
      <point x="347" y="403"/>
      <point x="347" y="506" type="curve"/>
      <point x="286" y="506"/>
      <point x="315" y="507"/>
      <point x="250" y="507" type="curve"/>
      <point x="250" y="404"/>
      <point x="250" y="244"/>
      <point x="250" y="142" type="curve"/>
      <point x="314" y="142"/>
      <point x="278" y="142"/>
    </contour>
    <contour>
      <point x="304" y="272" type="curve"/>
      <point x="321" y="272"/>
      <point x="338" y="272"/>
      <point x="354" y="272" type="curve"/>
      <point x="443" y="272"/>
      <point x="505" y="305"/>
      <point x="505" y="392" type="curve"/>
      <point x="505" y="466"/>
      <point x="452" y="507"/>
      <point x="376" y="507" type="curve"/>
      <point x="369" y="507"/>
      <point x="290" y="507"/>
      <point x="283" y="507" type="curve"/>
      <point x="250" y="451"/>
      <point x="355" y="507"/>
      <point x="250" y="426" type="curve"/>
      <point x="285" y="426"/>
      <point x="321" y="426"/>
      <point x="356" y="426" type="curve"/>
      <point x="386" y="426"/>
      <point x="409" y="416"/>
      <point x="409" y="388" type="curve"/>
      <point x="409" y="364"/>
      <point x="393" y="352"/>
      <point x="369" y="352" type="curve"/>
      <point x="347" y="352"/>
      <point x="325" y="352"/>
      <point x="304" y="352" type="curve"/>
      <point x="304" y="272"/>
      <point x="304" y="352"/>
    </contour>
  </outline>
</glyph>
<glyph name="macron" format="1">
  <advance width="316"/>
  <unicode hex="00AF"/>
  <outline>
    <contour>
      <point x="227" y="678" type="curve"/>
      <point x="160" y="678"/>
      <point x="93" y="678"/>
      <point x="26" y="678" type="curve"/>
      <point x="26" y="578"/>
      <point x="26" y="678"/>
      <point x="26" y="578" type="curve"/>
      <point x="93" y="578"/>
      <point x="160" y="578"/>
      <point x="227" y="578" type="curve"/>
      <point x="227" y="678"/>
      <point x="227" y="578"/>
    </contour>
    <contour>
      <point x="127" y="578" type="move" name="_top"/>
    </contour>
  </outline>
</glyph>
<glyph name="degree" format="1">
  <advance width="438"/>
  <unicode hex="00B0"/>
  <outline>
    <contour>
      <point x="404" y="567" type="curve"/>
      <point x="404" y="681"/>
      <point x="333" y="751"/>
      <point x="218" y="751" type="curve"/>
      <point x="105" y="751"/>
      <point x="35" y="681"/>
      <point x="35" y="568" type="curve"/>
      <point x="98" y="568"/>
      <point x="81" y="568"/>
      <point x="144" y="568" type="curve"/>
      <point x="144" y="620"/>
      <point x="167" y="658"/>
      <point x="217" y="658" type="curve"/>
      <point x="267" y="658"/>
      <point x="291" y="621"/>
      <point x="291" y="567" type="curve"/>
      <point x="291" y="513"/>
      <point x="270" y="474"/>
      <point x="220" y="474" type="curve"/>
      <point x="168" y="474"/>
      <point x="144" y="513"/>
      <point x="144" y="568" type="curve"/>
      <point x="81" y="568"/>
      <point x="98" y="568"/>
      <point x="35" y="568" type="curve"/>
      <point x="35" y="453"/>
      <point x="104" y="380"/>
      <point x="218" y="380" type="curve"/>
      <point x="333" y="380"/>
      <point x="404" y="452"/>
    </contour>
  </outline>
</glyph>
<glyph name="plusminus" format="1">
  <advance width="636"/>
  <unicode hex="00B1"/>
  <outline>
    <contour>
      <point x="48" y="43" type="line"/>
      <point x="588" y="43" type="line"/>
      <point x="588" y="153" type="line"/>
      <point x="48" y="153" type="line"/>
    </contour>
    <contour>
      <point x="48" y="259" type="curve"/>
      <point x="588" y="259" type="line"/>
      <point x="588" y="369"/>
      <point x="588" y="259"/>
      <point x="588" y="369" type="curve"/>
      <point x="48" y="369" type="line"/>
      <point x="48" y="259"/>
      <point x="48" y="369"/>
    </contour>
    <contour>
      <point x="380" y="44" type="curve"/>
      <point x="380" y="582" type="line"/>
      <point x="249" y="582"/>
      <point x="389" y="582"/>
      <point x="258" y="582" type="curve"/>
      <point x="258" y="44" type="line"/>
      <point x="389" y="44"/>
      <point x="249" y="44"/>
    </contour>
  </outline>
</glyph>
<glyph name="twosuperior" format="1">
  <advance width="427"/>
  <unicode hex="00B2"/>
  <outline>
    <contour>
      <point x="38" y="350" type="curve"/>
      <point x="162" y="350"/>
      <point x="285" y="350"/>
      <point x="383" y="350" type="curve"/>
      <point x="383" y="395"/>
      <point x="383" y="388"/>
      <point x="383" y="436" type="curve"/>
      <point x="275" y="436"/>
      <point x="147" y="436"/>
      <point x="38" y="436" type="curve"/>
      <point x="38" y="350"/>
      <point x="38" y="436"/>
    </contour>
    <contour>
      <point x="133" y="644" type="curve"/>
      <point x="149" y="675"/>
      <point x="167" y="698"/>
      <point x="201" y="698" type="curve"/>
      <point x="236" y="698"/>
      <point x="255" y="677"/>
      <point x="255" y="643" type="curve"/>
      <point x="255" y="608"/>
      <point x="231" y="589"/>
      <point x="205" y="565" type="curve"/>
      <point x="149" y="522"/>
      <point x="94" y="479"/>
      <point x="38" y="436" type="curve"/>
      <point x="40" y="351"/>
      <point x="40" y="436"/>
      <point x="41" y="351" type="curve"/>
      <point x="122" y="403"/>
      <point x="211" y="449"/>
      <point x="272" y="498" type="curve"/>
      <point x="324" y="544"/>
      <point x="365" y="579"/>
      <point x="365" y="648" type="curve"/>
      <point x="365" y="736"/>
      <point x="301" y="784"/>
      <point x="209" y="784" type="curve"/>
      <point x="136" y="784"/>
      <point x="82" y="758"/>
      <point x="54" y="681" type="curve"/>
      <point x="133" y="644"/>
      <point x="54" y="681"/>
    </contour>
    <contour>
      <point x="211" y="785" type="move" name="_top"/>
    </contour>
    <contour>
      <point x="207" y="350" type="move" name="_bottom"/>
    </contour>
  </outline>
</glyph>
<glyph name="threesuperior" format="1">
  <advance width="379"/>
  <unicode hex="00B3"/>
  <outline>
    <contour>
      <point x="95" y="664" type="curve"/>
      <point x="116" y="683"/>
      <point x="137" y="696"/>
      <point x="161" y="696" type="curve"/>
      <point x="193" y="696"/>
      <point x="215" y="681"/>
      <point x="215" y="650" type="curve"/>
      <point x="215" y="614"/>
      <point x="170" y="604"/>
      <point x="124" y="602" type="curve"/>
      <point x="124" y="529"/>
      <point x="124" y="602"/>
      <point x="124" y="529" type="curve"/>
      <point x="235" y="532"/>
      <point x="328" y="560"/>
      <point x="328" y="657" type="curve"/>
      <point x="328" y="743"/>
      <point x="263" y="781"/>
      <point x="172" y="781" type="curve"/>
      <point x="118" y="781"/>
      <point x="69" y="759"/>
      <point x="35" y="722" type="curve"/>
      <point x="95" y="664"/>
      <point x="35" y="722"/>
    </contour>
    <contour>
      <point x="34" y="379" type="curve"/>
      <point x="71" y="356"/>
      <point x="109" y="342"/>
      <point x="153" y="342" type="curve"/>
      <point x="263" y="340"/>
      <point x="343" y="378"/>
      <point x="342" y="477" type="curve"/>
      <point x="342" y="577"/>
      <point x="239" y="589"/>
      <point x="124" y="593" type="curve"/>
      <point x="124" y="528"/>
      <point x="124" y="593"/>
      <point x="124" y="528" type="curve"/>
      <point x="180" y="526"/>
      <point x="228" y="514"/>
      <point x="228" y="474" type="curve"/>
      <point x="228" y="441"/>
      <point x="201" y="424"/>
      <point x="163" y="426" type="curve"/>
      <point x="138" y="426"/>
      <point x="113" y="431"/>
      <point x="86" y="445" type="curve"/>
      <point x="34" y="379"/>
      <point x="86" y="445"/>
    </contour>
    <contour>
      <point x="183" y="782" type="move" name="_top"/>
    </contour>
    <contour>
      <point x="178" y="342" type="move" name="_bottom"/>
    </contour>
  </outline>
</glyph>
<glyph name="acute" format="1">
  <advance width="229"/>
  <unicode hex="00B4"/>
  <outline>
    <contour>
      <point x="82" y="590" type="line"/>
      <point x="220" y="756" type="line"/>
      <point x="56" y="756" type="line"/>
      <point x="-44" y="590" type="line"/>
    </contour>
    <contour>
      <point x="25" y="591" type="move" name="_top"/>
    </contour>
  </outline>
</glyph>
<glyph name="paragraph" format="1">
  <advance width="757"/>
  <unicode hex="00B6"/>
  <outline>
    <contour>
      <point x="417" y="622" type="curve"/>
      <point x="569" y="622"/>
      <point x="417" y="622"/>
      <point x="569" y="622" type="curve"/>
      <point x="569" y="722"/>
      <point x="569" y="622"/>
      <point x="569" y="722" type="curve"/>
      <point x="518" y="722"/>
      <point x="467" y="722"/>
      <point x="417" y="722" type="curve"/>
      <point x="417" y="622"/>
      <point x="417" y="722"/>
    </contour>
    <contour>
      <point x="394" y="384" type="curve"/>
      <point x="352" y="363"/>
      <point x="319" y="350"/>
      <point x="271" y="350" type="curve"/>
      <point x="199" y="350"/>
      <point x="159" y="400"/>
      <point x="159" y="476" type="curve"/>
      <point x="159" y="567"/>
      <point x="219" y="622"/>
      <point x="310" y="622" type="curve"/>
      <point x="345" y="622"/>
      <point x="379" y="622"/>
      <point x="414" y="622" type="curve"/>
      <point x="414" y="722"/>
      <point x="414" y="622"/>
      <point x="414" y="722" type="curve"/>
      <point x="374" y="722"/>
      <point x="333" y="722"/>
      <point x="292" y="722" type="curve"/>
      <point x="136" y="722"/>
      <point x="28" y="632"/>
      <point x="28" y="481" type="curve"/>
      <point x="28" y="335"/>
      <point x="132" y="256"/>
      <point x="283" y="253" type="curve"/>
      <point x="340" y="253"/>
      <point x="386" y="274"/>
      <point x="436" y="299" type="curve"/>
      <point x="394" y="384"/>
      <point x="435" y="301"/>
    </contour>
    <contour>
      <point x="483" y="0" type="curve"/>
      <point x="483" y="241"/>
      <point x="483" y="481"/>
      <point x="483" y="722" type="curve"/>
      <point x="352" y="722"/>
      <point x="483" y="722"/>
      <point x="352" y="722" type="curve"/>
      <point x="352" y="481"/>
      <point x="352" y="241"/>
      <point x="352" y="0" type="curve"/>
      <point x="483" y="0"/>
      <point x="352" y="0"/>
    </contour>
    <contour>
      <point x="693" y="0" type="curve"/>
      <point x="693" y="241"/>
      <point x="693" y="481"/>
      <point x="693" y="722" type="curve"/>
      <point x="562" y="722"/>
      <point x="693" y="722"/>
      <point x="562" y="722" type="curve"/>
      <point x="562" y="481"/>
      <point x="562" y="241"/>
      <point x="562" y="0" type="curve"/>
      <point x="693" y="0"/>
      <point x="562" y="0"/>
    </contour>
  </outline>
</glyph>
<glyph name="periodcentered" format="1">
  <advance width="228"/>
  <unicode hex="00B7"/>
  <outline>
    <contour>
      <point x="185" y="440" type="curve"/>
      <point x="185" y="484"/>
      <point x="154" y="506"/>
      <point x="113" y="506" type="curve"/>
      <point x="70" y="506"/>
      <point x="42" y="482"/>
      <point x="42" y="440" type="curve"/>
      <point x="184" y="440"/>
      <point x="43" y="440"/>
      <point x="185" y="440" type="curve"/>
      <point x="185" y="395"/>
      <point x="155" y="375"/>
      <point x="112" y="375" type="curve"/>
      <point x="70" y="375"/>
      <point x="42" y="397"/>
      <point x="42" y="440" type="curve"/>
      <point x="184" y="440"/>
      <point x="43" y="440"/>
    </contour>
  </outline>
</glyph>
<glyph name="cedilla" format="1">
  <advance width="308"/>
  <unicode hex="00B8"/>
  <outline>
    <contour>
      <point x="123" y="150" type="curve"/>
      <point x="111" y="128"/>
      <point x="65" y="39"/>
      <point x="53" y="17" type="curve"/>
      <point x="143" y="-63"/>
      <point x="53" y="17"/>
      <point x="143" y="-63" type="curve"/>
      <point x="157" y="-37"/>
      <point x="210" y="54"/>
      <point x="224" y="81" type="curve"/>
      <point x="123" y="150"/>
      <point x="224" y="81"/>
    </contour>
    <contour>
      <point x="143" y="-63" type="curve"/>
      <point x="148" y="-59"/>
      <point x="153" y="-55"/>
      <point x="160" y="-55" type="curve"/>
      <point x="171" y="-55"/>
      <point x="177" y="-61"/>
      <point x="177" y="-73" type="curve"/>
      <point x="177" y="-88"/>
      <point x="163" y="-94"/>
      <point x="146" y="-94" type="curve"/>
      <point x="125" y="-94"/>
      <point x="108" y="-89"/>
      <point x="86" y="-78" type="curve"/>
      <point x="41" y="-152"/>
      <point x="86" y="-78"/>
      <point x="41" y="-152" type="curve"/>
      <point x="73" y="-170"/>
      <point x="102" y="-179"/>
      <point x="140" y="-179" type="curve"/>
      <point x="215" y="-179"/>
      <point x="270" y="-145"/>
      <point x="270" y="-70" type="curve"/>
      <point x="270" y="-1"/>
      <point x="223" y="40"/>
      <point x="153" y="40" type="curve"/>
      <point x="115" y="40"/>
      <point x="87" y="34"/>
      <point x="53" y="17" type="curve"/>
      <point x="143" y="-63"/>
      <point x="53" y="17"/>
    </contour>
    <contour>
      <point x="213" y="81" type="move" name="_bottom"/>
    </contour>
  </outline>
</glyph>
<glyph name="onesuperior" format="1">
  <advance width="287"/>
  <unicode hex="00B9"/>
  <outline>
    <contour>
      <point x="68" y="616" type="line"/>
      <point x="228" y="773" type="line"/>
      <point x="115" y="775" type="line"/>
      <point x="10" y="680" type="line"/>
    </contour>
    <contour>
      <point x="228" y="350" type="curve"/>
      <point x="228" y="775" type="line"/>
      <point x="115" y="775" type="line"/>
      <point x="115" y="350" type="line"/>
      <point x="191" y="350"/>
      <point x="146" y="350"/>
    </contour>
    <contour>
      <point x="161" y="774" type="move" name="_top"/>
    </contour>
    <contour>
      <point x="172" y="350" type="move" name="_bottom"/>
    </contour>
  </outline>
</glyph>
<glyph name="ordmasculine" format="1">
  <advance width="400"/>
  <unicode hex="00BA"/>
  <outline>
    <contour>
      <point x="116" y="598" type="curve"/>
      <point x="116" y="657"/>
      <point x="139" y="705"/>
      <point x="197" y="705" type="curve"/>
      <point x="256" y="705"/>
      <point x="280" y="658"/>
      <point x="280" y="597" type="curve"/>
      <point x="280" y="534"/>
      <point x="258" y="489"/>
      <point x="203" y="489" type="curve"/>
      <point x="140" y="489"/>
      <point x="116" y="534"/>
      <point x="116" y="598" type="curve"/>
      <point x="88" y="598"/>
      <point x="62" y="598"/>
      <point x="34" y="598" type="curve"/>
      <point x="34" y="488"/>
      <point x="94" y="421"/>
      <point x="199" y="421" type="curve"/>
      <point x="305" y="421"/>
      <point x="368" y="487"/>
      <point x="368" y="597" type="curve"/>
      <point x="368" y="705"/>
      <point x="308" y="773"/>
      <point x="201" y="773" type="curve"/>
      <point x="93" y="773"/>
      <point x="34" y="705"/>
      <point x="34" y="598" type="curve"/>
      <point x="62" y="598"/>
      <point x="88" y="598"/>
    </contour>
  </outline>
</glyph>
<glyph name="guillemotright" format="1">
  <advance width="498"/>
  <unicode hex="00BB"/>
  <outline>
    <contour>
      <point x="270" y="476" type="curve"/>
      <point x="314" y="445"/>
      <point x="417" y="378"/>
      <point x="462" y="347" type="curve"/>
      <point x="462" y="237"/>
      <point x="462" y="335"/>
      <point x="462" y="224" type="curve"/>
      <point x="417" y="254"/>
      <point x="314" y="329"/>
      <point x="270" y="359" type="curve"/>
      <point x="270" y="469"/>
      <point x="270" y="366"/>
    </contour>
    <contour>
      <point x="270" y="215" type="curve"/>
      <point x="314" y="245"/>
      <point x="417" y="317"/>
      <point x="462" y="347" type="curve"/>
      <point x="462" y="237"/>
      <point x="462" y="335"/>
      <point x="462" y="224" type="curve"/>
      <point x="417" y="194"/>
      <point x="314" y="128"/>
      <point x="270" y="98" type="curve"/>
      <point x="270" y="208"/>
      <point x="270" y="105"/>
    </contour>
    <contour>
      <point x="57" y="476" type="curve"/>
      <point x="101" y="445"/>
      <point x="205" y="378"/>
      <point x="249" y="347" type="curve"/>
      <point x="249" y="237"/>
      <point x="249" y="335"/>
      <point x="249" y="224" type="curve"/>
      <point x="205" y="254"/>
      <point x="101" y="329"/>
      <point x="57" y="359" type="curve"/>
      <point x="57" y="469"/>
      <point x="57" y="366"/>
    </contour>
    <contour>
      <point x="57" y="215" type="curve"/>
      <point x="101" y="245"/>
      <point x="205" y="317"/>
      <point x="249" y="347" type="curve"/>
      <point x="249" y="237"/>
      <point x="249" y="335"/>
      <point x="249" y="224" type="curve"/>
      <point x="205" y="194"/>
      <point x="101" y="128"/>
      <point x="57" y="98" type="curve"/>
      <point x="57" y="208"/>
      <point x="57" y="105"/>
    </contour>
  </outline>
</glyph>
<glyph name="onequarter" format="1">
  <advance width="920"/>
  <unicode hex="00BC"/>
  <outline>
    <contour>
      <point x="329" y="-42" type="line"/>
      <point x="710" y="713" type="line"/>
      <point x="589" y="713" type="line"/>
      <point x="209" y="-42" type="line"/>
    </contour>
    <contour>
      <point x="81" y="555" type="line"/>
      <point x="241" y="711" type="line"/>
      <point x="128" y="713" type="line"/>
      <point x="23" y="618" type="line"/>
    </contour>
    <contour>
      <point x="241" y="288" type="curve"/>
      <point x="241" y="713" type="line"/>
      <point x="128" y="713" type="line"/>
      <point x="128" y="288" type="line"/>
      <point x="204" y="288"/>
      <point x="159" y="288"/>
    </contour>
    <contour>
      <point x="888" y="161" type="line"/>
      <point x="534" y="161" type="line"/>
      <point x="534" y="77" type="line"/>
      <point x="888" y="77" type="line"/>
    </contour>
    <contour>
      <point x="571" y="84" type="line"/>
      <point x="792" y="383" type="line"/>
      <point x="709" y="399" type="line"/>
      <point x="534" y="161" type="line"/>
    </contour>
    <contour>
      <point x="822" y="-39" type="line"/>
      <point x="822" y="399" type="line"/>
      <point x="709" y="399" type="line"/>
      <point x="709" y="-39" type="line"/>
    </contour>
  </outline>
</glyph>
<glyph name="onehalf" format="1">
  <advance width="1000"/>
  <unicode hex="00BD"/>
  <outline>
    <contour>
      <point x="357" y="-42" type="line"/>
      <point x="737" y="713" type="line"/>
      <point x="617" y="713" type="line"/>
      <point x="237" y="-42" type="line"/>
    </contour>
    <contour>
      <point x="81" y="555" type="line"/>
      <point x="241" y="711" type="line"/>
      <point x="128" y="713" type="line"/>
      <point x="23" y="618" type="line"/>
    </contour>
    <contour>
      <point x="241" y="288" type="curve"/>
      <point x="241" y="713" type="line"/>
      <point x="128" y="713" type="line"/>
      <point x="128" y="288" type="line"/>
      <point x="204" y="288"/>
      <point x="159" y="288"/>
    </contour>
    <contour>
      <point x="620" y="-40" type="curve"/>
      <point x="744" y="-40"/>
      <point x="867" y="-40"/>
      <point x="965" y="-40" type="curve"/>
      <point x="965" y="5"/>
      <point x="965" y="-2"/>
      <point x="965" y="46" type="curve"/>
      <point x="857" y="46"/>
      <point x="729" y="46"/>
      <point x="620" y="46" type="curve"/>
      <point x="620" y="-40"/>
      <point x="620" y="46"/>
    </contour>
    <contour>
      <point x="715" y="255" type="curve"/>
      <point x="731" y="285"/>
      <point x="749" y="308"/>
      <point x="783" y="308" type="curve"/>
      <point x="818" y="308"/>
      <point x="837" y="287"/>
      <point x="837" y="253" type="curve"/>
      <point x="837" y="218"/>
      <point x="813" y="199"/>
      <point x="787" y="175" type="curve"/>
      <point x="731" y="132"/>
      <point x="676" y="89"/>
      <point x="620" y="46" type="curve"/>
      <point x="622" y="-39"/>
      <point x="622" y="46"/>
      <point x="623" y="-39" type="curve"/>
      <point x="704" y="13"/>
      <point x="793" y="59"/>
      <point x="854" y="108" type="curve"/>
      <point x="906" y="154"/>
      <point x="947" y="189"/>
      <point x="947" y="258" type="curve"/>
      <point x="947" y="346"/>
      <point x="883" y="394"/>
      <point x="791" y="394" type="curve"/>
      <point x="718" y="394"/>
      <point x="664" y="368"/>
      <point x="635" y="292" type="curve"/>
      <point x="715" y="255"/>
      <point x="635" y="292"/>
    </contour>
  </outline>
</glyph>
<glyph name="threequarters" format="1">
  <advance width="946"/>
  <unicode hex="00BE"/>
  <outline>
    <contour>
      <point x="364" y="-42" type="line"/>
      <point x="745" y="713" type="line"/>
      <point x="625" y="713" type="line"/>
      <point x="244" y="-42" type="line"/>
    </contour>
    <contour>
      <point x="93" y="595" type="curve"/>
      <point x="114" y="614"/>
      <point x="136" y="626"/>
      <point x="159" y="626" type="curve"/>
      <point x="192" y="626"/>
      <point x="213" y="611"/>
      <point x="213" y="580" type="curve"/>
      <point x="213" y="545"/>
      <point x="168" y="534"/>
      <point x="123" y="532" type="curve"/>
      <point x="123" y="459"/>
      <point x="123" y="532"/>
      <point x="123" y="459" type="curve"/>
      <point x="233" y="462"/>
      <point x="326" y="491"/>
      <point x="326" y="587" type="curve"/>
      <point x="326" y="673"/>
      <point x="261" y="711"/>
      <point x="171" y="711" type="curve"/>
      <point x="117" y="711"/>
      <point x="67" y="689"/>
      <point x="34" y="652" type="curve"/>
      <point x="93" y="595"/>
      <point x="34" y="652"/>
    </contour>
    <contour>
      <point x="32" y="309" type="curve"/>
      <point x="70" y="286"/>
      <point x="108" y="272"/>
      <point x="151" y="272" type="curve"/>
      <point x="261" y="271"/>
      <point x="341" y="308"/>
      <point x="340" y="407" type="curve"/>
      <point x="340" y="507"/>
      <point x="237" y="519"/>
      <point x="123" y="523" type="curve"/>
      <point x="123" y="459"/>
      <point x="123" y="523"/>
      <point x="123" y="459" type="curve"/>
      <point x="178" y="456"/>
      <point x="227" y="444"/>
      <point x="227" y="404" type="curve"/>
      <point x="226" y="371"/>
      <point x="199" y="355"/>
      <point x="162" y="356" type="curve"/>
      <point x="136" y="356"/>
      <point x="111" y="361"/>
      <point x="84" y="375" type="curve"/>
      <point x="32" y="309"/>
      <point x="84" y="375"/>
    </contour>
    <contour>
      <point x="919" y="161" type="line"/>
      <point x="565" y="161" type="line"/>
      <point x="565" y="77" type="line"/>
      <point x="919" y="77" type="line"/>
    </contour>
    <contour>
      <point x="602" y="84" type="line"/>
      <point x="823" y="383" type="line"/>
      <point x="740" y="399" type="line"/>
      <point x="565" y="161" type="line"/>
    </contour>
    <contour>
      <point x="853" y="-39" type="line"/>
      <point x="853" y="399" type="line"/>
      <point x="740" y="399" type="line"/>
      <point x="740" y="-39" type="line"/>
    </contour>
  </outline>
</glyph>
<glyph name="questiondown" format="1">
  <advance width="508"/>
  <unicode hex="00BF"/>
  <outline>
    <contour>
      <point x="326" y="355" type="curve"/>
      <point x="326" y="392"/>
      <point x="326" y="472"/>
      <point x="326" y="509" type="curve"/>
      <point x="203" y="509"/>
      <point x="326" y="509"/>
      <point x="203" y="509" type="curve"/>
      <point x="203" y="472"/>
      <point x="203" y="392"/>
      <point x="203" y="355" type="curve"/>
      <point x="326" y="355"/>
      <point x="203" y="355"/>
    </contour>
    <contour>
      <point x="401" y="148" type="line"/>
      <point x="368" y="112"/>
      <point x="328" y="88"/>
      <point x="275" y="88" type="curve"/>
      <point x="201" y="88"/>
      <point x="155" y="136"/>
      <point x="155" y="211" type="curve"/>
      <point x="155" y="299"/>
      <point x="217" y="355"/>
      <point x="312" y="355" type="curve"/>
      <point x="312" y="392"/>
      <point x="313" y="415"/>
      <point x="313" y="452" type="curve"/>
      <point x="145" y="452"/>
      <point x="30" y="363"/>
      <point x="30" y="211" type="curve"/>
      <point x="30" y="66"/>
      <point x="128" y="-18"/>
      <point x="269" y="-18" type="curve"/>
      <point x="354" y="-18"/>
      <point x="419" y="10"/>
      <point x="470" y="68" type="curve"/>
    </contour>
    <contour>
      <point x="192" y="684" type="curve"/>
      <point x="192" y="640"/>
      <point x="223" y="619"/>
      <point x="264" y="619" type="curve"/>
      <point x="306" y="619"/>
      <point x="334" y="642"/>
      <point x="334" y="684" type="curve"/>
      <point x="192" y="684"/>
      <point x="334" y="684"/>
      <point x="192" y="684" type="curve"/>
      <point x="192" y="729"/>
      <point x="222" y="749"/>
      <point x="265" y="749" type="curve"/>
      <point x="307" y="749"/>
      <point x="334" y="727"/>
      <point x="334" y="684" type="curve"/>
      <point x="192" y="684"/>
      <point x="334" y="684"/>
    </contour>
  </outline>
</glyph>
<glyph name="Acircumflex" format="1">
  <advance width="655"/>
  <unicode hex="00C2"/>
  <outline>
    <contour>
      <point x="468" y="297" type="curve"/>
      <point x="377" y="297"/>
      <point x="286" y="297"/>
      <point x="195" y="297" type="curve"/>
      <point x="141" y="191"/>
      <point x="195" y="297"/>
      <point x="141" y="191" type="curve"/>
      <point x="264" y="191"/>
      <point x="387" y="191"/>
      <point x="510" y="191" type="curve"/>
      <point x="468" y="297"/>
      <point x="510" y="191"/>
    </contour>
    <contour>
      <point x="645" y="0" type="curve"/>
      <point x="564" y="241"/>
      <point x="477" y="481"/>
      <point x="396" y="722" type="curve"/>
      <point x="277" y="722"/>
      <point x="396" y="722"/>
      <point x="277" y="722" type="curve"/>
      <point x="356" y="482"/>
      <point x="428" y="240"/>
      <point x="508" y="0" type="curve"/>
      <point x="645" y="0"/>
      <point x="508" y="0"/>
    </contour>
    <contour>
      <point x="139" y="0" type="curve"/>
      <point x="227" y="240"/>
      <point x="306" y="482"/>
      <point x="395" y="722" type="curve"/>
      <point x="275" y="722"/>
      <point x="395" y="722"/>
      <point x="275" y="722" type="curve"/>
      <point x="185" y="480"/>
      <point x="85" y="242"/>
      <point x="-4" y="0" type="curve"/>
      <point x="139" y="0"/>
      <point x="-4" y="0"/>
    </contour>
    <contour>
      <point x="253" y="786" type="line"/>
      <point x="391" y="952" type="line"/>
      <point x="227" y="952" type="line"/>
      <point x="127" y="786" type="line"/>
    </contour>
    <contour>
      <point x="540" y="786" type="line"/>
      <point x="439" y="952" type="line"/>
      <point x="275" y="952" type="line"/>
      <point x="413" y="786" type="line"/>
    </contour>
  </outline>
</glyph>
<glyph name="Atilde" format="1">
  <advance width="655"/>
  <unicode hex="00C3"/>
  <outline>
    <contour>
      <point x="468" y="297" type="curve"/>
      <point x="377" y="297"/>
      <point x="286" y="297"/>
      <point x="195" y="297" type="curve"/>
      <point x="141" y="191"/>
      <point x="195" y="297"/>
      <point x="141" y="191" type="curve"/>
      <point x="264" y="191"/>
      <point x="387" y="191"/>
      <point x="510" y="191" type="curve"/>
      <point x="468" y="297"/>
      <point x="510" y="191"/>
    </contour>
    <contour>
      <point x="645" y="0" type="curve"/>
      <point x="564" y="241"/>
      <point x="477" y="481"/>
      <point x="396" y="722" type="curve"/>
      <point x="277" y="722"/>
      <point x="396" y="722"/>
      <point x="277" y="722" type="curve"/>
      <point x="356" y="482"/>
      <point x="428" y="240"/>
      <point x="508" y="0" type="curve"/>
      <point x="645" y="0"/>
      <point x="508" y="0"/>
    </contour>
    <contour>
      <point x="139" y="0" type="curve"/>
      <point x="227" y="240"/>
      <point x="306" y="482"/>
      <point x="395" y="722" type="curve"/>
      <point x="275" y="722"/>
      <point x="395" y="722"/>
      <point x="275" y="722" type="curve"/>
      <point x="185" y="480"/>
      <point x="85" y="242"/>
      <point x="-4" y="0" type="curve"/>
      <point x="139" y="0"/>
      <point x="-4" y="0"/>
    </contour>
    <contour>
      <point x="454" y="966" type="curve"/>
      <point x="439" y="928"/>
      <point x="425" y="910"/>
      <point x="403" y="910" type="curve"/>
      <point x="374" y="910"/>
      <point x="359" y="918"/>
      <point x="338" y="936" type="curve"/>
      <point x="308" y="961"/>
      <point x="289" y="973"/>
      <point x="252" y="973" type="curve"/>
      <point x="179" y="973"/>
      <point x="141" y="911"/>
      <point x="117" y="840" type="curve"/>
      <point x="214" y="787"/>
      <point x="117" y="840"/>
      <point x="214" y="787" type="curve"/>
      <point x="232" y="830"/>
      <point x="249" y="847"/>
      <point x="273" y="847" type="curve"/>
      <point x="299" y="847"/>
      <point x="311" y="837"/>
      <point x="329" y="822" type="curve"/>
      <point x="363" y="794"/>
      <point x="384" y="781"/>
      <point x="426" y="781" type="curve"/>
      <point x="500" y="781"/>
      <point x="531" y="842"/>
      <point x="558" y="915" type="curve"/>
      <point x="454" y="966"/>
      <point x="557" y="914"/>
    </contour>
  </outline>
</glyph>
<glyph name="Adieresis" format="1">
  <advance width="655"/>
  <unicode hex="00C4"/>
  <outline>
    <contour>
      <point x="468" y="297" type="curve"/>
      <point x="377" y="297"/>
      <point x="286" y="297"/>
      <point x="195" y="297" type="curve"/>
      <point x="141" y="191"/>
      <point x="195" y="297"/>
      <point x="141" y="191" type="curve"/>
      <point x="264" y="191"/>
      <point x="387" y="191"/>
      <point x="510" y="191" type="curve"/>
      <point x="468" y="297"/>
      <point x="510" y="191"/>
    </contour>
    <contour>
      <point x="645" y="0" type="curve"/>
      <point x="564" y="241"/>
      <point x="477" y="481"/>
      <point x="396" y="722" type="curve"/>
      <point x="277" y="722"/>
      <point x="396" y="722"/>
      <point x="277" y="722" type="curve"/>
      <point x="356" y="482"/>
      <point x="428" y="240"/>
      <point x="508" y="0" type="curve"/>
      <point x="645" y="0"/>
      <point x="508" y="0"/>
    </contour>
    <contour>
      <point x="139" y="0" type="curve"/>
      <point x="227" y="240"/>
      <point x="306" y="482"/>
      <point x="395" y="722" type="curve"/>
      <point x="275" y="722"/>
      <point x="395" y="722"/>
      <point x="275" y="722" type="curve"/>
      <point x="185" y="480"/>
      <point x="85" y="242"/>
      <point x="-4" y="0" type="curve"/>
      <point x="139" y="0"/>
      <point x="-4" y="0"/>
    </contour>
    <contour>
      <point x="307" y="846" type="curve"/>
      <point x="307" y="890"/>
      <point x="276" y="912"/>
      <point x="234" y="912" type="curve"/>
      <point x="192" y="912"/>
      <point x="164" y="888"/>
      <point x="164" y="846" type="curve"/>
      <point x="306" y="846"/>
      <point x="165" y="846"/>
      <point x="307" y="846" type="curve"/>
      <point x="307" y="801"/>
      <point x="277" y="781"/>
      <point x="234" y="781" type="curve"/>
      <point x="191" y="781"/>
      <point x="164" y="803"/>
      <point x="164" y="846" type="curve"/>
      <point x="306" y="846"/>
      <point x="165" y="846"/>
    </contour>
    <contour>
      <point x="504" y="846" type="curve"/>
      <point x="504" y="890"/>
      <point x="473" y="912"/>
      <point x="431" y="912" type="curve"/>
      <point x="389" y="912"/>
      <point x="361" y="888"/>
      <point x="361" y="846" type="curve"/>
      <point x="503" y="846"/>
      <point x="362" y="846"/>
      <point x="504" y="846" type="curve"/>
      <point x="504" y="801"/>
      <point x="473" y="781"/>
      <point x="431" y="781" type="curve"/>
      <point x="388" y="781"/>
      <point x="361" y="803"/>
      <point x="361" y="846" type="curve"/>
      <point x="503" y="846"/>
      <point x="362" y="846"/>
    </contour>
  </outline>
</glyph>
<glyph name="Aring" format="1">
  <advance width="655"/>
  <unicode hex="00C5"/>
  <outline>
    <contour>
      <point x="468" y="297" type="curve"/>
      <point x="377" y="297"/>
      <point x="286" y="297"/>
      <point x="195" y="297" type="curve"/>
      <point x="141" y="191"/>
      <point x="195" y="297"/>
      <point x="141" y="191" type="curve"/>
      <point x="264" y="191"/>
      <point x="387" y="191"/>
      <point x="510" y="191" type="curve"/>
      <point x="468" y="297"/>
      <point x="510" y="191"/>
    </contour>
    <contour>
      <point x="645" y="0" type="curve"/>
      <point x="564" y="241"/>
      <point x="477" y="481"/>
      <point x="396" y="722" type="curve"/>
      <point x="277" y="722"/>
      <point x="396" y="722"/>
      <point x="277" y="722" type="curve"/>
      <point x="356" y="482"/>
      <point x="428" y="240"/>
      <point x="508" y="0" type="curve"/>
      <point x="645" y="0"/>
      <point x="508" y="0"/>
    </contour>
    <contour>
      <point x="139" y="0" type="curve"/>
      <point x="227" y="240"/>
      <point x="306" y="482"/>
      <point x="395" y="722" type="curve"/>
      <point x="275" y="722"/>
      <point x="395" y="722"/>
      <point x="275" y="722" type="curve"/>
      <point x="185" y="480"/>
      <point x="85" y="242"/>
      <point x="-4" y="0" type="curve"/>
      <point x="139" y="0"/>
      <point x="-4" y="0"/>
    </contour>
    <contour>
      <point x="179" y="928" type="curve"/>
      <point x="179" y="837"/>
      <point x="241" y="784"/>
      <point x="333" y="784" type="curve"/>
      <point x="427" y="784"/>
      <point x="489" y="836"/>
      <point x="489" y="928" type="curve"/>
      <point x="489" y="1019"/>
      <point x="426" y="1072"/>
      <point x="331" y="1072" type="curve"/>
      <point x="239" y="1072"/>
      <point x="179" y="1018"/>
      <point x="179" y="928" type="curve"/>
      <point x="293" y="928"/>
      <point x="172" y="928"/>
      <point x="286" y="928" type="curve"/>
      <point x="286" y="959"/>
      <point x="297" y="983"/>
      <point x="331" y="983" type="curve"/>
      <point x="365" y="983"/>
      <point x="378" y="961"/>
      <point x="378" y="928" type="curve"/>
      <point x="378" y="896"/>
      <point x="366" y="873"/>
      <point x="333" y="873" type="curve"/>
      <point x="300" y="873"/>
      <point x="286" y="896"/>
      <point x="286" y="928" type="curve"/>
      <point x="172" y="928"/>
      <point x="293" y="928"/>
    </contour>
  </outline>
</glyph>
<glyph name="AE" format="1">
  <advance width="889"/>
  <unicode hex="00C6"/>
  <outline>
    <contour>
      <point x="434" y="280" type="curve"/>
      <point x="343" y="280"/>
      <point x="280" y="280"/>
      <point x="190" y="280" type="curve"/>
      <point x="136" y="174"/>
      <point x="190" y="280"/>
      <point x="136" y="174" type="curve"/>
      <point x="258" y="174"/>
      <point x="353" y="174"/>
      <point x="476" y="174" type="curve"/>
      <point x="434" y="280"/>
      <point x="476" y="174"/>
    </contour>
    <contour>
      <point x="130" y="0" type="curve"/>
      <point x="537" y="722" type="line"/>
      <point x="417" y="722"/>
      <point x="537" y="722"/>
      <point x="417" y="722" type="curve"/>
      <point x="-13" y="0" type="line"/>
      <point x="130" y="0"/>
      <point x="-13" y="0"/>
    </contour>
    <contour>
      <point x="487" y="322" type="curve"/>
      <point x="584" y="322"/>
      <point x="682" y="322"/>
      <point x="780" y="322" type="curve"/>
      <point x="780" y="423"/>
      <point x="780" y="322"/>
      <point x="780" y="423" type="curve"/>
      <point x="682" y="423"/>
      <point x="584" y="423"/>
      <point x="487" y="423" type="curve"/>
      <point x="487" y="322"/>
      <point x="487" y="423"/>
    </contour>
    <contour>
      <point x="473" y="622" type="curve"/>
      <point x="594" y="622"/>
      <point x="715" y="622"/>
      <point x="836" y="622" type="curve"/>
      <point x="836" y="722"/>
      <point x="836" y="622"/>
      <point x="836" y="722" type="curve"/>
      <point x="715" y="722"/>
      <point x="594" y="722"/>
      <point x="473" y="722" type="curve"/>
      <point x="473" y="622"/>
      <point x="473" y="722"/>
    </contour>
    <contour>
      <point x="549" y="0" type="curve"/>
      <point x="549" y="722" type="line"/>
      <point x="417" y="722"/>
      <point x="549" y="722"/>
      <point x="417" y="722" type="curve"/>
      <point x="417" y="481"/>
      <point x="417" y="241"/>
      <point x="417" y="0" type="curve"/>
      <point x="549" y="0"/>
      <point x="417" y="0"/>
    </contour>
    <contour>
      <point x="473" y="0" type="curve"/>
      <point x="604" y="0"/>
      <point x="735" y="0"/>
      <point x="866" y="0" type="curve"/>
      <point x="866" y="100"/>
      <point x="866" y="0"/>
      <point x="866" y="100" type="curve"/>
      <point x="735" y="100"/>
      <point x="604" y="100"/>
      <point x="473" y="100" type="curve"/>
      <point x="473" y="0"/>
      <point x="473" y="100"/>
    </contour>
  </outline>
</glyph>
<glyph name="Ccedilla" format="1">
  <advance width="634"/>
  <unicode hex="00C7"/>
  <outline>
    <contour>
      <point x="614" y="654" type="curve"/>
      <point x="547" y="696"/>
      <point x="469" y="727"/>
      <point x="381" y="727" type="curve"/>
      <point x="159" y="727"/>
      <point x="41" y="579"/>
      <point x="41" y="345" type="curve"/>
      <point x="41" y="129"/>
      <point x="153" y="-5"/>
      <point x="362" y="-5" type="curve"/>
      <point x="476" y="-5"/>
      <point x="551" y="28"/>
      <point x="624" y="96" type="curve"/>
      <point x="556" y="174"/>
      <point x="624" y="96"/>
      <point x="555" y="174" type="curve"/>
      <point x="494" y="126"/>
      <point x="444" y="100"/>
      <point x="368" y="100" type="curve"/>
      <point x="230" y="100"/>
      <point x="172" y="202"/>
      <point x="172" y="349" type="curve"/>
      <point x="172" y="510"/>
      <point x="231" y="622"/>
      <point x="376" y="622" type="curve"/>
      <point x="439" y="622"/>
      <point x="495" y="605"/>
      <point x="549" y="572" type="curve"/>
      <point x="614" y="654"/>
      <point x="549" y="572"/>
    </contour>
    <contour>
      <point x="309" y="74" type="curve"/>
      <point x="297" y="52"/>
      <point x="250" y="-37"/>
      <point x="238" y="-60" type="curve"/>
      <point x="328" y="-140"/>
      <point x="238" y="-60"/>
      <point x="328" y="-140" type="curve"/>
      <point x="342" y="-114"/>
      <point x="396" y="-22"/>
      <point x="410" y="4" type="curve"/>
      <point x="309" y="74"/>
      <point x="410" y="4"/>
    </contour>
    <contour>
      <point x="328" y="-140" type="curve"/>
      <point x="334" y="-135"/>
      <point x="339" y="-132"/>
      <point x="346" y="-132" type="curve"/>
      <point x="356" y="-132"/>
      <point x="363" y="-137"/>
      <point x="363" y="-149" type="curve"/>
      <point x="363" y="-165"/>
      <point x="349" y="-171"/>
      <point x="331" y="-171" type="curve"/>
      <point x="310" y="-171"/>
      <point x="293" y="-166"/>
      <point x="272" y="-154" type="curve"/>
      <point x="226" y="-228"/>
      <point x="272" y="-154"/>
      <point x="226" y="-228" type="curve"/>
      <point x="258" y="-247"/>
      <point x="287" y="-255"/>
      <point x="325" y="-255" type="curve"/>
      <point x="401" y="-255"/>
      <point x="455" y="-221"/>
      <point x="455" y="-147" type="curve"/>
      <point x="455" y="-77"/>
      <point x="408" y="-37"/>
      <point x="338" y="-37" type="curve"/>
      <point x="300" y="-37"/>
      <point x="273" y="-43"/>
      <point x="238" y="-60" type="curve"/>
      <point x="328" y="-140"/>
      <point x="238" y="-60"/>
    </contour>
  </outline>
</glyph>
<glyph name="Egrave" format="1">
  <advance width="555"/>
  <unicode hex="00C8"/>
  <outline>
    <contour>
      <point x="153" y="322" type="curve"/>
      <point x="250" y="322"/>
      <point x="348" y="322"/>
      <point x="446" y="322" type="curve"/>
      <point x="446" y="423"/>
      <point x="446" y="322"/>
      <point x="446" y="423" type="curve"/>
      <point x="348" y="423"/>
      <point x="250" y="423"/>
      <point x="153" y="423" type="curve"/>
      <point x="153" y="322"/>
      <point x="153" y="423"/>
    </contour>
    <contour>
      <point x="139" y="622" type="curve"/>
      <point x="261" y="622"/>
      <point x="381" y="622"/>
      <point x="502" y="622" type="curve"/>
      <point x="502" y="722"/>
      <point x="502" y="622"/>
      <point x="502" y="722" type="curve"/>
      <point x="381" y="722"/>
      <point x="261" y="722"/>
      <point x="139" y="722" type="curve"/>
      <point x="139" y="622"/>
      <point x="139" y="722"/>
    </contour>
    <contour>
      <point x="215" y="0" type="curve"/>
      <point x="215" y="722" type="line"/>
      <point x="84" y="722"/>
      <point x="215" y="722"/>
      <point x="84" y="722" type="curve"/>
      <point x="84" y="481"/>
      <point x="84" y="241"/>
      <point x="84" y="0" type="curve"/>
      <point x="215" y="0"/>
      <point x="84" y="0"/>
    </contour>
    <contour>
      <point x="139" y="0" type="curve"/>
      <point x="270" y="0"/>
      <point x="401" y="0"/>
      <point x="532" y="0" type="curve"/>
      <point x="532" y="100"/>
      <point x="532" y="0"/>
      <point x="532" y="100" type="curve"/>
      <point x="401" y="100"/>
      <point x="270" y="100"/>
      <point x="139" y="100" type="curve"/>
      <point x="139" y="0"/>
      <point x="139" y="100"/>
    </contour>
    <contour>
      <point x="341" y="786" type="line"/>
      <point x="241" y="952" type="line"/>
      <point x="77" y="952" type="line"/>
      <point x="214" y="786" type="line"/>
    </contour>
  </outline>
</glyph>
<glyph name="Ecircumflex" format="1">
  <advance width="517"/>
  <unicode hex="00CA"/>
  <outline>
    <contour>
      <point x="127" y="322" type="curve"/>
      <point x="224" y="322"/>
      <point x="322" y="322"/>
      <point x="420" y="322" type="curve"/>
      <point x="420" y="423"/>
      <point x="420" y="322"/>
      <point x="420" y="423" type="curve"/>
      <point x="322" y="423"/>
      <point x="224" y="423"/>
      <point x="127" y="423" type="curve"/>
      <point x="127" y="322"/>
      <point x="127" y="423"/>
    </contour>
    <contour>
      <point x="113" y="622" type="curve"/>
      <point x="234" y="622"/>
      <point x="355" y="622"/>
      <point x="476" y="622" type="curve"/>
      <point x="476" y="722"/>
      <point x="476" y="622"/>
      <point x="476" y="722" type="curve"/>
      <point x="355" y="722"/>
      <point x="234" y="722"/>
      <point x="113" y="722" type="curve"/>
      <point x="113" y="622"/>
      <point x="113" y="722"/>
    </contour>
    <contour>
      <point x="189" y="0" type="curve"/>
      <point x="189" y="722" type="line"/>
      <point x="57" y="722"/>
      <point x="189" y="722"/>
      <point x="57" y="722" type="curve"/>
      <point x="57" y="481"/>
      <point x="57" y="241"/>
      <point x="57" y="0" type="curve"/>
      <point x="189" y="0"/>
      <point x="57" y="0"/>
    </contour>
    <contour>
      <point x="113" y="0" type="curve"/>
      <point x="244" y="0"/>
      <point x="375" y="0"/>
      <point x="506" y="0" type="curve"/>
      <point x="506" y="100"/>
      <point x="506" y="0"/>
      <point x="506" y="100" type="curve"/>
      <point x="375" y="100"/>
      <point x="244" y="100"/>
      <point x="113" y="100" type="curve"/>
      <point x="113" y="0"/>
      <point x="113" y="100"/>
    </contour>
    <contour>
      <point x="168" y="786" type="line"/>
      <point x="306" y="952" type="line"/>
      <point x="142" y="952" type="line"/>
      <point x="42" y="786" type="line"/>
    </contour>
    <contour>
      <point x="454" y="786" type="line"/>
      <point x="354" y="952" type="line"/>
      <point x="190" y="952" type="line"/>
      <point x="327" y="786" type="line"/>
    </contour>
  </outline>
</glyph>
<glyph name="Edieresis" format="1">
  <advance width="542"/>
  <unicode hex="00CB"/>
  <outline>
    <contour>
      <point x="140" y="322" type="curve"/>
      <point x="237" y="322"/>
      <point x="335" y="322"/>
      <point x="433" y="322" type="curve"/>
      <point x="433" y="423"/>
      <point x="433" y="322"/>
      <point x="433" y="423" type="curve"/>
      <point x="335" y="423"/>
      <point x="237" y="423"/>
      <point x="140" y="423" type="curve"/>
      <point x="140" y="322"/>
      <point x="140" y="423"/>
    </contour>
    <contour>
      <point x="126" y="622" type="curve"/>
      <point x="248" y="622"/>
      <point x="368" y="622"/>
      <point x="489" y="622" type="curve"/>
      <point x="489" y="722"/>
      <point x="489" y="622"/>
      <point x="489" y="722" type="curve"/>
      <point x="368" y="722"/>
      <point x="248" y="722"/>
      <point x="126" y="722" type="curve"/>
      <point x="126" y="622"/>
      <point x="126" y="722"/>
    </contour>
    <contour>
      <point x="202" y="0" type="curve"/>
      <point x="202" y="722" type="line"/>
      <point x="70" y="722"/>
      <point x="202" y="722"/>
      <point x="70" y="722" type="curve"/>
      <point x="70" y="481"/>
      <point x="70" y="241"/>
      <point x="70" y="0" type="curve"/>
      <point x="202" y="0"/>
      <point x="70" y="0"/>
    </contour>
    <contour>
      <point x="126" y="0" type="curve"/>
      <point x="257" y="0"/>
      <point x="388" y="0"/>
      <point x="519" y="0" type="curve"/>
      <point x="519" y="100"/>
      <point x="519" y="0"/>
      <point x="519" y="100" type="curve"/>
      <point x="388" y="100"/>
      <point x="257" y="100"/>
      <point x="126" y="100" type="curve"/>
      <point x="126" y="0"/>
      <point x="126" y="100"/>
    </contour>
    <contour>
      <point x="235" y="846" type="curve"/>
      <point x="235" y="890"/>
      <point x="204" y="912"/>
      <point x="163" y="912" type="curve"/>
      <point x="120" y="912"/>
      <point x="92" y="888"/>
      <point x="92" y="846" type="curve"/>
      <point x="234" y="846"/>
      <point x="93" y="846"/>
      <point x="235" y="846" type="curve"/>
      <point x="235" y="801"/>
      <point x="205" y="781"/>
      <point x="162" y="781" type="curve"/>
      <point x="119" y="781"/>
      <point x="92" y="803"/>
      <point x="92" y="846" type="curve"/>
      <point x="234" y="846"/>
      <point x="93" y="846"/>
    </contour>
    <contour>
      <point x="432" y="846" type="curve"/>
      <point x="432" y="890"/>
      <point x="401" y="912"/>
      <point x="359" y="912" type="curve"/>
      <point x="317" y="912"/>
      <point x="289" y="888"/>
      <point x="289" y="846" type="curve"/>
      <point x="431" y="846"/>
      <point x="290" y="846"/>
      <point x="432" y="846" type="curve"/>
      <point x="432" y="801"/>
      <point x="402" y="781"/>
      <point x="359" y="781" type="curve"/>
      <point x="316" y="781"/>
      <point x="289" y="803"/>
      <point x="289" y="846" type="curve"/>
      <point x="431" y="846"/>
      <point x="290" y="846"/>
    </contour>
  </outline>
</glyph>
<glyph name="Igrave" format="1">
  <advance width="291"/>
  <unicode hex="00CC"/>
  <outline>
    <contour>
      <point x="215" y="0" type="curve"/>
      <point x="215" y="241"/>
      <point x="215" y="481"/>
      <point x="215" y="722" type="curve"/>
      <point x="84" y="722"/>
      <point x="215" y="722"/>
      <point x="84" y="722" type="curve"/>
      <point x="84" y="481"/>
      <point x="84" y="241"/>
      <point x="84" y="0" type="curve"/>
      <point x="215" y="0"/>
      <point x="84" y="0"/>
    </contour>
    <contour>
      <point x="218" y="786" type="line"/>
      <point x="117" y="952" type="line"/>
      <point x="-47" y="952" type="line"/>
      <point x="91" y="786" type="line"/>
    </contour>
  </outline>
</glyph>
<glyph name="Iacute" format="1">
  <advance width="288"/>
  <unicode hex="00CD"/>
  <outline>
    <contour>
      <point x="207" y="0" type="curve"/>
      <point x="207" y="241"/>
      <point x="207" y="481"/>
      <point x="207" y="722" type="curve"/>
      <point x="76" y="722"/>
      <point x="207" y="722"/>
      <point x="76" y="722" type="curve"/>
      <point x="76" y="481"/>
      <point x="76" y="241"/>
      <point x="76" y="0" type="curve"/>
      <point x="207" y="0"/>
      <point x="76" y="0"/>
    </contour>
    <contour>
      <point x="200" y="785" type="line"/>
      <point x="338" y="951" type="line"/>
      <point x="174" y="951" type="line"/>
      <point x="74" y="785" type="line"/>
    </contour>
  </outline>
</glyph>
<glyph name="Icircumflex" format="1">
  <advance width="322"/>
  <unicode hex="00CE"/>
  <outline>
    <contour>
      <point x="229" y="0" type="curve"/>
      <point x="229" y="241"/>
      <point x="229" y="481"/>
      <point x="229" y="722" type="curve"/>
      <point x="97" y="722"/>
      <point x="229" y="722"/>
      <point x="97" y="722" type="curve"/>
      <point x="97" y="481"/>
      <point x="97" y="241"/>
      <point x="97" y="0" type="curve"/>
      <point x="229" y="0"/>
      <point x="97" y="0"/>
    </contour>
    <contour>
      <point x="85" y="786" type="line"/>
      <point x="223" y="952" type="line"/>
      <point x="59" y="952" type="line"/>
      <point x="-41" y="786" type="line"/>
    </contour>
    <contour>
      <point x="371" y="786" type="line"/>
      <point x="270" y="952" type="line"/>
      <point x="106" y="952" type="line"/>
      <point x="244" y="786" type="line"/>
    </contour>
  </outline>
</glyph>
<glyph name="Idieresis" format="1">
  <advance width="291"/>
  <unicode hex="00CF"/>
  <outline>
    <contour>
      <point x="214" y="0" type="curve"/>
      <point x="214" y="241"/>
      <point x="214" y="481"/>
      <point x="214" y="722" type="curve"/>
      <point x="82" y="722"/>
      <point x="214" y="722"/>
      <point x="82" y="722" type="curve"/>
      <point x="82" y="481"/>
      <point x="82" y="241"/>
      <point x="82" y="0" type="curve"/>
      <point x="214" y="0"/>
      <point x="82" y="0"/>
    </contour>
    <contour>
      <point x="123" y="846" type="curve"/>
      <point x="123" y="890"/>
      <point x="92" y="912"/>
      <point x="51" y="912" type="curve"/>
      <point x="9" y="912"/>
      <point x="-20" y="888"/>
      <point x="-20" y="846" type="curve"/>
      <point x="122" y="846"/>
      <point x="-19" y="846"/>
      <point x="123" y="846" type="curve"/>
      <point x="123" y="801"/>
      <point x="93" y="781"/>
      <point x="50" y="781" type="curve"/>
      <point x="8" y="781"/>
      <point x="-20" y="803"/>
      <point x="-20" y="846" type="curve"/>
      <point x="122" y="846"/>
      <point x="-19" y="846"/>
    </contour>
    <contour>
      <point x="320" y="846" type="curve"/>
      <point x="320" y="890"/>
      <point x="289" y="912"/>
      <point x="248" y="912" type="curve"/>
      <point x="205" y="912"/>
      <point x="177" y="888"/>
      <point x="177" y="846" type="curve"/>
      <point x="319" y="846"/>
      <point x="178" y="846"/>
      <point x="320" y="846" type="curve"/>
      <point x="320" y="801"/>
      <point x="290" y="781"/>
      <point x="247" y="781" type="curve"/>
      <point x="205" y="781"/>
      <point x="177" y="803"/>
      <point x="177" y="846" type="curve"/>
      <point x="319" y="846"/>
      <point x="178" y="846"/>
    </contour>
  </outline>
</glyph>
<glyph name="Eth" format="1">
  <advance width="705"/>
  <unicode hex="00D0"/>
  <outline>
    <contour>
      <point x="81" y="722" type="curve"/>
      <point x="81" y="481"/>
      <point x="81" y="241"/>
      <point x="81" y="0" type="curve"/>
      <point x="213" y="0"/>
      <point x="81" y="0"/>
      <point x="213" y="0" type="curve"/>
      <point x="213" y="241"/>
      <point x="213" y="481"/>
      <point x="213" y="722" type="curve"/>
      <point x="81" y="722"/>
      <point x="213" y="722"/>
    </contour>
    <contour>
      <point x="149" y="0" type="curve"/>
      <point x="206" y="0"/>
      <point x="262" y="0"/>
      <point x="321" y="0" type="curve"/>
      <point x="547" y="0"/>
      <point x="664" y="125"/>
      <point x="664" y="354" type="curve"/>
      <point x="664" y="590"/>
      <point x="548" y="722"/>
      <point x="316" y="722" type="curve"/>
      <point x="260" y="722"/>
      <point x="205" y="722"/>
      <point x="149" y="722" type="curve"/>
      <point x="149" y="623"/>
      <point x="149" y="721"/>
      <point x="149" y="622" type="curve"/>
      <point x="203" y="622"/>
      <point x="256" y="622"/>
      <point x="310" y="622" type="curve"/>
      <point x="470" y="622"/>
      <point x="533" y="519"/>
      <point x="533" y="352" type="curve"/>
      <point x="533" y="197"/>
      <point x="477" y="100"/>
      <point x="332" y="100" type="curve"/>
      <point x="270" y="100"/>
      <point x="211" y="100"/>
      <point x="149" y="100" type="curve"/>
      <point x="149" y="1"/>
      <point x="149" y="99"/>
    </contour>
    <contour>
      <point x="29" y="307" type="curve"/>
      <point x="136" y="307"/>
      <point x="243" y="307"/>
      <point x="349" y="307" type="curve"/>
      <point x="349" y="417"/>
      <point x="349" y="307"/>
      <point x="349" y="417" type="curve"/>
      <point x="243" y="417"/>
      <point x="136" y="417"/>
      <point x="29" y="417" type="curve"/>
      <point x="29" y="307"/>
      <point x="29" y="417"/>
    </contour>
  </outline>
</glyph>
<glyph name="Ntilde" format="1">
  <advance width="764"/>
  <unicode hex="00D1"/>
  <outline>
    <contour>
      <point x="691" y="0" type="curve"/>
      <point x="532" y="241"/>
      <point x="374" y="481"/>
      <point x="216" y="722" type="curve"/>
      <point x="72" y="722"/>
      <point x="216" y="722"/>
      <point x="72" y="722" type="curve"/>
      <point x="231" y="481"/>
      <point x="389" y="241"/>
      <point x="548" y="0" type="curve"/>
      <point x="691" y="0"/>
      <point x="548" y="0"/>
    </contour>
    <contour>
      <point x="560" y="722" type="curve"/>
      <point x="560" y="481"/>
      <point x="560" y="241"/>
      <point x="560" y="0" type="curve"/>
      <point x="692" y="0"/>
      <point x="560" y="0"/>
      <point x="692" y="0" type="curve"/>
      <point x="692" y="241"/>
      <point x="692" y="481"/>
      <point x="692" y="722" type="curve"/>
      <point x="560" y="722"/>
      <point x="692" y="722"/>
    </contour>
    <contour>
      <point x="204" y="0" type="curve"/>
      <point x="204" y="241"/>
      <point x="204" y="481"/>
      <point x="204" y="722" type="curve"/>
      <point x="73" y="722"/>
      <point x="204" y="722"/>
      <point x="73" y="722" type="curve"/>
      <point x="73" y="481"/>
      <point x="73" y="241"/>
      <point x="73" y="0" type="curve"/>
      <point x="204" y="0"/>
      <point x="73" y="0"/>
    </contour>
    <contour>
      <point x="503" y="966" type="curve"/>
      <point x="488" y="928"/>
      <point x="474" y="910"/>
      <point x="452" y="910" type="curve"/>
      <point x="423" y="910"/>
      <point x="408" y="918"/>
      <point x="387" y="936" type="curve"/>
      <point x="357" y="961"/>
      <point x="338" y="973"/>
      <point x="301" y="973" type="curve"/>
      <point x="228" y="973"/>
      <point x="190" y="911"/>
      <point x="166" y="840" type="curve"/>
      <point x="263" y="787"/>
      <point x="166" y="840"/>
      <point x="263" y="787" type="curve"/>
      <point x="281" y="830"/>
      <point x="298" y="847"/>
      <point x="323" y="847" type="curve"/>
      <point x="348" y="847"/>
      <point x="360" y="837"/>
      <point x="378" y="822" type="curve"/>
      <point x="412" y="794"/>
      <point x="433" y="781"/>
      <point x="475" y="781" type="curve"/>
      <point x="549" y="781"/>
      <point x="580" y="842"/>
      <point x="607" y="915" type="curve"/>
      <point x="503" y="966"/>
      <point x="606" y="914"/>
    </contour>
  </outline>
</glyph>
<glyph name="Ograve" format="1">
  <advance width="724"/>
  <unicode hex="00D2"/>
  <outline>
    <contour>
      <point x="172" y="360" type="curve" name="FullCurve"/>
      <point x="172" y="508"/>
      <point x="220" y="622"/>
      <point x="358" y="622" type="curve" name="FullCurve"/>
      <point x="494" y="622"/>
      <point x="552" y="511"/>
      <point x="552" y="363" type="curve" name="FullCurve"/>
      <point x="552" y="215"/>
      <point x="502" y="101"/>
      <point x="364" y="101" type="curve" name="FullCurve"/>
      <point x="226" y="101"/>
      <point x="172" y="211"/>
      <point x="172" y="360" type="curve" name="FullCurve"/>
      <point x="41" y="360"/>
      <point x="172" y="360"/>
      <point x="41" y="360" type="curve" name="FullCurve"/>
      <point x="41" y="143"/>
      <point x="152" y="-5"/>
      <point x="359" y="-5" type="curve" name="FullCurve"/>
      <point x="569" y="-5"/>
      <point x="683" y="145"/>
      <point x="683" y="363" type="curve" name="FullCurve"/>
      <point x="683" y="578"/>
      <point x="573" y="727"/>
      <point x="365" y="727" type="curve" name="FullCurve"/>
      <point x="155" y="727"/>
      <point x="41" y="578"/>
      <point x="41" y="360" type="curve" name="FullCurve"/>
      <point x="172" y="360"/>
      <point x="41" y="360"/>
    </contour>
    <contour>
      <point x="431" y="786" type="line"/>
      <point x="330" y="952" type="line"/>
      <point x="166" y="952" type="line"/>
      <point x="304" y="786" type="line"/>
    </contour>
  </outline>
</glyph>
<glyph name="Otilde" format="1">
  <advance width="724"/>
  <unicode hex="00D5"/>
  <outline>
    <contour>
      <point x="172" y="360" type="curve" name="FullCurve"/>
      <point x="172" y="508"/>
      <point x="220" y="622"/>
      <point x="358" y="622" type="curve" name="FullCurve"/>
      <point x="494" y="622"/>
      <point x="552" y="511"/>
      <point x="552" y="363" type="curve" name="FullCurve"/>
      <point x="552" y="215"/>
      <point x="502" y="101"/>
      <point x="364" y="101" type="curve" name="FullCurve"/>
      <point x="226" y="101"/>
      <point x="172" y="211"/>
      <point x="172" y="360" type="curve" name="FullCurve"/>
      <point x="41" y="360"/>
      <point x="172" y="360"/>
      <point x="41" y="360" type="curve" name="FullCurve"/>
      <point x="41" y="143"/>
      <point x="152" y="-5"/>
      <point x="359" y="-5" type="curve" name="FullCurve"/>
      <point x="569" y="-5"/>
      <point x="683" y="145"/>
      <point x="683" y="363" type="curve" name="FullCurve"/>
      <point x="683" y="578"/>
      <point x="573" y="727"/>
      <point x="365" y="727" type="curve" name="FullCurve"/>
      <point x="155" y="727"/>
      <point x="41" y="578"/>
      <point x="41" y="360" type="curve" name="FullCurve"/>
      <point x="172" y="360"/>
      <point x="41" y="360"/>
    </contour>
    <contour>
      <point x="484" y="966" type="curve"/>
      <point x="470" y="928"/>
      <point x="455" y="910"/>
      <point x="434" y="910" type="curve"/>
      <point x="405" y="910"/>
      <point x="390" y="918"/>
      <point x="369" y="936" type="curve"/>
      <point x="338" y="961"/>
      <point x="319" y="973"/>
      <point x="282" y="973" type="curve"/>
      <point x="209" y="973"/>
      <point x="171" y="911"/>
      <point x="147" y="840" type="curve"/>
      <point x="244" y="787"/>
      <point x="148" y="840"/>
      <point x="244" y="787" type="curve"/>
      <point x="263" y="830"/>
      <point x="279" y="847"/>
      <point x="304" y="847" type="curve"/>
      <point x="329" y="847"/>
      <point x="342" y="837"/>
      <point x="359" y="822" type="curve"/>
      <point x="394" y="794"/>
      <point x="415" y="781"/>
      <point x="456" y="781" type="curve"/>
      <point x="530" y="781"/>
      <point x="561" y="842"/>
      <point x="588" y="915" type="curve"/>
      <point x="485" y="966"/>
      <point x="588" y="914"/>
    </contour>
  </outline>
</glyph>
<glyph name="Odieresis" format="1">
  <advance width="724"/>
  <unicode hex="00D6"/>
  <outline>
    <contour>
      <point x="172" y="360" type="curve" name="FullCurve"/>
      <point x="172" y="508"/>
      <point x="220" y="622"/>
      <point x="358" y="622" type="curve" name="FullCurve"/>
      <point x="494" y="622"/>
      <point x="552" y="511"/>
      <point x="552" y="363" type="curve" name="FullCurve"/>
      <point x="552" y="215"/>
      <point x="502" y="101"/>
      <point x="364" y="101" type="curve" name="FullCurve"/>
      <point x="226" y="101"/>
      <point x="172" y="211"/>
      <point x="172" y="360" type="curve" name="FullCurve"/>
      <point x="41" y="360"/>
      <point x="172" y="360"/>
      <point x="41" y="360" type="curve" name="FullCurve"/>
      <point x="41" y="143"/>
      <point x="152" y="-5"/>
      <point x="359" y="-5" type="curve" name="FullCurve"/>
      <point x="569" y="-5"/>
      <point x="683" y="145"/>
      <point x="683" y="363" type="curve" name="FullCurve"/>
      <point x="683" y="578"/>
      <point x="573" y="727"/>
      <point x="365" y="727" type="curve" name="FullCurve"/>
      <point x="155" y="727"/>
      <point x="41" y="578"/>
      <point x="41" y="360" type="curve" name="FullCurve"/>
      <point x="172" y="360"/>
      <point x="41" y="360"/>
    </contour>
    <contour>
      <point x="337" y="846" type="curve"/>
      <point x="337" y="890"/>
      <point x="306" y="912"/>
      <point x="265" y="912" type="curve"/>
      <point x="223" y="912"/>
      <point x="195" y="888"/>
      <point x="195" y="846" type="curve"/>
      <point x="336" y="846"/>
      <point x="195" y="846"/>
      <point x="337" y="846" type="curve"/>
      <point x="337" y="801"/>
      <point x="307" y="781"/>
      <point x="265" y="781" type="curve"/>
      <point x="222" y="781"/>
      <point x="195" y="803"/>
      <point x="195" y="846" type="curve"/>
      <point x="336" y="846"/>
      <point x="195" y="846"/>
    </contour>
    <contour>
      <point x="534" y="846" type="curve"/>
      <point x="534" y="890"/>
      <point x="503" y="912"/>
      <point x="462" y="912" type="curve"/>
      <point x="419" y="912"/>
      <point x="391" y="888"/>
      <point x="391" y="846" type="curve"/>
      <point x="533" y="846"/>
      <point x="392" y="846"/>
      <point x="534" y="846" type="curve"/>
      <point x="534" y="801"/>
      <point x="504" y="781"/>
      <point x="461" y="781" type="curve"/>
      <point x="419" y="781"/>
      <point x="391" y="803"/>
      <point x="391" y="846" type="curve"/>
      <point x="533" y="846"/>
      <point x="392" y="846"/>
    </contour>
  </outline>
</glyph>
<glyph name="Oslash" format="1">
  <advance width="724"/>
  <unicode hex="00D8"/>
  <outline>
    <contour>
      <point x="201" y="-63" type="line"/>
      <point x="607" y="739" type="line"/>
      <point x="521" y="776" type="line"/>
      <point x="120" y="-17" type="line"/>
    </contour>
    <contour>
      <point x="172" y="360" type="curve" name="FullCurve"/>
      <point x="172" y="508"/>
      <point x="220" y="622"/>
      <point x="358" y="622" type="curve" name="FullCurve"/>
      <point x="494" y="622"/>
      <point x="552" y="511"/>
      <point x="552" y="363" type="curve" name="FullCurve"/>
      <point x="552" y="215"/>
      <point x="502" y="101"/>
      <point x="364" y="101" type="curve" name="FullCurve"/>
      <point x="226" y="101"/>
      <point x="172" y="211"/>
      <point x="172" y="360" type="curve" name="FullCurve"/>
      <point x="41" y="360"/>
      <point x="172" y="360"/>
      <point x="41" y="360" type="curve" name="FullCurve"/>
      <point x="41" y="143"/>
      <point x="152" y="-5"/>
      <point x="359" y="-5" type="curve" name="FullCurve"/>
      <point x="569" y="-5"/>
      <point x="683" y="145"/>
      <point x="683" y="363" type="curve" name="FullCurve"/>
      <point x="683" y="578"/>
      <point x="573" y="727"/>
      <point x="365" y="727" type="curve" name="FullCurve"/>
      <point x="155" y="727"/>
      <point x="41" y="578"/>
      <point x="41" y="360" type="curve" name="FullCurve"/>
      <point x="172" y="360"/>
      <point x="41" y="360"/>
    </contour>
  </outline>
</glyph>
